<svg id="Group_1081" data-name="Group 1081" xmlns="http://www.w3.org/2000/svg" width="22.124" height="40.308" viewBox="0 0 22.124 40.308">
  <path id="Path_209" data-name="Path 209" d="M130.8,14.419l-8.1-7.094a2.352,2.352,0,0,0-3.089,0L116.74,9.844a7.361,7.361,0,0,1-.256-1.924A6.743,6.743,0,0,1,117.92,3.65a4.2,4.2,0,0,1,3.237-1.668c2.577,0,4.674,2.659,4.674,5.938a.994.994,0,0,0,.991.991h0a.994.994,0,0,0,.991-.991c0-4.369-2.989-7.92-6.656-7.92a6.139,6.139,0,0,0-4.773,2.395A8.717,8.717,0,0,0,114.5,7.92a9.218,9.218,0,0,0,.619,3.345l-3.6,3.155a4.175,4.175,0,0,0-1.42,3.13V35.337a4.976,4.976,0,0,0,4.971,4.971h12.181a4.976,4.976,0,0,0,4.971-4.971V17.549A4.175,4.175,0,0,0,130.8,14.419Zm-.562,20.918a2.989,2.989,0,0,1-2.989,2.989H115.063a2.989,2.989,0,0,1-2.989-2.989V17.549a2.193,2.193,0,0,1,.743-1.643l3.262-2.857.3.4a6.139,6.139,0,0,0,4.773,2.395h0a.991.991,0,1,0,0-1.982,4.187,4.187,0,0,1-3.237-1.668c-.116-.149-.231-.3-.339-.454l3.336-2.923a.361.361,0,0,1,.479,0l8.1,7.094a2.193,2.193,0,0,1,.743,1.643V35.337Z" transform="translate(-110.1)" fill="#fff"/>
  <path id="Path_210" data-name="Path 210" d="M195.458,225.152h-2.18a1.4,1.4,0,0,1,0-2.791h3.84a.991.991,0,0,0,0-1.982h-1.759v-1.288a.991.991,0,0,0-1.982,0v1.288h-.1a3.378,3.378,0,1,0,0,6.755h2.18a1.4,1.4,0,0,1,0,2.791h-3.914a.991.991,0,0,0,0,1.982h1.833v1.313a.991.991,0,0,0,1.982,0v-1.313h.14a3.378,3.378,0,0,0-.041-6.755Z" transform="translate(-183.31 -200.089)" fill="#fff"/>
</svg>
