<svg xmlns="http://www.w3.org/2000/svg" xmlns:xlink="http://www.w3.org/1999/xlink" width="1005" height="409" viewBox="0 0 1005 409">
  <defs>
    <clipPath id="clip-path">
      <rect id="Rectangle_668" data-name="Rectangle 668" width="1005" height="409" transform="translate(6722 -2791)" fill="#5c2d2d"/>
    </clipPath>
  </defs>
  <g id="Mask_Group_12" data-name="Mask Group 12" transform="translate(-6722 2791)" clip-path="url(#clip-path)">
    <g id="Group_1206" data-name="Group 1206" transform="translate(6722 -2805)">
      <g id="Rectangle_648" data-name="Rectangle 648" transform="translate(0 14)" fill="none" stroke="#eaeaea" stroke-width="1">
        <rect width="208" height="119" rx="2" stroke="none"/>
        <rect x="0.5" y="0.5" width="207" height="118" rx="1.5" fill="none"/>
      </g>
      <text id="A-class" transform="translate(23 53)" fill="#4da6ff" font-size="18" font-family="Roboto-Bold, Roboto" font-weight="700"><tspan x="0" y="0">A-class</tspan></text>
      <text id="Məhsul_sayı:_22_000" data-name="Məhsul sayı: 22 000" transform="translate(23 106)" fill="#505050" font-size="12" font-family="Roboto-Regular, Roboto"><tspan x="0" y="0">Məhsul sayı: </tspan><tspan y="0" font-family="Roboto-Bold, Roboto" font-weight="700">22 000</tspan></text>
      <g id="arrow-pointing-to-right" transform="translate(158.399 41)">
        <path id="Path_358" data-name="Path 358" d="M23.907,4.538,19.568.2a.678.678,0,0,0-.959.959L21.791,4.34H-3.89a.678.678,0,0,0-.678.678A.678.678,0,0,0-3.89,5.7H21.791L18.609,8.878a.678.678,0,0,0,.959.959L23.907,5.5A.678.678,0,0,0,23.907,4.538Z" transform="translate(0)" fill="#4da6ff"/>
      </g>
    </g>
    <g id="Group_1207" data-name="Group 1207" transform="translate(6722 -2660)">
      <g id="Rectangle_649" data-name="Rectangle 649" transform="translate(0 14)" fill="none" stroke="#eaeaea" stroke-width="1">
        <rect width="208" height="119" rx="2" stroke="none"/>
        <rect x="0.5" y="0.5" width="207" height="118" rx="1.5" fill="none"/>
      </g>
      <text id="CLA-class" transform="translate(23 53)" fill="#4da6ff" font-size="18" font-family="Roboto-Bold, Roboto" font-weight="700"><tspan x="0" y="0">CLA-class</tspan></text>
      <text id="Məhsul_sayı:_22_000-2" data-name="Məhsul sayı: 22 000" transform="translate(23 106)" fill="#505050" font-size="12" font-family="Roboto-Regular, Roboto"><tspan x="0" y="0">Məhsul sayı: </tspan><tspan y="0" font-family="Roboto-Bold, Roboto" font-weight="700">22 000</tspan></text>
      <g id="arrow-pointing-to-right-2" data-name="arrow-pointing-to-right" transform="translate(158.399 41)">
        <path id="Path_359" data-name="Path 359" d="M23.907,4.538,19.568.2a.678.678,0,0,0-.959.959L21.791,4.34H-3.89a.678.678,0,0,0-.678.678A.678.678,0,0,0-3.89,5.7H21.791L18.609,8.878a.678.678,0,0,0,.959.959L23.907,5.5A.678.678,0,0,0,23.907,4.538Z" transform="translate(0)" fill="#4da6ff"/>
      </g>
    </g>
    <g id="Group_1208" data-name="Group 1208" transform="translate(6722 -2515)">
      <g id="Rectangle_650" data-name="Rectangle 650" transform="translate(0 14)" fill="none" stroke="#eaeaea" stroke-width="1">
        <rect width="208" height="119" rx="2" stroke="none"/>
        <rect x="0.5" y="0.5" width="207" height="118" rx="1.5" fill="none"/>
      </g>
      <text id="CLA-class-2" data-name="CLA-class" transform="translate(23 53)" fill="#4da6ff" font-size="18" font-family="Roboto-Bold, Roboto" font-weight="700"><tspan x="0" y="0">CLA-class</tspan></text>
      <text id="Məhsul_sayı:_22_000-3" data-name="Məhsul sayı: 22 000" transform="translate(23 106)" fill="#505050" font-size="12" font-family="Roboto-Regular, Roboto"><tspan x="0" y="0">Məhsul sayı: </tspan><tspan y="0" font-family="Roboto-Bold, Roboto" font-weight="700">22 000</tspan></text>
      <g id="arrow-pointing-to-right-3" data-name="arrow-pointing-to-right" transform="translate(158.399 41)">
        <path id="Path_360" data-name="Path 360" d="M23.907,4.538,19.568.2a.678.678,0,0,0-.959.959L21.791,4.34H-3.89a.678.678,0,0,0-.678.678A.678.678,0,0,0-3.89,5.7H21.791L18.609,8.878a.678.678,0,0,0,.959.959L23.907,5.5A.678.678,0,0,0,23.907,4.538Z" transform="translate(0)" fill="#4da6ff"/>
      </g>
    </g>
    <g id="Group_1209" data-name="Group 1209" transform="translate(6722 -2370)">
      <g id="Rectangle_651" data-name="Rectangle 651" transform="translate(0 14)" fill="none" stroke="#eaeaea" stroke-width="1">
        <rect width="208" height="119" rx="2" stroke="none"/>
        <rect x="0.5" y="0.5" width="207" height="118" rx="1.5" fill="none"/>
      </g>
      <text id="GLA-class" transform="translate(23 53)" fill="#4da6ff" font-size="18" font-family="SegoeUI-Bold, Segoe UI" font-weight="700"><tspan x="0" y="0">GLA-class</tspan></text>
      <text id="Məhsul_sayı:_22_000-4" data-name="Məhsul sayı: 22 000" transform="translate(23 106)" fill="#505050" font-size="12" font-family="SegoeUI, Segoe UI"><tspan x="0" y="0">Məhsul sayı: </tspan><tspan y="0" font-family="SegoeUI-Bold, Segoe UI" font-weight="700">22 000</tspan></text>
      <g id="arrow-pointing-to-right-4" data-name="arrow-pointing-to-right" transform="translate(158.399 41)">
        <path id="Path_361" data-name="Path 361" d="M23.907,4.538,19.568.2a.678.678,0,0,0-.959.959L21.791,4.34H-3.89a.678.678,0,0,0-.678.678A.678.678,0,0,0-3.89,5.7H21.791L18.609,8.878a.678.678,0,0,0,.959.959L23.907,5.5A.678.678,0,0,0,23.907,4.538Z" transform="translate(0)" fill="#4da6ff"/>
      </g>
    </g>
    <g id="Group_1210" data-name="Group 1210" transform="translate(6722 -2225)">
      <g id="Rectangle_652" data-name="Rectangle 652" transform="translate(0 14)" fill="none" stroke="#eaeaea" stroke-width="1">
        <rect width="208" height="119" rx="2" stroke="none"/>
        <rect x="0.5" y="0.5" width="207" height="118" rx="1.5" fill="none"/>
      </g>
      <text id="CLK-class" transform="translate(23 53)" fill="#4da6ff" font-size="18" font-family="SegoeUI-Bold, Segoe UI" font-weight="700"><tspan x="0" y="0">CLK-class</tspan></text>
      <text id="Məhsul_sayı:_22_000-5" data-name="Məhsul sayı: 22 000" transform="translate(23 106)" fill="#505050" font-size="12" font-family="SegoeUI, Segoe UI"><tspan x="0" y="0">Məhsul sayı: </tspan><tspan y="0" font-family="SegoeUI-Bold, Segoe UI" font-weight="700">22 000</tspan></text>
      <g id="arrow-pointing-to-right-5" data-name="arrow-pointing-to-right" transform="translate(158.399 41)">
        <path id="Path_362" data-name="Path 362" d="M23.907,4.538,19.568.2a.678.678,0,0,0-.959.959L21.791,4.34H-3.89a.678.678,0,0,0-.678.678A.678.678,0,0,0-3.89,5.7H21.791L18.609,8.878a.678.678,0,0,0,.959.959L23.907,5.5A.678.678,0,0,0,23.907,4.538Z" transform="translate(0)" fill="#4da6ff"/>
      </g>
    </g>
    <g id="Group_1211" data-name="Group 1211" transform="translate(6988 -2805)">
      <rect id="Rectangle_653" data-name="Rectangle 653" width="208" height="119" rx="2" transform="translate(0 14)" fill="#4da6ff"/>
      <text id="B-class" transform="translate(23 53)" fill="#fff" font-size="18" font-family="Roboto-Bold, Roboto" font-weight="700"><tspan x="0" y="0">B-class</tspan></text>
      <text id="Məhsul_sayı:_22_000-6" data-name="Məhsul sayı: 22 000" transform="translate(23 106)" fill="#fff" font-size="12" font-family="Roboto-Regular, Roboto"><tspan x="0" y="0">Məhsul sayı: </tspan><tspan y="0" font-family="Roboto-Bold, Roboto" font-weight="700">22 000</tspan></text>
      <g id="arrow-pointing-to-right-6" data-name="arrow-pointing-to-right" transform="translate(158.399 41)">
        <path id="Path_363" data-name="Path 363" d="M23.907,4.538,19.568.2a.678.678,0,0,0-.959.959L21.791,4.34H-3.89a.678.678,0,0,0-.678.678A.678.678,0,0,0-3.89,5.7H21.791L18.609,8.878a.678.678,0,0,0,.959.959L23.907,5.5A.678.678,0,0,0,23.907,4.538Z" transform="translate(0)" fill="#fff"/>
      </g>
    </g>
    <g id="Group_1212" data-name="Group 1212" transform="translate(6988 -2660)">
      <g id="Rectangle_654" data-name="Rectangle 654" transform="translate(0 14)" fill="none" stroke="#eaeaea" stroke-width="1">
        <rect width="208" height="119" rx="2" stroke="none"/>
        <rect x="0.5" y="0.5" width="207" height="118" rx="1.5" fill="none"/>
      </g>
      <text id="G-class" transform="translate(23 53)" fill="#4da6ff" font-size="18" font-family="Roboto-Bold, Roboto" font-weight="700"><tspan x="0" y="0">G-class</tspan></text>
      <text id="Məhsul_sayı:_22_000-7" data-name="Məhsul sayı: 22 000" transform="translate(23 106)" fill="#505050" font-size="12" font-family="Roboto-Regular, Roboto"><tspan x="0" y="0">Məhsul sayı: </tspan><tspan y="0" font-family="Roboto-Bold, Roboto" font-weight="700">22 000</tspan></text>
      <g id="arrow-pointing-to-right-7" data-name="arrow-pointing-to-right" transform="translate(158.399 41)">
        <path id="Path_364" data-name="Path 364" d="M23.907,4.538,19.568.2a.678.678,0,0,0-.959.959L21.791,4.34H-3.89a.678.678,0,0,0-.678.678A.678.678,0,0,0-3.89,5.7H21.791L18.609,8.878a.678.678,0,0,0,.959.959L23.907,5.5A.678.678,0,0,0,23.907,4.538Z" transform="translate(0)" fill="#4da6ff"/>
      </g>
    </g>
    <g id="Group_1213" data-name="Group 1213" transform="translate(6988 -2515)">
      <g id="Rectangle_655" data-name="Rectangle 655" transform="translate(0 14)" fill="none" stroke="#eaeaea" stroke-width="1">
        <rect width="208" height="119" rx="2" stroke="none"/>
        <rect x="0.5" y="0.5" width="207" height="118" rx="1.5" fill="none"/>
      </g>
      <text id="G-class-2" data-name="G-class" transform="translate(23 53)" fill="#4da6ff" font-size="18" font-family="Roboto-Bold, Roboto" font-weight="700"><tspan x="0" y="0">G-class</tspan></text>
      <text id="Məhsul_sayı:_22_000-8" data-name="Məhsul sayı: 22 000" transform="translate(23 106)" fill="#505050" font-size="12" font-family="Roboto-Regular, Roboto"><tspan x="0" y="0">Məhsul sayı: </tspan><tspan y="0" font-family="Roboto-Bold, Roboto" font-weight="700">22 000</tspan></text>
      <g id="arrow-pointing-to-right-8" data-name="arrow-pointing-to-right" transform="translate(158.399 41)">
        <path id="Path_365" data-name="Path 365" d="M23.907,4.538,19.568.2a.678.678,0,0,0-.959.959L21.791,4.34H-3.89a.678.678,0,0,0-.678.678A.678.678,0,0,0-3.89,5.7H21.791L18.609,8.878a.678.678,0,0,0,.959.959L23.907,5.5A.678.678,0,0,0,23.907,4.538Z" transform="translate(0)" fill="#4da6ff"/>
      </g>
    </g>
    <g id="Group_1214" data-name="Group 1214" transform="translate(6988 -2370)">
      <g id="Rectangle_656" data-name="Rectangle 656" transform="translate(0 14)" fill="none" stroke="#eaeaea" stroke-width="1">
        <rect width="208" height="119" rx="2" stroke="none"/>
        <rect x="0.5" y="0.5" width="207" height="118" rx="1.5" fill="none"/>
      </g>
      <text id="GLK-class" transform="translate(23 53)" fill="#4da6ff" font-size="18" font-family="SegoeUI-Bold, Segoe UI" font-weight="700"><tspan x="0" y="0">GLK-class</tspan></text>
      <text id="Məhsul_sayı:_22_000-9" data-name="Məhsul sayı: 22 000" transform="translate(23 106)" fill="#505050" font-size="12" font-family="SegoeUI, Segoe UI"><tspan x="0" y="0">Məhsul sayı: </tspan><tspan y="0" font-family="SegoeUI-Bold, Segoe UI" font-weight="700">22 000</tspan></text>
      <g id="arrow-pointing-to-right-9" data-name="arrow-pointing-to-right" transform="translate(158.399 41)">
        <path id="Path_366" data-name="Path 366" d="M23.907,4.538,19.568.2a.678.678,0,0,0-.959.959L21.791,4.34H-3.89a.678.678,0,0,0-.678.678A.678.678,0,0,0-3.89,5.7H21.791L18.609,8.878a.678.678,0,0,0,.959.959L23.907,5.5A.678.678,0,0,0,23.907,4.538Z" transform="translate(0)" fill="#4da6ff"/>
      </g>
    </g>
    <g id="Group_1215" data-name="Group 1215" transform="translate(6988 -2225)">
      <g id="Rectangle_657" data-name="Rectangle 657" transform="translate(0 14)" fill="none" stroke="#eaeaea" stroke-width="1">
        <rect width="208" height="119" rx="2" stroke="none"/>
        <rect x="0.5" y="0.5" width="207" height="118" rx="1.5" fill="none"/>
      </g>
      <text id="S-class" transform="translate(23 53)" fill="#4da6ff" font-size="18" font-family="SegoeUI-Bold, Segoe UI" font-weight="700"><tspan x="0" y="0">S-class</tspan></text>
      <text id="Məhsul_sayı:_22_000-10" data-name="Məhsul sayı: 22 000" transform="translate(23 106)" fill="#505050" font-size="12" font-family="SegoeUI, Segoe UI"><tspan x="0" y="0">Məhsul sayı: </tspan><tspan y="0" font-family="SegoeUI-Bold, Segoe UI" font-weight="700">22 000</tspan></text>
      <g id="arrow-pointing-to-right-10" data-name="arrow-pointing-to-right" transform="translate(158.399 41)">
        <path id="Path_367" data-name="Path 367" d="M23.907,4.538,19.568.2a.678.678,0,0,0-.959.959L21.791,4.34H-3.89a.678.678,0,0,0-.678.678A.678.678,0,0,0-3.89,5.7H21.791L18.609,8.878a.678.678,0,0,0,.959.959L23.907,5.5A.678.678,0,0,0,23.907,4.538Z" transform="translate(0)" fill="#4da6ff"/>
      </g>
    </g>
    <g id="Group_1216" data-name="Group 1216" transform="translate(7253 -2805)">
      <g id="Rectangle_658" data-name="Rectangle 658" transform="translate(0 14)" fill="none" stroke="#eaeaea" stroke-width="1">
        <rect width="208" height="119" rx="2" stroke="none"/>
        <rect x="0.5" y="0.5" width="207" height="118" rx="1.5" fill="none"/>
      </g>
      <text id="C-class" transform="translate(23 53)" fill="#4da6ff" font-size="18" font-family="Roboto-Bold, Roboto" font-weight="700"><tspan x="0" y="0">C-class</tspan></text>
      <text id="Məhsul_sayı:_22_000-11" data-name="Məhsul sayı: 22 000" transform="translate(23 106)" fill="#505050" font-size="12" font-family="Roboto-Regular, Roboto"><tspan x="0" y="0">Məhsul sayı: </tspan><tspan y="0" font-family="Roboto-Bold, Roboto" font-weight="700">22 000</tspan></text>
      <g id="arrow-pointing-to-right-11" data-name="arrow-pointing-to-right" transform="translate(158.399 41)">
        <path id="Path_368" data-name="Path 368" d="M23.907,4.538,19.568.2a.678.678,0,0,0-.959.959L21.791,4.34H-3.89a.678.678,0,0,0-.678.678A.678.678,0,0,0-3.89,5.7H21.791L18.609,8.878a.678.678,0,0,0,.959.959L23.907,5.5A.678.678,0,0,0,23.907,4.538Z" transform="translate(0)" fill="#4da6ff"/>
      </g>
    </g>
    <g id="Group_1217" data-name="Group 1217" transform="translate(7253 -2660)">
      <g id="Rectangle_659" data-name="Rectangle 659" transform="translate(0 14)" fill="none" stroke="#eaeaea" stroke-width="1">
        <rect width="208" height="119" rx="2" stroke="none"/>
        <rect x="0.5" y="0.5" width="207" height="118" rx="1.5" fill="none"/>
      </g>
      <text id="GL-class" transform="translate(23 53)" fill="#4da6ff" font-size="18" font-family="Roboto-Bold, Roboto" font-weight="700"><tspan x="0" y="0">GL-class</tspan></text>
      <text id="Məhsul_sayı:_22_000-12" data-name="Məhsul sayı: 22 000" transform="translate(23 106)" fill="#505050" font-size="12" font-family="Roboto-Regular, Roboto"><tspan x="0" y="0">Məhsul sayı: </tspan><tspan y="0" font-family="Roboto-Bold, Roboto" font-weight="700">22 000</tspan></text>
      <g id="arrow-pointing-to-right-12" data-name="arrow-pointing-to-right" transform="translate(158.399 41)">
        <path id="Path_369" data-name="Path 369" d="M23.907,4.538,19.568.2a.678.678,0,0,0-.959.959L21.791,4.34H-3.89a.678.678,0,0,0-.678.678A.678.678,0,0,0-3.89,5.7H21.791L18.609,8.878a.678.678,0,0,0,.959.959L23.907,5.5A.678.678,0,0,0,23.907,4.538Z" transform="translate(0)" fill="#4da6ff"/>
      </g>
    </g>
    <g id="Group_1218" data-name="Group 1218" transform="translate(7253 -2515)">
      <g id="Rectangle_660" data-name="Rectangle 660" transform="translate(0 14)" fill="none" stroke="#eaeaea" stroke-width="1">
        <rect width="208" height="119" rx="2" stroke="none"/>
        <rect x="0.5" y="0.5" width="207" height="118" rx="1.5" fill="none"/>
      </g>
      <text id="GL-class-2" data-name="GL-class" transform="translate(23 53)" fill="#4da6ff" font-size="18" font-family="Roboto-Bold, Roboto" font-weight="700"><tspan x="0" y="0">GL-class</tspan></text>
      <text id="Məhsul_sayı:_22_000-13" data-name="Məhsul sayı: 22 000" transform="translate(23 106)" fill="#505050" font-size="12" font-family="Roboto-Regular, Roboto"><tspan x="0" y="0">Məhsul sayı: </tspan><tspan y="0" font-family="Roboto-Bold, Roboto" font-weight="700">22 000</tspan></text>
      <g id="arrow-pointing-to-right-13" data-name="arrow-pointing-to-right" transform="translate(158.399 41)">
        <path id="Path_370" data-name="Path 370" d="M23.907,4.538,19.568.2a.678.678,0,0,0-.959.959L21.791,4.34H-3.89a.678.678,0,0,0-.678.678A.678.678,0,0,0-3.89,5.7H21.791L18.609,8.878a.678.678,0,0,0,.959.959L23.907,5.5A.678.678,0,0,0,23.907,4.538Z" transform="translate(0)" fill="#4da6ff"/>
      </g>
    </g>
    <g id="Group_1219" data-name="Group 1219" transform="translate(7253 -2370)">
      <g id="Rectangle_661" data-name="Rectangle 661" transform="translate(0 14)" fill="none" stroke="#eaeaea" stroke-width="1">
        <rect width="208" height="119" rx="2" stroke="none"/>
        <rect x="0.5" y="0.5" width="207" height="118" rx="1.5" fill="none"/>
      </g>
      <text id="GLC-class" transform="translate(23 53)" fill="#4da6ff" font-size="18" font-family="SegoeUI-Bold, Segoe UI" font-weight="700"><tspan x="0" y="0">GLC-class</tspan></text>
      <text id="Məhsul_sayı:_22_000-14" data-name="Məhsul sayı: 22 000" transform="translate(23 106)" fill="#505050" font-size="12" font-family="SegoeUI, Segoe UI"><tspan x="0" y="0">Məhsul sayı: </tspan><tspan y="0" font-family="SegoeUI-Bold, Segoe UI" font-weight="700">22 000</tspan></text>
      <g id="arrow-pointing-to-right-14" data-name="arrow-pointing-to-right" transform="translate(158.399 41)">
        <path id="Path_371" data-name="Path 371" d="M23.907,4.538,19.568.2a.678.678,0,0,0-.959.959L21.791,4.34H-3.89a.678.678,0,0,0-.678.678A.678.678,0,0,0-3.89,5.7H21.791L18.609,8.878a.678.678,0,0,0,.959.959L23.907,5.5A.678.678,0,0,0,23.907,4.538Z" transform="translate(0)" fill="#4da6ff"/>
      </g>
    </g>
    <g id="Group_1220" data-name="Group 1220" transform="translate(7253 -2225)">
      <g id="Rectangle_662" data-name="Rectangle 662" transform="translate(0 14)" fill="none" stroke="#eaeaea" stroke-width="1">
        <rect width="208" height="119" rx="2" stroke="none"/>
        <rect x="0.5" y="0.5" width="207" height="118" rx="1.5" fill="none"/>
      </g>
      <text id="SL-class" transform="translate(23 53)" fill="#4da6ff" font-size="18" font-family="SegoeUI-Bold, Segoe UI" font-weight="700"><tspan x="0" y="0">SL-class</tspan></text>
      <text id="Məhsul_sayı:_22_000-15" data-name="Məhsul sayı: 22 000" transform="translate(23 106)" fill="#505050" font-size="12" font-family="SegoeUI, Segoe UI"><tspan x="0" y="0">Məhsul sayı: </tspan><tspan y="0" font-family="SegoeUI-Bold, Segoe UI" font-weight="700">22 000</tspan></text>
      <g id="arrow-pointing-to-right-15" data-name="arrow-pointing-to-right" transform="translate(158.399 41)">
        <path id="Path_372" data-name="Path 372" d="M23.907,4.538,19.568.2a.678.678,0,0,0-.959.959L21.791,4.34H-3.89a.678.678,0,0,0-.678.678A.678.678,0,0,0-3.89,5.7H21.791L18.609,8.878a.678.678,0,0,0,.959.959L23.907,5.5A.678.678,0,0,0,23.907,4.538Z" transform="translate(0)" fill="#4da6ff"/>
      </g>
    </g>
    <g id="Group_1221" data-name="Group 1221" transform="translate(7519 -2805)">
      <g id="Rectangle_663" data-name="Rectangle 663" transform="translate(0 14)" fill="none" stroke="#eaeaea" stroke-width="1">
        <rect width="208" height="119" rx="2" stroke="none"/>
        <rect x="0.5" y="0.5" width="207" height="118" rx="1.5" fill="none"/>
      </g>
      <text id="E-class" transform="translate(23 53)" fill="#4da6ff" font-size="18" font-family="Roboto-Bold, Roboto" font-weight="700"><tspan x="0" y="0">E-class</tspan></text>
      <text id="Məhsul_sayı:_22_000-16" data-name="Məhsul sayı: 22 000" transform="translate(23 106)" fill="#505050" font-size="12" font-family="Roboto-Regular, Roboto"><tspan x="0" y="0">Məhsul sayı: </tspan><tspan y="0" font-family="Roboto-Bold, Roboto" font-weight="700">22 000</tspan></text>
      <g id="arrow-pointing-to-right-16" data-name="arrow-pointing-to-right" transform="translate(158.399 41)">
        <path id="Path_373" data-name="Path 373" d="M23.907,4.538,19.568.2a.678.678,0,0,0-.959.959L21.791,4.34H-3.89a.678.678,0,0,0-.678.678A.678.678,0,0,0-3.89,5.7H21.791L18.609,8.878a.678.678,0,0,0,.959.959L23.907,5.5A.678.678,0,0,0,23.907,4.538Z" transform="translate(0)" fill="#4da6ff"/>
      </g>
    </g>
    <g id="Group_1222" data-name="Group 1222" transform="translate(7519 -2660)">
      <g id="Rectangle_664" data-name="Rectangle 664" transform="translate(0 14)" fill="none" stroke="#eaeaea" stroke-width="1">
        <rect width="208" height="119" rx="2" stroke="none"/>
        <rect x="0.5" y="0.5" width="207" height="118" rx="1.5" fill="none"/>
      </g>
      <text id="GLE-class" transform="translate(23 53)" fill="#4da6ff" font-size="18" font-family="Roboto-Bold, Roboto" font-weight="700"><tspan x="0" y="0">GLE-class</tspan></text>
      <text id="Məhsul_sayı:_22_000-17" data-name="Məhsul sayı: 22 000" transform="translate(23 106)" fill="#505050" font-size="12" font-family="Roboto-Regular, Roboto"><tspan x="0" y="0">Məhsul sayı: </tspan><tspan y="0" font-family="Roboto-Bold, Roboto" font-weight="700">22 000</tspan></text>
      <g id="arrow-pointing-to-right-17" data-name="arrow-pointing-to-right" transform="translate(158.399 41)">
        <path id="Path_374" data-name="Path 374" d="M23.907,4.538,19.568.2a.678.678,0,0,0-.959.959L21.791,4.34H-3.89a.678.678,0,0,0-.678.678A.678.678,0,0,0-3.89,5.7H21.791L18.609,8.878a.678.678,0,0,0,.959.959L23.907,5.5A.678.678,0,0,0,23.907,4.538Z" transform="translate(0)" fill="#4da6ff"/>
      </g>
    </g>
    <g id="Group_1223" data-name="Group 1223" transform="translate(7519 -2515)">
      <g id="Rectangle_665" data-name="Rectangle 665" transform="translate(0 14)" fill="none" stroke="#eaeaea" stroke-width="1">
        <rect width="208" height="119" rx="2" stroke="none"/>
        <rect x="0.5" y="0.5" width="207" height="118" rx="1.5" fill="none"/>
      </g>
      <text id="GLE-class-2" data-name="GLE-class" transform="translate(23 53)" fill="#4da6ff" font-size="18" font-family="Roboto-Bold, Roboto" font-weight="700"><tspan x="0" y="0">GLE-class</tspan></text>
      <text id="Məhsul_sayı:_22_000-18" data-name="Məhsul sayı: 22 000" transform="translate(23 106)" fill="#505050" font-size="12" font-family="Roboto-Regular, Roboto"><tspan x="0" y="0">Məhsul sayı: </tspan><tspan y="0" font-family="Roboto-Bold, Roboto" font-weight="700">22 000</tspan></text>
      <g id="arrow-pointing-to-right-18" data-name="arrow-pointing-to-right" transform="translate(158.399 41)">
        <path id="Path_375" data-name="Path 375" d="M23.907,4.538,19.568.2a.678.678,0,0,0-.959.959L21.791,4.34H-3.89a.678.678,0,0,0-.678.678A.678.678,0,0,0-3.89,5.7H21.791L18.609,8.878a.678.678,0,0,0,.959.959L23.907,5.5A.678.678,0,0,0,23.907,4.538Z" transform="translate(0)" fill="#4da6ff"/>
      </g>
    </g>
    <g id="Group_1224" data-name="Group 1224" transform="translate(7519 -2370)">
      <g id="Rectangle_666" data-name="Rectangle 666" transform="translate(0 14)" fill="none" stroke="#eaeaea" stroke-width="1">
        <rect width="208" height="119" rx="2" stroke="none"/>
        <rect x="0.5" y="0.5" width="207" height="118" rx="1.5" fill="none"/>
      </g>
      <text id="CLS-class" transform="translate(23 53)" fill="#4da6ff" font-size="18" font-family="SegoeUI-Bold, Segoe UI" font-weight="700"><tspan x="0" y="0">CLS-class</tspan></text>
      <text id="Məhsul_sayı:_22_000-19" data-name="Məhsul sayı: 22 000" transform="translate(23 106)" fill="#505050" font-size="12" font-family="SegoeUI, Segoe UI"><tspan x="0" y="0">Məhsul sayı: </tspan><tspan y="0" font-family="SegoeUI-Bold, Segoe UI" font-weight="700">22 000</tspan></text>
      <g id="arrow-pointing-to-right-19" data-name="arrow-pointing-to-right" transform="translate(158.399 41)">
        <path id="Path_376" data-name="Path 376" d="M23.907,4.538,19.568.2a.678.678,0,0,0-.959.959L21.791,4.34H-3.89a.678.678,0,0,0-.678.678A.678.678,0,0,0-3.89,5.7H21.791L18.609,8.878a.678.678,0,0,0,.959.959L23.907,5.5A.678.678,0,0,0,23.907,4.538Z" transform="translate(0)" fill="#4da6ff"/>
      </g>
    </g>
    <g id="Group_1225" data-name="Group 1225" transform="translate(7519 -2225)">
      <g id="Rectangle_667" data-name="Rectangle 667" transform="translate(0 14)" fill="none" stroke="#eaeaea" stroke-width="1">
        <rect width="208" height="119" rx="2" stroke="none"/>
        <rect x="0.5" y="0.5" width="207" height="118" rx="1.5" fill="none"/>
      </g>
      <text id="SLK-class" transform="translate(23 53)" fill="#4da6ff" font-size="18" font-family="SegoeUI-Bold, Segoe UI" font-weight="700"><tspan x="0" y="0">SLK-class</tspan></text>
      <text id="Məhsul_sayı:_22_000-20" data-name="Məhsul sayı: 22 000" transform="translate(23 106)" fill="#505050" font-size="12" font-family="SegoeUI, Segoe UI"><tspan x="0" y="0">Məhsul sayı: </tspan><tspan y="0" font-family="SegoeUI-Bold, Segoe UI" font-weight="700">22 000</tspan></text>
      <g id="arrow-pointing-to-right-20" data-name="arrow-pointing-to-right" transform="translate(158.399 41)">
        <path id="Path_377" data-name="Path 377" d="M23.907,4.538,19.568.2a.678.678,0,0,0-.959.959L21.791,4.34H-3.89a.678.678,0,0,0-.678.678A.678.678,0,0,0-3.89,5.7H21.791L18.609,8.878a.678.678,0,0,0,.959.959L23.907,5.5A.678.678,0,0,0,23.907,4.538Z" transform="translate(0)" fill="#4da6ff"/>
      </g>
    </g>
  </g>
</svg>
