<svg xmlns="http://www.w3.org/2000/svg" width="12.987" height="10.52" viewBox="0 0 12.987 10.52">
  <g id="cart-of-ecommerce" transform="translate(0 -2.897)">
    <path id="Path_60" data-name="Path 60" d="M11.415,9.767l1.535-4.6a.446.446,0,0,0-.043-.441.692.692,0,0,0-.55-.226L3.68,4.5,3.448,3.4a.61.61,0,0,0-.62-.506H.39c-.253,0-.39.118-.39.355v.634c0,.229.137.288.4.288H2.458l1.576,6.69A1.525,1.525,0,0,0,5.086,13.4a1.607,1.607,0,0,0,1.426-1.139H9.58a1.5,1.5,0,0,0,1.425,1.156,1.476,1.476,0,0,0,1.438-1.479,1.381,1.381,0,0,0-1.43-1.486,1.4,1.4,0,0,0-1.082.532H6.161a1.2,1.2,0,0,0-1.025-.572l-.052-.279H10.82C11.253,10.133,11.338,9.975,11.415,9.767Zm-.4,1.614a.541.541,0,1,1-.541.541A.541.541,0,0,1,11.017,11.38Zm-5.4.541a.547.547,0,1,1-.546-.547A.547.547,0,0,1,5.62,11.921Z" fill="#fff"/>
  </g>
</svg>
