<svg id="Group_962" data-name="Group 962" xmlns="http://www.w3.org/2000/svg" width="32" height="24.353" viewBox="0 0 32 24.353">
  <path id="Path_150" data-name="Path 150" d="M28.094,57.75H3.913A3.916,3.916,0,0,0,0,61.663V78.189A3.916,3.916,0,0,0,3.913,82.1H28.087A3.916,3.916,0,0,0,32,78.189V61.67A3.912,3.912,0,0,0,28.094,57.75Zm2.125,20.439a2.128,2.128,0,0,1-2.125,2.125H3.913a2.128,2.128,0,0,1-2.125-2.125V61.67a2.128,2.128,0,0,1,2.125-2.125H28.087a2.128,2.128,0,0,1,2.125,2.125v16.52Z" transform="translate(0 -57.75)" fill="#4da6ff"/>
  <path id="Path_151" data-name="Path 151" d="M72.059,117.364l7.739-6.918a.884.884,0,1,0-1.185-1.312l-10.673,9.549-2.082-1.854c-.007-.007-.013-.013-.013-.02a1.307,1.307,0,0,0-.144-.124l-8.473-7.558a.884.884,0,1,0-1.179,1.318l7.831,6.977-7.8,7.277a.883.883,0,0,0-.039,1.247.906.906,0,0,0,.648.281.887.887,0,0,0,.6-.235l7.916-7.382,2.148,1.912a.884.884,0,0,0,1.179-.007l2.207-1.971L78.613,126a.883.883,0,1,0,1.218-1.279Z" transform="translate(-51.924 -105.39)" fill="#4da6ff"/>
</svg>
