<svg
  height="35.37"
  viewBox="0 0 25.62 35.37"
  width="25.62"
  xmlns="http://www.w3.org/2000/svg"
>
  <g id="maps-and-flags" transform="translate(-70.573)">
    <g
      id="Group_972"
      data-name="Group 972"
      transform="translate(70.573)"
    >
      <g
        id="Group_971"
        data-name="Group 971"
        transform="translate(0)"
      >
        <path
          id="Path_156"
          d="M83.383,0a12.824,12.824,0,0,0-12.81,12.81c0,8.766,11.464,21.634,11.952,22.178a1.154,1.154,0,0,0,1.716,0c.488-.544,11.952-13.412,11.952-22.178A12.824,12.824,0,0,0,83.383,0Zm0,32.45c-3.858-4.583-10.5-13.624-10.5-19.64a10.5,10.5,0,1,1,21.006,0C93.886,18.826,87.242,27.866,83.383,32.45Z"
          data-name="Path 156"
          fill="#4da6ff"
          transform="translate(-70.573)"
        />
      </g>
    </g>
    <g
      id="Group_974"
      data-name="Group 974"
      transform="translate(76.938 6.365)"
    >
      <g
        id="Group_973"
        data-name="Group 973"
        transform="translate(0)"
      >
        <path
          id="Path_157"
          d="M169.153,92.134a6.445,6.445,0,1,0,6.445,6.445A6.452,6.452,0,0,0,169.153,92.134Zm0,10.583a4.138,4.138,0,1,1,4.138-4.138A4.143,4.143,0,0,1,169.153,102.717Z"
          data-name="Path 157"
          fill="#4da6ff"
          transform="translate(-162.708 -92.134)"
        />
      </g>
    </g>
  </g>
</svg>
