<svg xmlns="http://www.w3.org/2000/svg" xmlns:xlink="http://www.w3.org/1999/xlink" width="464.083" height="413.98" viewBox="0 0 464.083 413.98">
  <defs>
    <linearGradient id="linear-gradient" x1="0.5" y1="1" x2="0.5" gradientUnits="objectBoundingBox">
      <stop offset="0.008" stop-color="#f0e9e9"/>
      <stop offset="0.143" stop-color="#f3eeee"/>
      <stop offset="0.579" stop-color="#fcfafa"/>
      <stop offset="1" stop-color="#fff"/>
    </linearGradient>
    <linearGradient id="linear-gradient-3" y1="0.5" x2="1" y2="0.5" gradientUnits="objectBoundingBox">
      <stop offset="0" stop-color="#fff"/>
      <stop offset="0.992" stop-color="#ededed"/>
    </linearGradient>
    <linearGradient id="linear-gradient-4" y1="0.5" x2="1" y2="0.5" gradientUnits="objectBoundingBox">
      <stop offset="0.008" stop-color="#ededed"/>
      <stop offset="1" stop-color="#fff"/>
    </linearGradient>
    <linearGradient id="linear-gradient-5" y1="0.5" x2="1.228" y2="0.5" gradientUnits="objectBoundingBox">
      <stop offset="0" stop-color="#3db2d9"/>
      <stop offset="0.251" stop-color="#38b0d8"/>
      <stop offset="0.512" stop-color="#2cacd5"/>
      <stop offset="0.775" stop-color="#17a5d1"/>
      <stop offset="1" stop-color="#009dcc"/>
    </linearGradient>
    <linearGradient id="linear-gradient-6" x1="0.125" y1="4.659" x2="0.875" y2="-2.894" gradientUnits="objectBoundingBox">
      <stop offset="0" stop-color="#1d96bf"/>
      <stop offset="1" stop-color="#007ba1"/>
    </linearGradient>
    <linearGradient id="linear-gradient-7" x1="-0.067" y1="-0.45" x2="0.801" y2="1.018" gradientUnits="objectBoundingBox">
      <stop offset="0" stop-color="#1fa1c2"/>
      <stop offset="0.6" stop-color="#198aae"/>
      <stop offset="1" stop-color="#1782a6"/>
    </linearGradient>
    <linearGradient id="linear-gradient-8" y1="0.5" x2="1" y2="0.5" gradientUnits="objectBoundingBox">
      <stop offset="0" stop-color="#316899"/>
      <stop offset="0.113" stop-color="#316294"/>
      <stop offset="0.662" stop-color="#314981"/>
      <stop offset="1" stop-color="#31417a"/>
    </linearGradient>
    <linearGradient id="linear-gradient-9" y1="0.5" x2="1" y2="0.5" gradientUnits="objectBoundingBox">
      <stop offset="0" stop-color="#cceaff"/>
      <stop offset="1" stop-color="#3974a1"/>
    </linearGradient>
    <linearGradient id="linear-gradient-10" x1="0.5" y1="1.073" x2="0.5" y2="-0.104" xlink:href="#linear-gradient-4"/>
    <linearGradient id="linear-gradient-11" x1="0.957" y1="0.903" x2="0.038" y2="0.19" gradientUnits="objectBoundingBox">
      <stop offset="0" stop-color="#ededed"/>
      <stop offset="1" stop-color="#fff"/>
    </linearGradient>
  </defs>
  <g id="Group_1135" data-name="Group 1135" transform="translate(-140.09 -413.986)">
    <g id="Group_1131" data-name="Group 1131" transform="translate(140.09 413.986)">
      <g id="Group_1105" data-name="Group 1105" transform="translate(86.873 226.323)">
        <rect id="Rectangle_597" data-name="Rectangle 597" width="21.799" height="92.955" transform="translate(57.255)" fill="#bdb9b9"/>
        <rect id="Rectangle_598" data-name="Rectangle 598" width="57.255" height="92.955" transform="translate(57.255 92.956) rotate(180)" fill="#bdb9b9"/>
        <g id="Group_1103" data-name="Group 1103" transform="translate(55.171 92.956)">
          <rect id="Rectangle_599" data-name="Rectangle 599" width="2.085" height="18.997" fill="#bdb9b9"/>
          <rect id="Rectangle_600" data-name="Rectangle 600" width="2.084" height="18.997" transform="translate(2.085)" fill="#bdb9b9"/>
          <rect id="Rectangle_601" data-name="Rectangle 601" width="4.169" height="18.997" transform="translate(19.714)" fill="#bdb9b9"/>
        </g>
        <g id="Group_1104" data-name="Group 1104" transform="translate(0 92.956)">
          <rect id="Rectangle_602" data-name="Rectangle 602" width="2.085" height="18.997" fill="#bdb9b9"/>
          <rect id="Rectangle_603" data-name="Rectangle 603" width="2.084" height="18.997" transform="translate(2.085)" fill="#bdb9b9"/>
          <rect id="Rectangle_604" data-name="Rectangle 604" width="4.169" height="18.997" transform="translate(19.714)" fill="#bdb9b9"/>
        </g>
      </g>
      <g id="Group_1108" data-name="Group 1108" transform="translate(0 226.323)">
        <rect id="Rectangle_605" data-name="Rectangle 605" width="21.799" height="92.955" transform="translate(57.255)" fill="#bdb9b9"/>
        <rect id="Rectangle_606" data-name="Rectangle 606" width="57.255" height="92.955" transform="translate(57.255 92.956) rotate(180)" fill="#bdb9b9"/>
        <g id="Group_1106" data-name="Group 1106" transform="translate(55.171 92.956)">
          <rect id="Rectangle_607" data-name="Rectangle 607" width="2.085" height="18.997" fill="#bdb9b9"/>
          <rect id="Rectangle_608" data-name="Rectangle 608" width="2.085" height="18.997" transform="translate(2.085)" fill="#bdb9b9"/>
          <rect id="Rectangle_609" data-name="Rectangle 609" width="4.169" height="18.997" transform="translate(19.714)" fill="#bdb9b9"/>
        </g>
        <g id="Group_1107" data-name="Group 1107" transform="translate(0 92.956)">
          <rect id="Rectangle_610" data-name="Rectangle 610" width="2.085" height="18.997" fill="#bdb9b9"/>
          <rect id="Rectangle_611" data-name="Rectangle 611" width="2.085" height="18.997" transform="translate(2.085)" fill="#bdb9b9"/>
          <rect id="Rectangle_612" data-name="Rectangle 612" width="4.169" height="18.997" transform="translate(19.714)" fill="#bdb9b9"/>
        </g>
      </g>
      <rect id="Rectangle_613" data-name="Rectangle 613" width="19.463" height="281.225" transform="translate(309.991 57.052)" fill="url(#linear-gradient)"/>
      <rect id="Rectangle_614" data-name="Rectangle 614" width="19.463" height="281.225" transform="translate(29.661 57.052)" fill="url(#linear-gradient)"/>
      <rect id="Rectangle_615" data-name="Rectangle 615" width="67.262" height="9.649" transform="translate(49.125 134.868)" fill="url(#linear-gradient-3)"/>
      <rect id="Rectangle_616" data-name="Rectangle 616" width="67.262" height="9.649" transform="translate(242.729 134.868)" fill="url(#linear-gradient-4)"/>
      <g id="Group_1109" data-name="Group 1109" transform="translate(101.586 132.992)">
        <path id="Path_244" data-name="Path 244" d="M286.507,757.564a1.941,1.941,0,0,0,1.629,1.291c2.5.488,6.831-.181,8.333-.377,3.647-.475,5.872-.1,10,.271,2.862.259,7.588.412,9.743-.456,2.659-1.074,1.43-3.407-1.414-4.538-3.523-1.4-8.867-3.166-11.224-4.979s-3.109-3.867-5.572-1.349a7.192,7.192,0,0,1-3.728,2.205c-3.7.618-4.393-.726-6.011-.765-1.8-.043-.432,2.738-1.151,5.282C286.969,754.957,286.284,756.387,286.507,757.564Z" transform="translate(-244.658 -553.745)" fill="#1b6db3"/>
        <path id="Path_245" data-name="Path 245" d="M255.7,751.048a3.647,3.647,0,0,0-2.554-2.091c-2.381-.534-3.729,1.71-6.177,1.2a2.153,2.153,0,0,0-2.265,1.5c-1.2,3.091-1.665,7.432,1.442,7.432h9.587a2.007,2.007,0,0,0,2.048-1.886A13.316,13.316,0,0,0,255.7,751.048Z" transform="translate(-243.789 -553.799)" fill="#1b6db3"/>
        <path id="Path_246" data-name="Path 246" d="M316.615,587.811c.618-5.65-5.785-6.516-9.265-5.082-3,1.236-5.97,2.185-9.056,3.2s-5.244,2.158-5.679,5.538c-.342,2.65.126,5.873,1.885,7.99,1.857,2.237,4.474,1.187,6.7.04a55.651,55.651,0,0,0,8.886-6.147C310.9,592.7,316.4,589.814,316.615,587.811Z" transform="translate(-244.781 -550.402)" fill="#f5ac87"/>
        <path id="Path_247" data-name="Path 247" d="M298.327,592.222c-1.37-4.71-4.6-5.262-8.051-5.159-2.213.066-6.435.848-8.62,1.185-4.545.7-12.6-1.161-16.42-4.527-2.026-1.785-1.457-4.738-5.29-4.775-8.256-.077-10.914,6.372-12.3,11.69-1.854,7.123-1.035,13.47-.158,21.013.353,3.04-.268,6.969.986,9.81a45.355,45.355,0,0,0,5.537,8.75,38.449,38.449,0,0,0,15.247,9.772c3.887,1.208,7.88-1.645,9.678-4.328,1.155-1.723,4.392-12.337,4.506-17.321.067-2.911,1.335-10.715,2.456-12.06,2.269-2.725,7.291-2.147,10.121-4C298.9,600.4,299.286,595.518,298.327,592.222Z" transform="translate(-243.845 -550.338)" fill="#fff"/>
        <path id="Path_248" data-name="Path 248" d="M269.4,606.189a.346.346,0,0,0,0,.693A.346.346,0,0,0,269.4,606.189Z" transform="translate(-244.304 -550.893)" fill="#f6f6f6"/>
        <path id="Path_249" data-name="Path 249" d="M286.483,606.373c-.117-1.1-1.5.942-1.86,1.795a48.746,48.746,0,0,0-3.034,11.71c-.53,3.465-1.409,9.42-2.738,12.708-.4.989-1.022,3.195-2.151,3.445-4.327.96-11.463-4.021-13.886-6.479-2.473-2.508-2.733-8.579-3.285-11.981-.629-3.885,2.127-10.309,4.055-13.731.194-.345.036-.364-.181-.517-.548-.387-1.759-1.177-2.433-1.609-.242-.156-.381-.106-.543.163a39.546,39.546,0,0,1-4.922,6.7c-1.806,1.686-2.713.359-3.323-1.737-.323-1.115-.888-4.964-1.032-6.072-.036-.273-.086-.458-.376-.434-.519.045-2.036.148-2.347.2-.279.045-.562.067-.476.855.771,7.021,1.918,15.371,1.188,19.239a15.215,15.215,0,0,0-.28,5.344,34.41,34.41,0,0,0,1.277,4.883c1.037,3.74.427,7.226-.664,10.961-1.135,3.887-2.437,7.571-2.472,11.695-.046,5.485,3.113,12.3,3.434,16.186.333,4.031,1.508,15.692.953,19.762a103.606,103.606,0,0,1-2.248,10.785c-2.035,8.38-1.52,15.594-1.711,26.622-.072,4.255-1.622,8.789-2.741,12.8-.789,2.829-.8,6.831,2.685,8.142,2.116.8,7.649.273,9.533-3.705,1.626-3.434.984-9.648,3.922-19.388,2.766-9.168,3.332-17.842,5.259-25.957,1.215-5.112,4.265-10.681,4.973-14.221.825-4.12-.284-7.666,1.63-11.111,2.093-3.769,13.79-11.013,13.235-14.94-.58-4.1-1.758-8.166-2.03-12.307-.123-1.869.339-3.723-.049-5.558-.371-1.758-2.446-3.39-2.377-5.227a30.867,30.867,0,0,1,1.87-9.2,52.212,52.212,0,0,1,3.807-8.363C288.736,614.714,286.846,609.816,286.483,606.373Z" transform="translate(-243.799 -550.773)" fill="#2d3680"/>
        <path id="Path_250" data-name="Path 250" d="M258.99,582.613a11.277,11.277,0,0,0-5.779,2.71,13.505,13.505,0,0,0-3.256,4.477,28.027,28.027,0,0,0-1.833,9.421c0,.308.183.4.43.375.692-.073,2.028-.179,2.3-.2.246-.02.349-.191.334-.523a33.829,33.829,0,0,1,.339-5.365,19.126,19.126,0,0,1,1.979-5.594,10.35,10.35,0,0,1,5.6-4.558C259.5,583.192,259.9,582.42,258.99,582.613Z" transform="translate(-243.877 -550.412)" fill="#2d3680"/>
        <path id="Path_251" data-name="Path 251" d="M303.234,557.871c-1.451-.438-5.158,3.305-5.523,1.881-.485-1.89,4.827-4.222,5.744-5.21,2.489-2.683-1.969-4.777-4.5-4.8-1.782-.016-5.655,2.443-7.071,4.377-1.959,2.677-1.683,5.529-4.651,7.63-2.831,2-7.244,3.106-9.5,5.767a4.642,4.642,0,0,0,2.036,7.409c3.668,1.334,5.183-2.423,7.223-4.837a21.849,21.849,0,0,1,4.738-4.334c1.869-1.206,3.574-.883,5.539-1.534,1.647-.546,2.5-2.336,3.948-3.3C301.9,560.472,305.207,558.467,303.234,557.871Z" transform="translate(-244.457 -549.743)" fill="#e8926d"/>
        <path id="Path_252" data-name="Path 252" d="M290.647,571.376c1.112-3.66-1.042-7.926-3.605-9.923a12.065,12.065,0,0,0-10.121-2.123,11.053,11.053,0,0,0-7.235,6.046c-1.727,3.754.134,7.532-1.1,11.286-.5,1.536-1.609,3.055-.631,4.664.793,1.3,2.572,1.836,3.878,2.41,1.595.7,3.589,1.774,5.394,1.657,1.529-.1,2.437-1.463,3.937-1.965,3.383-1.131,6.973.948,7.3-3.941a13.334,13.334,0,0,1,1.437-4.969A19.189,19.189,0,0,0,290.647,571.376Z" transform="translate(-244.273 -549.931)" fill="#f5ac87"/>
        <path id="Path_253" data-name="Path 253" d="M289.678,563.435c-2.108-3.391-5.431-4.78-9.3-5.314a13.144,13.144,0,0,0-9.286,2.9c-3.06,2.811-3.224,6.4-2.8,10.454.251,2.4-.573,3.895-.294,5.708.313,2.024,1.471,2.77,3.259,3.538,2.462,1.057,5.558,1.83,7.078-.97.554-1.022.68-2.4,1.669-3.148a2.846,2.846,0,0,1,2.4-.568,2.191,2.191,0,0,1,1.571.924c.311.333.4.747,1.067.7.9-.062,1.167-1.072,1.417-1.761a36.367,36.367,0,0,0,1.291-4.464c.365-1.7.274-3.047,1.115-4.659C289.332,565.889,290.3,564.442,289.678,563.435Z" transform="translate(-244.281 -549.912)" fill="#432918"/>
        <path id="Path_254" data-name="Path 254" d="M275.1,583.308a10.552,10.552,0,0,1-5.8-2.467c-1.175-1.006-1.862-1.919-3.445-2.069a1.612,1.612,0,0,0-1.219.356c-.863.921-2.13,2.522-1.429,3.9.643,1.262,2.723,1.914,3.921,2.415,2.219.93,4.576,1.545,6.87,2.257,2.128.661,4.3,1.615,6.566,1.439.206-.016.648-.121.584-.461C280.551,585.472,278.1,583.741,275.1,583.308Z" transform="translate(-244.18 -550.334)" fill="#ededed"/>
        <path id="Path_255" data-name="Path 255" d="M278.734,588.1c-1-.657-4.235.282-5.625.832a19.133,19.133,0,0,0-5.848,3.922,33.108,33.108,0,0,0-5.373,7.375.477.477,0,0,0,.176.723c.273.209,1.672,1.213,2.239,1.534.295.167.409.129.55-.129a43.453,43.453,0,0,1,5.514-8.243,23.859,23.859,0,0,1,5.707-4.414C277.474,588.981,279.509,588.612,278.734,588.1Z" transform="translate(-244.156 -550.52)" fill="#2d3680"/>
        <path id="Path_256" data-name="Path 256" d="M295.255,694.6c-.011-7.4-.244-14.7-2.225-21.982-1.895-6.969-5.472-13.3-8.771-19.73-2.733-5.324-13.573-7.733-18.39-1.774-4.456,5.51-1.659,18.051.554,24.338,2.266,6.434,3.812,6.921,6.688,13.106,1.438,3.093,2.965,6.168,4.167,9.359,1.329,3.531,2.463,11.765,3.169,15.443,1.3,6.768,5.654,15.354,6.085,22.249.254,4.057-1.49,8.272.406,10.713,1.227,1.58,4.992,2.4,6.725,2.313,1.853-.094,4.676-1.132,5.357-3.106.9-2.612.54-5.4.57-8.209.071-6.378-1.686-12.881-2.774-19.2C295.646,711.313,295.265,701.436,295.255,694.6Z" transform="translate(-244.19 -551.737)" fill="#2d3680"/>
        <path id="Path_257" data-name="Path 257" d="M295.562,559.764c-2.637-2.99-7.138-4.152-10.452-1.832-1.374.963-1.966,1.881-1.19,3.564a10.23,10.23,0,0,1,.948,6.344c-.184,1.74.266,4.07,2.388,4.054,1.587-.013,3.44-2.114,4.918-2.788,1.66-.759,3.575-1.463,4.5-3.247A5.571,5.571,0,0,0,295.562,559.764Z" transform="translate(-244.599 -549.885)" fill="#3f4ab3"/>
        <path id="Path_258" data-name="Path 258" d="M290.78,565.719c-.372-1.84-.277-3.271-1.537-4.849a10.1,10.1,0,0,0-3.983-3.057,15.844,15.844,0,0,0-11.761.283c-2.555.97-5.475,2.439-6.239,5.328a14.821,14.821,0,0,0,.283,10.4c1.253,2.9,4.639,4.25,7.537,4.608,4.4.544,7.54-1.18,10.555-4.212C287.858,571.982,291.509,569.326,290.78,565.719Z" transform="translate(-244.251 -549.887)" fill="#2d3680"/>
        <path id="Path_259" data-name="Path 259" d="M325.976,565.541c1.15,1.854,4.547,7.451,4.547,7.451a1.24,1.24,0,0,1-.337,1.69l-.244.156a1.156,1.156,0,0,1-1.611-.437s-3.437-5.715-4.549-7.64C323.083,565.55,325.261,564.391,325.976,565.541Z" transform="translate(-245.415 -550.055)" fill="#ededed"/>
        <path id="Path_260" data-name="Path 260" d="M314.541,552.448c.378-.53.658-.276.779-.092.2.313.666,1.036.928,1.437a.345.345,0,0,0,.474.1l.679-.429a.347.347,0,0,0,.106-.481l-1.33-2.057a.374.374,0,0,1,.193-.557,3.324,3.324,0,0,1,3.8,1.006,3.056,3.056,0,0,1-.157,3.193.974.974,0,0,0-.02,1.017s1.058,1.659,1.358,2.117c.521.794-1.695,2.048-2.131,1.351-.334-.534-1.247-2.186-1.247-2.186a.879.879,0,0,0-.9-.416,2.4,2.4,0,0,1-2.829-1.334A3.264,3.264,0,0,1,314.541,552.448Z" transform="translate(-245.221 -549.752)" fill="#ededed"/>
        <path id="Path_261" data-name="Path 261" d="M327.994,563.414c-.223-2.727-3.3-7.084-6.469-6.663-3.937.521-3.983,5.388-4.336,8.2-.507,4.031-3.9,8.14-6.261,11.182-1.827,2.354-3.946,6.276-2.884,9.316,1.073,3.075,4.911,4.905,7.786,3.117s4.259-5.86,4.762-9.038c.356-2.249.644-7.036,1.834-8.949.73-1.172,2.205-1.178,3.247-2.2C326.813,567.269,328.127,565.024,327.994,563.414Z" transform="translate(-245.092 -549.885)" fill="#f5ac87"/>
      </g>
      <g id="Group_1113" data-name="Group 1113" transform="translate(75.02)">
        <path id="Path_262" data-name="Path 262" d="M418.857,464.062c1.276.1,6.821-1.087,8.085-1.361,2.39-.517,3.752-2.714,4.247-5.029.382-1.794-1.837-3.926-3.23-4.892a18.107,18.107,0,0,0-5.879-2.171,57.029,57.029,0,0,0-7.676-1.31c-1.6-.159-2.558.014-3.195.863a8.741,8.741,0,0,0-1.3,3.329C409.839,454.537,416.61,463.883,418.857,464.062Z" transform="translate(-220.606 -414.704)" fill="#7cc4f9"/>
        <path id="Path_263" data-name="Path 263" d="M237.993,453.491a8.74,8.74,0,0,0-1.3-3.329c-.637-.849-1.592-1.022-3.195-.863a57.045,57.045,0,0,0-7.677,1.31,18.1,18.1,0,0,0-5.878,2.171c-1.393.966-3.612,3.1-3.23,4.892.494,2.316,1.856,4.512,4.247,5.029,1.263.273,6.808,1.463,8.084,1.361C231.292,463.883,238.063,454.537,237.993,453.491Z" transform="translate(-216.671 -414.704)" fill="#7cc4f9"/>
        <path id="Path_264" data-name="Path 264" d="M419.033,463.4c1.16.093,6.2-.988,7.35-1.237,2.173-.47,3.411-2.467,3.86-4.572.348-1.631-1.669-3.569-2.936-4.448a16.469,16.469,0,0,0-5.344-1.974,51.883,51.883,0,0,0-6.979-1.19c-1.457-.144-2.326.013-2.9.785a7.952,7.952,0,0,0-1.182,3.026C410.835,454.744,416.99,463.239,419.033,463.4Z" transform="translate(-220.626 -414.718)" fill="#3a6494"/>
        <path id="Path_265" data-name="Path 265" d="M237.044,453.793a7.935,7.935,0,0,0-1.181-3.026c-.579-.772-1.447-.929-2.9-.785a51.9,51.9,0,0,0-6.98,1.19,16.465,16.465,0,0,0-5.343,1.974c-1.267.879-3.284,2.816-2.937,4.448.45,2.105,1.688,4.1,3.861,4.572,1.148.249,6.189,1.33,7.349,1.237C230.953,463.239,237.108,454.744,237.044,453.793Z" transform="translate(-216.691 -414.718)" fill="#3a6494"/>
        <path id="Rectangle_617" data-name="Rectangle 617" d="M4.055,0H22.183a4.055,4.055,0,0,1,4.055,4.055V29.2a0,0,0,0,1,0,0H0a0,0,0,0,1,0,0V4.055A4.055,4.055,0,0,1,4.055,0Z" transform="translate(208.134 152.265) rotate(180)" fill="#1d1d1b"/>
        <path id="Rectangle_618" data-name="Rectangle 618" d="M0,0H26.237a0,0,0,0,1,0,0V25.143A4.055,4.055,0,0,1,22.183,29.2H4.055A4.055,4.055,0,0,1,0,25.143V0A0,0,0,0,1,0,0Z" transform="translate(2.492 123.068)" fill="#1d1d1b"/>
        <rect id="Rectangle_619" data-name="Rectangle 619" width="205.642" height="11.8" transform="translate(208.134 134.868) rotate(180)" fill="#1d1d1b"/>
        <path id="Path_266" data-name="Path 266" d="M425.343,513.832c.1-4.091-.236-19.339-.9-22.971a59.31,59.31,0,0,0-3.209-10.631c-.694-1.791-1.425-3.566-2.142-5.347a8.1,8.1,0,0,1-.857-2.156c-.029-.609.166-1.484.119-2.2a23.809,23.809,0,0,0-1.948-8.217c-.757-1.743-1.24-2.72-2.85-3.693a10.34,10.34,0,0,1-3.183-2.811c-3.937-5.482-6.353-10.641-9.357-16.617a94,94,0,0,0-8.688-14.32,23.842,23.842,0,0,0-7.439-6.948,8.879,8.879,0,0,0-3.819-1.61c-.744-.044-1.114.34-1.742.479a9.53,9.53,0,0,1-2.515-.3c-15.914-1.985-32.123-2.445-48.147-2.5-2.141-.007-4.5-.025-6.636.018-2.141-.043-4.5-.024-6.636-.018-16.024.051-32.234.511-48.147,2.5a9.534,9.534,0,0,1-2.515.3c-.628-.139-1-.523-1.742-.479a8.883,8.883,0,0,0-3.82,1.61,23.829,23.829,0,0,0-7.438,6.948,94,94,0,0,0-8.689,14.32c-3,5.976-5.419,11.134-9.356,16.617a10.362,10.362,0,0,1-3.183,2.811c-1.61.973-2.093,1.95-2.851,3.693a23.808,23.808,0,0,0-1.948,8.217c-.047.715.149,1.59.119,2.2a8.132,8.132,0,0,1-.858,2.156c-.717,1.781-1.449,3.556-2.141,5.347a59.309,59.309,0,0,0-3.21,10.631c-.666,3.632-1,18.88-.9,22.971.093,3.864.419,7.72.524,11.569.1,3.715-.542,7.4-.41,11.12a41.43,41.43,0,0,0,.381,4.8c.223,1.456.543,3.884,1.59,5.014.86.927,2.87.872,4.057.892H419.2c1.185-.021,3.2.034,4.056-.892,1.048-1.129,1.367-3.558,1.59-5.014a41.435,41.435,0,0,0,.382-4.8c.131-3.723-.513-7.4-.411-11.12C424.923,521.553,425.249,517.7,425.343,513.832Z" transform="translate(-216.712 -413.986)" fill="url(#linear-gradient-5)"/>
        <rect id="Rectangle_620" data-name="Rectangle 620" width="61.947" height="13.019" rx="1.313" transform="translate(74.339 53.602)" fill="#dadada"/>
        <path id="Path_267" data-name="Path 267" d="M366.712,465.6c0,1.393-19.45,2.223-43.442,2.223s-43.442-.83-43.442-2.223,19.45-1.534,43.442-1.534S366.712,464.2,366.712,465.6Z" transform="translate(-217.957 -415.006)" fill="#3a6494"/>
        <path id="Path_268" data-name="Path 268" d="M322.556,447.2c-52.574,0-79.3,6.111-77.686,8.1,1.314,1.62,34.053.333,77.686.333s76.372,1.287,77.685-.333C401.855,453.313,375.129,447.2,322.556,447.2Z" transform="translate(-217.243 -414.662)" fill="url(#linear-gradient-6)"/>
        <path id="Path_269" data-name="Path 269" d="M358.339,465.766c1.033.8,7.273,4.857,9.508,6.224a25.5,25.5,0,0,0,6.657,2.963c1.249.32,6.8.227,8.2.231,10.12.03,20.1-.179,30.12-.624,1.475-.066,7.191-.551,7.834-1.077.665-.544.234-4.352.153-5.29-.362-4.174-2.82-7.677-6.065-10.392-4.334-3.627-7.163-1.858-12.046-.488-4.68,1.314-9.979,2.352-14.764,3.2-10.125,1.784-17.234,3.408-29.5,3.408C355.83,463.917,357.393,465.031,358.339,465.766Z" transform="translate(-219.529 -414.835)" fill="#e71d73"/>
        <path id="Path_270" data-name="Path 270" d="M375.081,471.4c.651.321,2.068,1.009,2.72,1.284a7.31,7.31,0,0,0,3.5.79c7.157-.069,25.385,0,34.966-.683,1.343-.1,2.862-.217,3.111-.531a5.844,5.844,0,0,0-.313-3.352c-.514-.658-3.255-.457-4.12-.423-6.8.263-13.829.689-20.726,1-3.5.16-17.521,1.044-18.9,1.078C374.417,470.581,374.628,471.172,375.081,471.4Z" transform="translate(-219.889 -415.095)" fill="#ffaca3"/>
        <path id="Path_271" data-name="Path 271" d="M333.379,456.9c0,2.95-4.209,5.34-9.4,5.34s-9.4-2.39-9.4-5.34,4.209-5.339,9.4-5.339S333.379,453.95,333.379,456.9Z" transform="translate(-218.665 -414.751)" fill="#dadada"/>
        <path id="Path_272" data-name="Path 272" d="M288.579,463.917c-12.266,0-19.376-1.624-29.5-3.408-4.784-.843-10.083-1.882-14.763-3.2-4.882-1.37-7.713-3.139-12.046.488-3.245,2.715-5.7,6.218-6.065,10.392-.081.938-.512,4.746.152,5.29.643.526,6.36,1.011,7.835,1.077,10.024.445,20,.654,30.119.624,1.4,0,6.952.089,8.2-.231a25.518,25.518,0,0,0,6.657-2.963c2.234-1.367,8.476-5.422,9.508-6.224C289.622,465.031,291.185,463.917,288.579,463.917Z" transform="translate(-216.86 -414.835)" fill="#e71d73"/>
        <path id="Path_273" data-name="Path 273" d="M272.091,470.56c-1.378-.033-15.4-.918-18.9-1.078-6.9-.313-13.931-.74-20.727-1-.864-.033-3.605-.235-4.12.423a5.861,5.861,0,0,0-.313,3.352c.25.314,1.769.435,3.111.531,9.582.684,27.809.614,34.967.683a7.313,7.313,0,0,0,3.5-.79c.651-.275,2.068-.963,2.719-1.284C272.786,471.172,273,470.581,272.091,470.56Z" transform="translate(-216.899 -415.095)" fill="#ffaca3"/>
        <g id="Group_1112" data-name="Group 1112" transform="translate(28.558 27.565)">
          <g id="Group_1110" data-name="Group 1110" transform="translate(76.369)">
            <path id="Path_274" data-name="Path 274" d="M339.076,500.478q-3.647,0-7.361-.007-3.75-.006-7.55-.007a.386.386,0,1,1,0-.772q3.8,0,7.551.008c16.459.022,32,.045,45.315-.946,2.881-.214,7.422-2.715,9.735-6.38,4.781-7.577,7.153-14.395,11.085-25.69q.66-1.9,1.385-3.973c1.055-3.012.989-7.468.808-9.4s-3.524-7.779-5.266-10.594a.386.386,0,1,1,.656-.407c.21.339,5.132,8.323,5.377,10.929.187,1.993.251,6.591-.848,9.729q-.727,2.078-1.385,3.972c-3.949,11.346-6.332,18.2-11.16,25.848-2.44,3.87-7.262,6.511-10.329,6.739C365.752,500.367,352.813,500.478,339.076,500.478Z" transform="translate(-323.779 -442.124)" fill="#223a61"/>
          </g>
          <g id="Group_1111" data-name="Group 1111">
            <path id="Path_275" data-name="Path 275" d="M307.666,500.478c-13.739,0-26.676-.111-38.013-.954-3.067-.228-7.889-2.869-10.33-6.739-4.827-7.651-7.21-14.5-11.158-25.844q-.661-1.9-1.387-3.976c-1.1-3.138-1.035-7.736-.848-9.729.246-2.606,5.169-10.59,5.378-10.929a.386.386,0,1,1,.656.407c-1.742,2.814-5.083,8.652-5.266,10.594s-.248,6.39.808,9.4c.485,1.387.946,2.71,1.387,3.977,3.93,11.292,6.3,18.109,11.083,25.686,2.312,3.666,6.854,6.167,9.734,6.38,13.312.99,28.855.969,45.315.946q3.751-.006,7.552-.008a.386.386,0,0,1,0,.772q-3.8,0-7.55.007Q311.312,500.477,307.666,500.478Z" transform="translate(-245.822 -442.124)" fill="#223a61"/>
          </g>
        </g>
        <path id="Path_276" data-name="Path 276" d="M425.342,515.135c.1-4.094-.236-19.342-.9-22.972a58.825,58.825,0,0,0-3.21-10.63c-.466-1.2-.949-2.4-1.435-3.6a3.627,3.627,0,0,0-.406,1.971c.051,6.224-2.184,11.318-4,13.408-3.488,4.01-7.589,5.842-12.656,6.918a149.2,149.2,0,0,1-24.791,2.581c-8.21,0-47.323-.038-55.915-.046-8.593.008-47.706.046-55.917.046a149.205,149.205,0,0,1-24.791-2.581c-5.067-1.077-9.168-2.909-12.656-6.918-1.817-2.091-4.052-7.185-4-13.408a3.628,3.628,0,0,0-.4-1.971c-.486,1.2-.969,2.4-1.435,3.6a58.825,58.825,0,0,0-3.21,10.63c-.668,3.631-1,18.878-.9,22.972.093,3.863.417,7.721.521,11.567.1,3.716-.541,7.4-.409,11.121a41.856,41.856,0,0,0,.382,4.8c.224,1.455.541,3.885,1.59,5.016.86.927,2.87.873,4.056.891H419.2c1.184-.019,3.195.035,4.056-.891,1.049-1.131,1.366-3.561,1.59-5.016a41.856,41.856,0,0,0,.382-4.8c.13-3.724-.513-7.4-.409-11.121C424.924,522.857,425.249,519,425.342,515.135Z" transform="translate(-216.712 -415.288)" fill="url(#linear-gradient-7)"/>
        <path id="Path_277" data-name="Path 277" d="M266.33,520.688a16.328,16.328,0,0,0-3.059-2.063A9.947,9.947,0,0,0,259.4,517.6c-2.821-.128-32.927.018-35.337.056-.613.01-.788.426-.413.889.461.568,1.216,1.268,1.555,1.611a2.938,2.938,0,0,0,2.1.667c.422.013,37.637.659,38.625.659C266.253,521.486,266.937,521.26,266.33,520.688Z" transform="translate(-216.809 -416.095)" fill="#e71d73"/>
        <path id="Path_278" data-name="Path 278" d="M381.526,521.486c.988,0,38.2-.647,38.625-.659a2.936,2.936,0,0,0,2.1-.667c.339-.344,1.094-1.043,1.556-1.611.374-.462.2-.879-.414-.889-2.41-.038-32.515-.184-35.336-.056a9.942,9.942,0,0,0-3.874,1.021,16.3,16.3,0,0,0-3.06,2.063C380.513,521.26,381.2,521.486,381.526,521.486Z" transform="translate(-220.015 -416.095)" fill="#e71d73"/>
        <path id="Path_279" data-name="Path 279" d="M416.029,546.963a34.728,34.728,0,0,0-2.194-4.941,18.581,18.581,0,0,0-7.349-7.226c-3.38-1.883-7-2.339-10.82-2.6-13.828-.957-49.084-.954-73.466-.954s-59.639,0-73.466.954c-3.817.265-7.44.721-10.821,2.6a18.587,18.587,0,0,0-7.349,7.226,34.835,34.835,0,0,0-2.194,4.941,27.1,27.1,0,0,0-1.076,2.653H417.106A26.849,26.849,0,0,0,416.029,546.963Z" transform="translate(-216.887 -416.374)" fill="#3c3c3b"/>
        <path id="Path_280" data-name="Path 280" d="M393.822,441.107c-.74-3.063-5.125-14.789-6.258-16.7-.7-1.181-1.907-2.012-4.245-2.315-11.551-1.495-39.765-2.6-60.585-2.6h-.083c-20.819,0-49.034,1.11-60.585,2.6-2.337.3-3.544,1.133-4.244,2.315-1.133,1.915-5.519,13.641-6.258,16.7-.265,1.1.16.957,1.007,1.02,2.755.207,36.165.937,70.122.936,33.428,0,67.41-.732,70.122-.936C393.661,442.065,394.087,442.206,393.822,441.107Z" transform="translate(-217.38 -414.098)" fill="url(#linear-gradient-8)"/>
        <path id="Path_281" data-name="Path 281" d="M372.838,426.061c-.219-1.005-1.165-2.556-3.729-2.894-4.153-.547-22-1.376-45.5-1.3-26.372.084-53.439,1.367-58.311,2.171-2.982.492-4.775,1.109-6.222,3.328a33.128,33.128,0,0,0-3.666,10.428c-.53,4.353,6.924,1.492,15.434-.1,9.181-1.713,24.12-3.533,46.879-4.293,18.8-.627,43.2-.241,52.4.326,3.521.217,4.051-.247,3.811-1.977S373.192,427.677,372.838,426.061Z" transform="translate(-217.459 -414.146)" fill="url(#linear-gradient-9)"/>
      </g>
      <g id="Group_1130" data-name="Group 1130" transform="translate(202.926 194.431)">
        <rect id="Rectangle_622" data-name="Rectangle 622" width="41.502" height="98.302" transform="translate(1.986 31.903)" fill="url(#linear-gradient-10)"/>
        <rect id="Rectangle_623" data-name="Rectangle 623" width="21.799" height="98.302" transform="translate(43.487 31.903)" fill="#dedede"/>
        <path id="Path_282" data-name="Path 282" d="M372.254,640.534h37.471l6.912-28.075H379.166Z" transform="translate(-347.746 -612.46)" fill="#fff"/>
        <g id="Group_1124" data-name="Group 1124" transform="translate(4.306 34.529)">
          <g id="Group_1114" data-name="Group 1114">
            <path id="Path_283" data-name="Path 283" d="M388.128,665.331H352a.364.364,0,1,1,0-.728h35.767V648.07a.364.364,0,0,1,.728,0v16.9A.364.364,0,0,1,388.128,665.331Z" transform="translate(-351.632 -647.707)" fill="#706f6f"/>
          </g>
          <g id="Group_1115" data-name="Group 1115" transform="translate(0 18.866)">
            <path id="Path_284" data-name="Path 284" d="M388.128,684.588H352a.363.363,0,1,1,0-.727h35.767V667.328a.364.364,0,0,1,.728,0v16.9A.363.363,0,0,1,388.128,684.588Z" transform="translate(-351.632 -666.965)" fill="#706f6f"/>
          </g>
          <g id="Group_1116" data-name="Group 1116" transform="translate(0 37.731)">
            <path id="Path_285" data-name="Path 285" d="M388.128,703.846H352a.364.364,0,1,1,0-.728h35.767V686.586a.364.364,0,1,1,.728,0v16.9A.363.363,0,0,1,388.128,703.846Z" transform="translate(-351.632 -686.222)" fill="#706f6f"/>
          </g>
          <g id="Group_1117" data-name="Group 1117" transform="translate(0 56.596)">
            <path id="Path_286" data-name="Path 286" d="M388.128,723.1H352a.364.364,0,1,1,0-.728h35.767V705.844a.364.364,0,0,1,.728,0v16.9A.364.364,0,0,1,388.128,723.1Z" transform="translate(-351.632 -705.48)" fill="#706f6f"/>
          </g>
          <g id="Group_1118" data-name="Group 1118" transform="translate(0 75.461)">
            <path id="Path_287" data-name="Path 287" d="M388.128,742.361H352a.363.363,0,1,1,0-.727h35.767V725.1a.364.364,0,1,1,.728,0V742A.363.363,0,0,1,388.128,742.361Z" transform="translate(-351.632 -724.737)" fill="#706f6f"/>
          </g>
          <g id="Group_1119" data-name="Group 1119" transform="translate(4.103 2.868)">
            <path id="Path_288" data-name="Path 288" d="M384.111,651.362H356.184a.363.363,0,1,1,0-.727h27.926a.363.363,0,1,1,0,.727Z" transform="translate(-355.82 -650.635)" fill="#706f6f"/>
          </g>
          <g id="Group_1120" data-name="Group 1120" transform="translate(4.103 21.733)">
            <path id="Path_289" data-name="Path 289" d="M384.111,670.62H356.184a.364.364,0,1,1,0-.728h27.926a.364.364,0,0,1,0,.728Z" transform="translate(-355.82 -669.892)" fill="#706f6f"/>
          </g>
          <g id="Group_1121" data-name="Group 1121" transform="translate(4.103 40.599)">
            <path id="Path_290" data-name="Path 290" d="M384.111,689.878H356.184a.364.364,0,1,1,0-.728h27.926a.364.364,0,0,1,0,.728Z" transform="translate(-355.82 -689.15)" fill="#706f6f"/>
          </g>
          <g id="Group_1122" data-name="Group 1122" transform="translate(4.103 59.464)">
            <path id="Path_291" data-name="Path 291" d="M384.111,709.135H356.184a.364.364,0,1,1,0-.728h27.926a.364.364,0,0,1,0,.728Z" transform="translate(-355.82 -708.407)" fill="#706f6f"/>
          </g>
          <g id="Group_1123" data-name="Group 1123" transform="translate(4.103 78.329)">
            <path id="Path_292" data-name="Path 292" d="M384.111,728.393H356.184a.364.364,0,1,1,0-.728h27.926a.364.364,0,0,1,0,.728Z" transform="translate(-355.82 -727.665)" fill="#706f6f"/>
          </g>
        </g>
        <g id="Group_1129" data-name="Group 1129" transform="translate(0 130.204)">
          <g id="Group_1125" data-name="Group 1125" transform="translate(38.394)">
            <path id="Path_293" data-name="Path 293" d="M389.14,755a1.206,1.206,0,0,0,1.134-.8l2.588-7.181a1.244,1.244,0,0,0,.055-.7,1.209,1.209,0,0,0-1.179-.945h-3.8v8.351a1.306,1.306,0,0,0,1.052,1.264A1.372,1.372,0,0,0,389.14,755Z" transform="translate(-386.459 -745.371)" fill="#878787"/>
            <path id="Path_294" data-name="Path 294" d="M389.662,755a1.206,1.206,0,0,0,1.134-.8l2.588-7.181a1.244,1.244,0,0,0,.055-.7,1.209,1.209,0,0,0-1.18-.945h-3.8v8.351a1.307,1.307,0,0,0,1.052,1.264A1.372,1.372,0,0,0,389.662,755Z" transform="translate(-386.469 -745.371)" fill="#b2b2b2"/>
            <path id="Path_295" data-name="Path 295" d="M389.62,748.275h2.593v10.8H389.62c-1.762,0-3.192-2.417-3.192-5.4S387.857,748.275,389.62,748.275Z" transform="translate(-386.428 -745.43)" fill="#706f6f"/>
            <ellipse id="Ellipse_24" data-name="Ellipse 24" cx="3.192" cy="5.398" rx="3.192" ry="5.398" transform="translate(2.592 2.844)" fill="#4d4d4c"/>
            <path id="Path_296" data-name="Path 296" d="M392.308,755a1.206,1.206,0,0,0,1.134-.8l2.588-7.181a1.244,1.244,0,0,0,.055-.7,1.209,1.209,0,0,0-1.179-.945h-3.8v8.351a1.306,1.306,0,0,0,1.052,1.264A1.372,1.372,0,0,0,392.308,755Z" transform="translate(-386.523 -745.371)" fill="#878787"/>
            <path id="Path_297" data-name="Path 297" d="M392.831,755a1.205,1.205,0,0,0,1.133-.8l2.588-7.181a1.245,1.245,0,0,0,.056-.7,1.211,1.211,0,0,0-1.18-.945h-3.806v8.351a1.307,1.307,0,0,0,1.052,1.264A1.376,1.376,0,0,0,392.831,755Z" transform="translate(-386.534 -745.371)" fill="#b2b2b2"/>
          </g>
          <g id="Group_1126" data-name="Group 1126" transform="translate(57.312)">
            <path id="Path_298" data-name="Path 298" d="M408.452,755a1.207,1.207,0,0,0,1.134-.8l2.587-7.181a1.236,1.236,0,0,0,.056-.7,1.209,1.209,0,0,0-1.179-.945h-3.8v8.351a1.306,1.306,0,0,0,1.052,1.264A1.372,1.372,0,0,0,408.452,755Z" transform="translate(-405.771 -745.371)" fill="#878787"/>
            <path id="Path_299" data-name="Path 299" d="M408.974,755a1.206,1.206,0,0,0,1.134-.8l2.588-7.181a1.244,1.244,0,0,0,.055-.7,1.209,1.209,0,0,0-1.18-.945h-3.8v8.351a1.306,1.306,0,0,0,1.052,1.264A1.373,1.373,0,0,0,408.974,755Z" transform="translate(-405.781 -745.371)" fill="#b2b2b2"/>
            <path id="Path_300" data-name="Path 300" d="M408.932,748.275h2.592v10.8h-2.592c-1.762,0-3.192-2.417-3.192-5.4S407.169,748.275,408.932,748.275Z" transform="translate(-405.74 -745.43)" fill="#706f6f"/>
            <path id="Path_301" data-name="Path 301" d="M408.386,753.673c0,2.981,1.429,5.4,3.192,5.4s3.193-2.417,3.193-5.4-1.429-5.4-3.193-5.4S408.386,750.692,408.386,753.673Z" transform="translate(-405.794 -745.43)" fill="#4d4d4c"/>
            <path id="Path_302" data-name="Path 302" d="M411.62,755a1.206,1.206,0,0,0,1.134-.8l2.588-7.181a1.244,1.244,0,0,0,.055-.7,1.209,1.209,0,0,0-1.18-.945h-3.8v8.351a1.306,1.306,0,0,0,1.052,1.264A1.373,1.373,0,0,0,411.62,755Z" transform="translate(-405.835 -745.371)" fill="#878787"/>
            <path id="Path_303" data-name="Path 303" d="M412.142,755a1.206,1.206,0,0,0,1.134-.8l2.588-7.181a1.253,1.253,0,0,0,.056-.7,1.211,1.211,0,0,0-1.179-.945h-3.806v8.351a1.307,1.307,0,0,0,1.052,1.264A1.373,1.373,0,0,0,412.142,755Z" transform="translate(-405.846 -745.371)" fill="#b2b2b2"/>
          </g>
          <g id="Group_1127" data-name="Group 1127">
            <path id="Path_304" data-name="Path 304" d="M349.948,755a1.206,1.206,0,0,0,1.134-.8l2.588-7.181a1.244,1.244,0,0,0,.055-.7,1.209,1.209,0,0,0-1.179-.945h-3.8v8.351a1.306,1.306,0,0,0,1.052,1.264A1.373,1.373,0,0,0,349.948,755Z" transform="translate(-347.267 -745.371)" fill="#878787"/>
            <path id="Path_305" data-name="Path 305" d="M350.47,755a1.206,1.206,0,0,0,1.134-.8l2.588-7.181a1.245,1.245,0,0,0,.055-.7,1.209,1.209,0,0,0-1.179-.945h-3.8v8.351a1.306,1.306,0,0,0,1.052,1.264A1.372,1.372,0,0,0,350.47,755Z" transform="translate(-347.277 -745.371)" fill="#b2b2b2"/>
            <path id="Path_306" data-name="Path 306" d="M350.429,748.275h2.592v10.8h-2.592c-1.763,0-3.193-2.417-3.193-5.4S348.665,748.275,350.429,748.275Z" transform="translate(-347.236 -745.43)" fill="#706f6f"/>
            <ellipse id="Ellipse_25" data-name="Ellipse 25" cx="3.192" cy="5.398" rx="3.192" ry="5.398" transform="translate(2.592 2.844)" fill="#4d4d4c"/>
            <path id="Path_307" data-name="Path 307" d="M353.116,755a1.206,1.206,0,0,0,1.134-.8l2.588-7.181a1.244,1.244,0,0,0,.055-.7,1.209,1.209,0,0,0-1.179-.945h-3.8v8.351a1.306,1.306,0,0,0,1.052,1.264A1.373,1.373,0,0,0,353.116,755Z" transform="translate(-347.331 -745.371)" fill="#878787"/>
            <path id="Path_308" data-name="Path 308" d="M353.638,755a1.206,1.206,0,0,0,1.134-.8l2.588-7.181a1.253,1.253,0,0,0,.056-.7,1.211,1.211,0,0,0-1.179-.945h-3.806v8.351a1.307,1.307,0,0,0,1.052,1.264A1.372,1.372,0,0,0,353.638,755Z" transform="translate(-347.342 -745.371)" fill="#b2b2b2"/>
          </g>
          <g id="Group_1128" data-name="Group 1128" transform="translate(18.919)">
            <path id="Path_309" data-name="Path 309" d="M369.26,755a1.206,1.206,0,0,0,1.134-.8l2.587-7.181a1.244,1.244,0,0,0,.056-.7,1.209,1.209,0,0,0-1.179-.945h-3.806v8.351a1.307,1.307,0,0,0,1.053,1.264A1.372,1.372,0,0,0,369.26,755Z" transform="translate(-366.579 -745.371)" fill="#878787"/>
            <path id="Path_310" data-name="Path 310" d="M369.782,755a1.206,1.206,0,0,0,1.134-.8l2.588-7.181a1.245,1.245,0,0,0,.055-.7,1.209,1.209,0,0,0-1.179-.945h-3.8v8.351a1.306,1.306,0,0,0,1.052,1.264A1.373,1.373,0,0,0,369.782,755Z" transform="translate(-366.589 -745.371)" fill="#b2b2b2"/>
            <path id="Path_311" data-name="Path 311" d="M369.74,748.275h2.592v10.8H369.74c-1.762,0-3.192-2.417-3.192-5.4S367.977,748.275,369.74,748.275Z" transform="translate(-366.548 -745.43)" fill="#706f6f"/>
            <path id="Path_312" data-name="Path 312" d="M369.194,753.673c0,2.981,1.429,5.4,3.192,5.4s3.193-2.417,3.193-5.4-1.429-5.4-3.193-5.4S369.194,750.692,369.194,753.673Z" transform="translate(-366.602 -745.43)" fill="#4d4d4c"/>
            <path id="Path_313" data-name="Path 313" d="M372.428,755a1.206,1.206,0,0,0,1.134-.8l2.588-7.181a1.244,1.244,0,0,0,.055-.7,1.209,1.209,0,0,0-1.179-.945h-3.8v8.351a1.306,1.306,0,0,0,1.052,1.264A1.372,1.372,0,0,0,372.428,755Z" transform="translate(-366.643 -745.371)" fill="#878787"/>
            <path id="Path_314" data-name="Path 314" d="M372.95,755a1.205,1.205,0,0,0,1.134-.8l2.588-7.181a1.244,1.244,0,0,0,.055-.7,1.209,1.209,0,0,0-1.178-.945h-3.806v8.351a1.307,1.307,0,0,0,1.052,1.264A1.373,1.373,0,0,0,372.95,755Z" transform="translate(-366.654 -745.371)" fill="#b2b2b2"/>
          </g>
        </g>
      </g>
    </g>
    <ellipse id="Ellipse_26" data-name="Ellipse 26" cx="82.073" cy="2.607" rx="82.073" ry="2.607" transform="translate(440.026 815.53)" fill="#dad1d1"/>
    <g id="Group_1134" data-name="Group 1134" transform="translate(417.878 640.944)">
      <path id="Path_315" data-name="Path 315" d="M484.979,703.323c-1.329-4.939-9.41-7.917-12.512-4.36-1.844,2.114-.987,8.043-.65,10.612.479,3.648,1.477,7.072,2.094,10.607a5.228,5.228,0,0,0,9.659,2.146c1.352-2.106,1.8-4.958,2.022-7.468A32.715,32.715,0,0,0,484.979,703.323Z" transform="translate(-424.624 -646.716)" fill="#f5ac87"/>
      <path id="Path_316" data-name="Path 316" d="M481.671,718.837a5.267,5.267,0,0,0-6.547.806,27.336,27.336,0,0,0-2.668,4.042,32.284,32.284,0,0,0-2.131,5.805c-.514,1.943-.2,4.127-.329,6.123a44.208,44.208,0,0,1-.774,6.015c-.554,2.74-3.9,8.106-1.823,10.566,2.3,2.728,4.772-1.131,6.022-3.688,1.643-3.363,3.75-7.158,5.508-10.773C480.83,733.825,486.3,722.074,481.671,718.837Z" transform="translate(-424.531 -647.137)" fill="#f5ac87"/>
      <path id="Path_317" data-name="Path 317" d="M529,687.212c-2.886-3.622-7.554-5.455-11-8.4-5.7-4.874-14.922-11.753-25.905-10.955-5.207.378-6.812,2.377-7.417,4.108-.372,1.068-1.2,3.992-2.833,5.43-2.276,2.007-5.785,2.477-8.423,3.52-3.39,1.341-4.419,4.39-4.649,8.066-.267,4.258-.1,8.081,2.1,11.877.48.832,2.382,1.253,3.387,1.39,3.222.437,6.963.278,9.295-2.366,2,.762,6.246-.414,7.871-1.668,1.861-1.436,2.143-1.643,5.248-.448,5.535,2.131,14.239,3.619,18.031,2.875,6.19-1.215,8.99,1.7,13.34,1.855a5.044,5.044,0,0,0,5.024-4.7C533.291,695.192,531.1,689.846,529,687.212Z" transform="translate(-424.57 -646.113)" fill="#fff"/>
      <path id="Path_318" data-name="Path 318" d="M561.144,810.571c-1.427-2.5-3.518-4.863-5.959-5.694-3.073-1.047-6.89,1.066-8.9,3.525-2.108,2.585-2.4,6.361-5.176,8.434-2.316,1.728-8.413,2.209-8.413,5.253,0,2.849,4.553,3.4,6.887,3.76,3.152.492,7.21.274,9.589-.95,1.446-.745,2.01-2.23,2.856-3.554a11.251,11.251,0,0,1,4.288-3.8c1.534-.874,2.928-1.392,4.11-2.863C561.015,813.949,561.975,812.026,561.144,810.571Z" transform="translate(-425.874 -648.9)" fill="#1b6db3"/>
      <path id="Path_319" data-name="Path 319" d="M521.625,719.766c-2.1-7.713-12.973-15.221-18.693-9.055-3.4,3.661-2.341,16.97-4.36,22.555-1.9,5.263-4.224,10.395-6.587,15.49-4.89,10.542-3.9,18.022-5.439,27.078-.832,4.9-5.839,21.667-5.051,26.969.638,4.3,2.69,5.552,6.5,5.454,3.046-.078,5.6-1.53,7.934-3.4,5.233-4.189,8.109-21.507,8.363-26.1.736-13.295,7.538-20.48,12.446-29.937C519.091,744.285,524.966,732.061,521.625,719.766Z" transform="translate(-424.83 -646.941)" fill="#222761"/>
      <path id="Path_320" data-name="Path 320" d="M558.022,800.789c-.065-2.273-1.921-3.2-3.424-4.325a11.961,11.961,0,0,1-4.357-5.778c-1-2.866-2.349-5.8-3.435-8.666a39.444,39.444,0,0,0-9.637-14.8c-2-1.826-3.216-3.727-3.2-6.54.014-3.1,3.628-16.286,4.651-19.725,1.859-6.249,4.342-12.041,5.2-18.742.705-5.536-.732-11.907-4.589-18.036-1.337-2.125-2.963-4.042-3.958-6.263-1.088-2.431-.2-5.432-1.178-8-.368-.972-3.753-3.884-4.691-4.424-.529-.3-3.137-1.727-3.4-1.25-.445.823,3.806,5.6,4.471,7.341,1.452,3.8,2.66,9.893-3.094,8.776-3-.583-4.114-1.632-8.557-1.514-2.869.076-6.216,1.2-9.44,1.04a25.847,25.847,0,0,1-9.859-2.975,44.134,44.134,0,0,0-5.3-1.981c-1.272-.389-1.173-.449-1.771.373-1.832,2.515-3.743,3.957-7.519,5.147-.39.122-.5.234-.069.9a14.275,14.275,0,0,0,1.653,1.933c3.944,3.774,9.959,5.016,14.327,8.326,4.008,3.037,6.578,6.668,9.172,11.013,3.393,5.683,5.3,25.426,4.89,31.459-1,14.609-.2,16.846,19.128,37.345,2.489,2.64,4.575,4.567,6.172,7.764,1.17,2.343,1.18,6.964,4.84,8.778C549.036,809.944,558.217,807.625,558.022,800.789Z" transform="translate(-424.894 -646.446)" fill="#2d3680"/>
      <path id="Path_321" data-name="Path 321" d="M470.292,750.722c-1.424-1-3.869-2.417-5.335-.955-.521.52-.317,1.666-1.015,2.229-1.073.865-4.349,1.595-5.263,2-2.564,1.141-8.443,6.381-5.982,8.677.816.761,1.875-1.14,2.811-1.385a19.884,19.884,0,0,1,4.723-.726c2.781-.05,5.633.657,8.348-.246C473.43,758.7,474.581,753.735,470.292,750.722Z" transform="translate(-424.233 -647.77)" fill="#ededed"/>
      <path id="Path_322" data-name="Path 322" d="M508.476,696.483c-2.384-5.437-11.407-2.119-13.307-.222-1.433,1.43-1.829,4.952-1.983,7.226a56.766,56.766,0,0,0,.577,11.5c.457,3.068,1.8,9.891,5.209,10.593,3.958.814,5.082-2.028,6.2-4.889a66.313,66.313,0,0,0,3.256-12.422C508.785,705.272,509.862,699.645,508.476,696.483Z" transform="translate(-425.068 -646.637)" fill="#f5ac87"/>
      <path id="Path_323" data-name="Path 323" d="M484.691,697.427a18.26,18.26,0,0,1-4.48-4.866c-1.957-3.144-2.6-8.326-3.488-9.883-.133-.247-.3-.553-.57-.634-.5-.152-.756.25-.8.771-.277,3.327.888,7.338,2.358,10.377a18,18,0,0,0,5.94,6.948.854.854,0,0,0,.647.023,15.34,15.34,0,0,0,2.215-.783c.162-.08.2-.263.122-.332C486.147,698.594,485.34,697.959,484.691,697.427Z" transform="translate(-424.706 -646.403)" fill="#2d3680"/>
      <path id="Path_324" data-name="Path 324" d="M479.434,686.2c.013-1.111-1.4-3.615-1.847-4.237a6.216,6.216,0,0,0-3.218-2.3c-1.794-.481-2.143,2.417-2.134,3.727.019,2.3.147,3.717,1.52,2.062.9-1.084,1.623-1.2,2.916-.476C477.337,685.347,479.419,687.6,479.434,686.2Z" transform="translate(-424.643 -646.354)" fill="#ededed"/>
      <path id="Path_325" data-name="Path 325" d="M470.536,654.393c-2.277.73-4.336,1.885-6.786,1.672-1.62-.14-3.61-1.812-5.072-.594-1.087.905-1.423,3.729-1.085,5.021.543,2.079,1.719,1.98,2.083,4a17.8,17.8,0,0,1-.11,2.723c0,.94,1.321,1.563,1.826,2.308,1.184,1.745,1.612,4.352,3.159,5.825,2.145,2.044,2.978-.261,4.985-.113a3.624,3.624,0,0,1,2.023,1.228,8.591,8.591,0,0,1,1.3,1.832,22.578,22.578,0,0,0,2.084,3.453c.852.948,8.1,10.217,9.462,9.485.542-.29-4.969-9.424-4.816-10.742.229-1.966,3.815-6.056,4.438-8.055.794-2.544-.387-3.694-1.31-5.655-1.457-3.093-.366-5.761-1.639-8.789C479.3,653.745,474.39,653.158,470.536,654.393Z" transform="translate(-424.342 -645.829)" fill="#f5ac87"/>
      <path id="Path_326" data-name="Path 326" d="M480.158,657.363c-2.18-1.078-.138.491.011,1.829.216,1.951-1.751,3.82-.4,5.81,1.421,2.1,2.346,1.22,3.317-.577a4.95,4.95,0,0,0-.036-3.118A7.051,7.051,0,0,0,480.158,657.363Z" transform="translate(-424.784 -645.893)" fill="#432918"/>
      <path id="Path_327" data-name="Path 327" d="M474.876,663.179c-.592.719-.607,2.2-.938,3.538-.628,2.544-1.447,4.641-3.705,6.154-1.92,1.291-4.3,2.989-6.274,1.26a1.9,1.9,0,0,0-.5-.312,6.4,6.4,0,0,0,1.214,1.718c2.146,2.048,2.978-.26,4.986-.111a3.614,3.614,0,0,1,2.022,1.228c.033.035.072.073.11.117a6.428,6.428,0,0,0,2.716-2.005c1.854-2.335,1.811-5.794,1.692-7.425C476.158,666.79,475.553,662.355,474.876,663.179Z" transform="translate(-424.464 -646.017)" fill="#eb926c"/>
      <path id="Path_328" data-name="Path 328" d="M457.727,655.26c-2.169-1.119-4.8-3.582-7.03-.841-1.467,1.805-1.174,4.415.931,5.114,1.254.416,4.394.909,5.636.275.948-.484-.018-1.645.817-2.916C458.68,655.977,458.856,655.843,457.727,655.26Z" transform="translate(-424.186 -645.815)" fill="#222761"/>
      <path id="Path_329" data-name="Path 329" d="M487.246,682.6c-.367-4.641,1.052-9.913.628-12.159a5.26,5.26,0,0,0-3.678-3.859c-2.442-.549-.321,1.352.211,3.547.412,1.7-.315,2.934-1.472,4.6-.971,1.4-2.22,2.919-2.436,4.836-.132,1.168,1.737,1.009,2.782,1.4,1.028.382,1.614,1.422,2.5,1.959C486.523,683.376,487.332,683.682,487.246,682.6Z" transform="translate(-424.811 -646.086)" fill="#ededed"/>
      <path id="Path_330" data-name="Path 330" d="M514.856,675.654a30.865,30.865,0,0,0-6.046-4.5c-2.083-1.266-5.116-3.067-7.543-3.388a18.544,18.544,0,0,0-8.553,1.157,9.434,9.434,0,0,0-3.76,3.251,19.417,19.417,0,0,0-3.014,10.957,20.177,20.177,0,0,0,.81,6.127,23.551,23.551,0,0,0,3.816,6.887c.113.14.215.049.314-.035a14.036,14.036,0,0,0,1.58-1.955c.1-.182.128-.263-.194-.59-2.534-2.571-3.857-7.411-3.416-11.063.37-3.065.639-5.318,2.08-8.067.883-1.684,2.675-4.647,5.156-5.075a14.078,14.078,0,0,1,7.144.838,48.019,48.019,0,0,1,11.485,6C515.351,676.665,515.289,676.1,514.856,675.654Z" transform="translate(-424.922 -646.111)" fill="#2d3680"/>
      <path id="Path_331" data-name="Path 331" d="M471.46,654.143a18.789,18.789,0,0,1-.978,3.405,8.1,8.1,0,0,1-2.73,3.529c-1.777,1.03-3.082.6-4.955.356a9.109,9.109,0,0,0-2.7.1,4.206,4.206,0,0,1-1.964.251,4.33,4.33,0,0,1-.543-1.281c-.336-1.289,0-4.115,1.085-5.022,1.462-1.218,3.453.455,5.073.595,2.447.216,4.507-.943,6.783-1.673C470.838,654.3,471.15,654.215,471.46,654.143Z" transform="translate(-424.342 -645.835)" fill="#eb926c"/>
      <path id="Path_332" data-name="Path 332" d="M473.931,655.528a12.606,12.606,0,0,0-4.124.095.391.391,0,0,0-.046.749.384.384,0,0,0,.037.029c1.266.652,1.519,1.742,1.71,3.135.152,1.106.227,2.378,1.9,3.105a1.574,1.574,0,0,0,1.482-.1,3.7,3.7,0,0,0,.726-1.736,8.378,8.378,0,0,1,.574-2.689c.669-1.352,2.158-1.162,1.391-1.729C476.959,655.921,474.658,655.638,473.931,655.528Z" transform="translate(-424.587 -645.861)" fill="#432918"/>
      <path id="Path_333" data-name="Path 333" d="M469.281,654.964a50.546,50.546,0,0,1-4.853-2.182,6.806,6.806,0,0,0-3.377-.654,14.713,14.713,0,0,1-1.877.228,14.423,14.423,0,0,0-6.782.782c-.465.23-.5.469.634.357,2.092-.208,3.6,1.824,5.409,2.751a14.453,14.453,0,0,0,3.841,1.381c2.635.507,5.442-.455,7.772-1.587C470.894,655.628,469.883,655.18,469.281,654.964Z" transform="translate(-424.233 -645.794)" fill="#3f4ab3"/>
      <path id="Path_334" data-name="Path 334" d="M474.77,646.395c-2.618-.412-5.6-1.113-8.356-.476-2.981.688-4.535,2.6-6.739,5.941-.32.485-.025.586.414.575,2.512-.062,4.124.973,5.857,1.769a16.17,16.17,0,0,0,4.82,1.37,41.267,41.267,0,0,1,5.307.615,17.219,17.219,0,0,1,5.307,2.523c.308.209.8.052.771-.231.848-2.647,0-5.48-1-7.773C480.039,648.176,477.465,646.819,474.77,646.395Z" transform="translate(-424.384 -645.662)" fill="#2d3680"/>
      <g id="Group_1133" data-name="Group 1133" transform="translate(0 101.193)">
        <circle id="Ellipse_27" data-name="Ellipse 27" cx="32.846" cy="32.846" r="32.846" transform="translate(0 25.139) rotate(-22.5)" fill="#3c3c3b"/>
        <circle id="Ellipse_28" data-name="Ellipse 28" cx="24.634" cy="24.634" r="24.634" transform="translate(10.729 29.583) rotate(-22.5)" fill="#878787"/>
        <g id="Group_1132" data-name="Group 1132" transform="translate(19.941 19.832)">
          <path id="Path_335" data-name="Path 335" d="M466.033,781.077c.056.194.118.392.178.589.213.687.534,1.725.32,1.961a.4.4,0,0,0,.591.537c.52-.574.195-1.623-.148-2.734-.06-.192-.12-.385-.174-.575-.092-.319-.26-.841-.465-1.486-.747-2.338-2.5-7.815-2.1-8.781.192-.468,3.242-.752,5.436-.507a.4.4,0,1,0,.089-.793c-.056-.006-5.648-.505-6.264,1-.421,1.029.484,4.331,2.082,9.326C465.777,780.248,465.942,780.762,466.033,781.077Z" transform="translate(-444.404 -769.203)" fill="#dadada"/>
          <path id="Path_336" data-name="Path 336" d="M450.559,782.832c3.289,1.581,12.446,4.651,15.175,5.555a6.4,6.4,0,0,0,1.97.374,2.568,2.568,0,0,0,1.471-.4,2.837,2.837,0,0,0,1.086-2.317.4.4,0,0,0-.372-.423.406.406,0,0,0-.424.372,2.1,2.1,0,0,1-.737,1.706c-.554.375-1.478.353-2.744-.067-1.061-.351-3.1-1.032-5.382-1.823a5.366,5.366,0,0,0,3.223-1.062,3,3,0,0,0,.92-3.016.4.4,0,1,0-.784.154,2.213,2.213,0,0,1-.657,2.258c-1.249,1.078-4.075,1.179-6.719.239h0c-2.3-.838-4.424-1.663-5.677-2.265-.885-.425-.868-1-.663-3.132l.027-.281c.2-2.1,6.565-6.552,10.165-7.541a.4.4,0,1,0-.212-.769c-3.2.878-10.482,5.434-10.748,8.235l-.027.28C449.247,781,449.136,782.148,450.559,782.832Z" transform="translate(-444.118 -769.227)" fill="#dadada"/>
          <path id="Path_337" data-name="Path 337" d="M467.014,786.661a1.068,1.068,0,1,0,1.068-1.068A1.069,1.069,0,0,0,467.014,786.661Zm1.337,0a.269.269,0,1,1-.269-.269A.27.27,0,0,1,468.351,786.661Z" transform="translate(-444.478 -769.537)" fill="#dadada"/>
          <path id="Path_338" data-name="Path 338" d="M444.814,789.875c.861.7,4.285.8,9.531.728.667-.008,1.2-.016,1.533-.011.2,0,.408,0,.614,0,.72,0,1.806-.008,1.97.266a.4.4,0,1,0,.685-.409c-.4-.664-1.495-.66-2.659-.654-.2,0-.4,0-.6,0-.332,0-.878,0-1.555.012-2.455.036-8.205.112-9.015-.548-.393-.321.223-3.319,1.1-5.348a.4.4,0,0,0-.734-.316C445.662,783.645,443.556,788.848,444.814,789.875Z" transform="translate(-444.017 -769.491)" fill="#dadada"/>
          <path id="Path_339" data-name="Path 339" d="M453.1,805.714c2.472-2.684,8.078-10.549,9.738-12.9.933-1.319,1.252-2.4.975-3.3a2.836,2.836,0,0,0-1.9-1.714.4.4,0,1,0-.281.746,2.106,2.106,0,0,1,1.417,1.2,3.263,3.263,0,0,1-.864,2.606c-.645.912-1.889,2.662-3.31,4.612a5.361,5.361,0,0,0-.078-3.389,3,3,0,0,0-2.618-1.759.4.4,0,1,0-.081.794,2.215,2.215,0,0,1,1.968,1.288c.677,1.533-.034,4.2-1.73,6.5l0,0c-1.47,1.952-2.88,3.746-3.822,4.769-.665.722-1.21.538-3.189-.279l-.261-.107c-1.954-.805-4.353-8.191-4.25-11.922a.4.4,0,0,0-.388-.41.394.394,0,0,0-.41.388c-.091,3.314,2.142,11.612,4.744,12.682l.26.108a7.727,7.727,0,0,0,2.61.79A1.905,1.905,0,0,0,453.1,805.714Z" transform="translate(-444.009 -769.581)" fill="#dadada"/>
          <path id="Path_340" data-name="Path 340" d="M461.5,791.377a1.068,1.068,0,1,0-.71-1.332A1.071,1.071,0,0,0,461.5,791.377Zm.054-1.1a.27.27,0,0,1,.258-.191.276.276,0,0,1,.078.012.269.269,0,1,1-.316.385A.265.265,0,0,1,461.55,790.276Z" transform="translate(-444.35 -769.612)" fill="#dadada"/>
          <path id="Path_341" data-name="Path 341" d="M461.675,802.784c.068-.19.133-.385.2-.581.228-.682.575-1.711.887-1.778a.4.4,0,0,0-.167-.782c-.756.162-1.107,1.2-1.477,2.305-.064.191-.128.382-.195.567-.112.313-.281.835-.492,1.479-.76,2.333-2.542,7.8-3.428,8.352-.43.27-3.069-1.283-4.706-2.766a.4.4,0,1,0-.536.592c.037.034,3.443,2.982,5.145,2.982a.963.963,0,0,0,.519-.13c.943-.588,2.14-3.8,3.765-8.781C461.4,803.607,461.565,803.094,461.675,802.784Z" transform="translate(-444.164 -769.823)" fill="#dadada"/>
          <path id="Path_342" data-name="Path 342" d="M466.112,796.784c-.947-1.309-1.866-1.959-2.81-1.989a2.813,2.813,0,0,0-2.236,1.244.4.4,0,1,0,.616.508,2.121,2.121,0,0,1,1.595-.953c.67.021,1.406.578,2.188,1.658.654.905,1.909,2.648,3.3,4.623a5.362,5.362,0,0,0-3.233-1.02,3,3,0,0,0-2.511,1.909.4.4,0,1,0,.726.334,2.218,2.218,0,0,1,1.854-1.448c1.669-.145,3.968,1.39,5.591,3.735h0c1.373,2.023,2.618,3.936,3.281,5.157.469.863.12,1.32-1.293,2.929l-.186.212c-1.392,1.591-9.157,1.477-12.655.174a.4.4,0,0,0-.279.748,23.494,23.494,0,0,0,7.3,1.034c2.776,0,5.352-.42,6.237-1.431l.184-.211c1.386-1.579,2.149-2.449,1.395-3.837C473.432,806.957,467.8,799.111,466.112,796.784Z" transform="translate(-444.331 -769.724)" fill="#dadada"/>
          <path id="Path_343" data-name="Path 343" d="M462.736,798.169a1.068,1.068,0,1,0-.242-1.491A1.064,1.064,0,0,0,462.736,798.169Zm.406-1.024a.266.266,0,0,1,.175-.109.22.22,0,0,1,.044,0,.27.27,0,1,1-.219.113Z" transform="translate(-444.382 -769.754)" fill="#dadada"/>
          <path id="Path_344" data-name="Path 344" d="M476.563,802c-.544-.39-.982-.705-1.243-.905-.16-.122-.326-.243-.492-.365-.581-.425-1.458-1.069-1.426-1.386a.4.4,0,0,0-.359-.436.4.4,0,0,0-.436.358c-.076.771.81,1.42,1.749,2.109.162.119.324.237.48.357.266.2.71.521,1.261.918,1.993,1.433,6.659,4.789,6.916,5.8.124.491-2.154,2.534-4.064,3.645a.4.4,0,0,0,.4.69c.049-.028,4.837-2.958,4.438-4.532C483.512,807.175,480.819,805.062,476.563,802Z" transform="translate(-444.592 -769.808)" fill="#dadada"/>
          <path id="Path_345" data-name="Path 345" d="M489.774,793.223l-.145-.241c-1.084-1.8-1.682-2.793-3.233-2.494-3.576.687-12.767,3.675-15.5,4.574-1.535.505-2.433,1.183-2.748,2.074a2.838,2.838,0,0,0,.507,2.508.4.4,0,1,0,.67-.434,2.1,2.1,0,0,1-.424-1.808c.223-.632.979-1.164,2.244-1.581,1.061-.349,3.1-1.015,5.4-1.737a5.356,5.356,0,0,0-1.951,2.769,3,3,0,0,0,1.058,2.971.4.4,0,0,0,.538-.59,2.217,2.217,0,0,1-.817-2.206c.368-1.636,2.529-3.36,5.256-4.194h0c2.345-.7,4.547-1.3,5.91-1.562.965-.186,1.293.287,2.4,2.122l.145.241c1.092,1.809-1.373,9.173-3.676,12.111a.4.4,0,1,0,.628.493C488.088,803.63,491.228,795.632,489.774,793.223Z" transform="translate(-444.499 -769.635)" fill="#dadada"/>
          <path id="Path_346" data-name="Path 346" d="M470.545,799.081a1.067,1.067,0,1,0-.859-.431A1.067,1.067,0,0,0,470.545,799.081Zm-.162-1.283a.266.266,0,0,1,.16-.054.274.274,0,0,1,.04,0,.265.265,0,0,1,.177.106.27.27,0,0,1-.056.376.279.279,0,0,1-.2.051.27.27,0,0,1-.12-.483Z" transform="translate(-444.528 -769.768)" fill="#dadada"/>
          <path id="Path_347" data-name="Path 347" d="M477.8,787.686c-.166.115-.333.236-.5.357-.584.421-1.465,1.061-1.757.931a.4.4,0,1,0-.318.732.973.973,0,0,0,.394.079,4.483,4.483,0,0,0,2.149-1.094c.163-.117.326-.236.488-.349.273-.189.714-.514,1.26-.916,1.958-1.442,6.517-4.8,7.617-4.8h.031c.505.032,1.749,2.829,2.219,4.988a.4.4,0,1,0,.78-.169c-.012-.055-1.326-5.512-2.949-5.615-1.12-.057-3.949,1.843-8.171,4.953C478.508,787.179,478.074,787.5,477.8,787.686Z" transform="translate(-444.64 -769.46)" fill="#dadada"/>
          <path id="Path_348" data-name="Path 348" d="M471.94,793.038a2.306,2.306,0,0,0,1.44.448,4.3,4.3,0,0,0,1.1-.159.4.4,0,1,0-.207-.771,2.107,2.107,0,0,1-1.851-.152,3.268,3.268,0,0,1-.814-2.622c-.006-1.117-.013-3.263.008-5.676a5.356,5.356,0,0,0,2.036,2.709,2.8,2.8,0,0,0,1.441.4,3.447,3.447,0,0,0,1.711-.5.4.4,0,0,0-.4-.694,2.213,2.213,0,0,1-2.35.1c-1.444-.853-2.42-3.439-2.375-6.29v0c.06-2.444.162-4.724.332-6.1.121-.975.67-1.142,2.756-1.629l.274-.064c2.058-.48,8.306,4.126,10.395,7.22a.4.4,0,1,0,.661-.447c-1.854-2.747-8.5-8.2-11.238-7.551l-.274.065c-2.046.478-3.173.741-3.366,2.309-.448,3.622-.429,13.28-.412,16.153C470.821,791.4,471.19,792.466,471.94,793.038Z" transform="translate(-444.555 -769.244)" fill="#dadada"/>
          <path id="Path_349" data-name="Path 349" d="M473.882,790.452a1.068,1.068,0,1,0-.476,2.026,1.085,1.085,0,0,0,.343-.057,1.068,1.068,0,0,0,.133-1.969Zm-.389,1.213a.27.27,0,0,1-.171-.511.289.289,0,0,1,.086-.014.271.271,0,0,1,.119.028.264.264,0,0,1,.135.155A.27.27,0,0,1,473.493,791.665Z" transform="translate(-444.586 -769.633)" fill="#dadada"/>
        </g>
      </g>
      <path id="Path_350" data-name="Path 350" d="M502.467,724.1c.1-3.281-4.2-5.507-7.384-4.567-2.99.883-5.145,5.293-6.265,8.074-1.494,3.71-2.569,6.618-4.184,10.327a57.141,57.141,0,0,1-3.706,6.537c-1.146,1.761-3.105,3.359-3.862,5.339-1.168,3.055,1.258,5.387,4.228,3.818,1.692-.894,2.527-2.327,4.023-3.806,1.465-1.448,6.018-5.812,7.45-7.333C497.911,737.026,502.205,732.437,502.467,724.1Z" transform="translate(-424.735 -647.163)" fill="#f5ac87"/>
      <path id="Path_351" data-name="Path 351" d="M478.851,750.6a3.577,3.577,0,0,0-2.338-.524c-1.572.234-1.658.964-3.4,1.488-.964.289-2.8-.447-4.237-.2-1.732.291-2.657,1.181-5.33,1.678a5.491,5.491,0,0,0-2.947,1.633c-.515.548-.74,1.143-.562,1.444.838,1.418,5.106-1.2,5.481-.734.633.793-4.878,4.418-5.682,6.328-.361.856-.546,1.983.672,1.889.568-.043,2.81-1.966,3.48-2.532-1.809,2.828-3.3,7.028-.985,5.733a41.271,41.271,0,0,0,3.859-5.017c-.936,2.481-2.717,6.679-.648,6.428,1.173-.141,3.967-6.092,4.088-6.266-.732,2.557-1.689,6.1.218,5.846.735-.1,1.273-1.952,1.772-3.06,1.273-2.823,2.552-3.406,5.1-3.925a3.577,3.577,0,0,0,2.151-1.928c.375-.959,1.68-2.567,1.859-3.556C481.856,752.8,480.261,751.542,478.851,750.6Z" transform="translate(-424.385 -647.789)" fill="#fff"/>
      <path id="Path_352" data-name="Path 352" d="M510.213,685.641c-.41-6.117-5.491-13.481-12.243-13.066-9.414.577-6.6,16.348-5.343,21.367.607,2.43.558,3.675,2.822,4.774a20.227,20.227,0,0,0,9.61,1.841c3.535-.154,4.218-.9,4.94-4.644A28.48,28.48,0,0,0,510.213,685.641Z" transform="translate(-425.03 -646.21)" fill="url(#linear-gradient-11)"/>
    </g>
  </g>
</svg>
