<svg id="Group_962" data-name="Group 962" xmlns="http://www.w3.org/2000/svg" width="35.824" height="27.262" viewBox="0 0 35.824 27.262">
  <path id="Path_150" data-name="Path 150" d="M31.45,57.75H4.381A4.384,4.384,0,0,0,0,62.131v18.5a4.384,4.384,0,0,0,4.381,4.381H31.443a4.384,4.384,0,0,0,4.381-4.381V62.138A4.38,4.38,0,0,0,31.45,57.75ZM33.83,80.632a2.382,2.382,0,0,1-2.379,2.379H4.381A2.382,2.382,0,0,1,2,80.632V62.138a2.382,2.382,0,0,1,2.379-2.379H31.443a2.382,2.382,0,0,1,2.379,2.379V80.632Z" transform="translate(0 -57.75)" fill="#fff"/>
  <path id="Path_151" data-name="Path 151" d="M74.007,118.375l8.664-7.745a.99.99,0,1,0-1.327-1.469L69.4,119.851l-2.331-2.075c-.007-.007-.015-.015-.015-.022a1.463,1.463,0,0,0-.161-.139l-9.485-8.461a.99.99,0,1,0-1.319,1.476l8.767,7.811-8.73,8.147a.988.988,0,0,0-.044,1.4,1.014,1.014,0,0,0,.726.314.993.993,0,0,0,.674-.263l8.862-8.264,2.4,2.141a.989.989,0,0,0,1.319-.007l2.47-2.207,8.811,8.344a.989.989,0,1,0,1.363-1.432Z" transform="translate(-51.466 -104.97)" fill="#fff"/>
</svg>
