<svg id="Component_1_1" data-name="Component 1 – 1" xmlns="http://www.w3.org/2000/svg" xmlns:xlink="http://www.w3.org/1999/xlink" width="73.252" height="52.323" viewBox="0 0 73.252 52.323">
  <defs>
    <linearGradient id="linear-gradient" x1="0.5" y1="4.205" x2="0.5" y2="-2.495" gradientUnits="objectBoundingBox">
      <stop offset="0" stop-color="#273a9b"/>
      <stop offset="0.56" stop-color="#202f65"/>
      <stop offset="1" stop-color="#021e2f"/>
    </linearGradient>
    <linearGradient id="linear-gradient-2" x1="0.5" y1="1.605" x2="0.5" y2="1.12" xlink:href="#linear-gradient"/>
    <linearGradient id="linear-gradient-3" x1="0.5" y1="2.716" x2="0.5" y2="-1.382" gradientUnits="objectBoundingBox">
      <stop offset="0" stop-color="#f3c57a"/>
      <stop offset="0.494" stop-color="#f39369"/>
      <stop offset="1" stop-color="#e94867"/>
    </linearGradient>
    <linearGradient id="linear-gradient-4" x1="0.5" y1="4.205" x2="0.5" y2="-2.494" xlink:href="#linear-gradient-3"/>
    <linearGradient id="linear-gradient-5" x1="0.5" y1="2.069" x2="0.5" y2="-1.458" xlink:href="#linear-gradient-3"/>
    <linearGradient id="linear-gradient-6" x1="0.5" y1="1.828" x2="0.5" y2="-0.503" xlink:href="#linear-gradient"/>
    <linearGradient id="linear-gradient-7" x1="0.5" y1="1.828" x2="0.5" y2="-0.503" gradientUnits="objectBoundingBox">
      <stop offset="0" stop-color="#fff"/>
      <stop offset="0.516" stop-color="#cce2e6"/>
      <stop offset="1" stop-color="#8fa1bb"/>
    </linearGradient>
    <linearGradient id="linear-gradient-9" y1="1.828" y2="-0.503" xlink:href="#linear-gradient-7"/>
    <linearGradient id="linear-gradient-10" x1="0.5" y1="2.716" x2="0.5" y2="-1.382" xlink:href="#linear-gradient"/>
    <linearGradient id="linear-gradient-12" x1="3.528" y1="0.5" x2="-0.778" y2="0.5" xlink:href="#linear-gradient-3"/>
    <linearGradient id="linear-gradient-13" x1="1.694" y1="0.5" x2="-5.011" y2="0.5" xlink:href="#linear-gradient-3"/>
  </defs>
  <g id="Group_1085" data-name="Group 1085">
    <path id="Rectangle_593" data-name="Rectangle 593" d="M0,0H3.808a0,0,0,0,1,0,0V8.575a0,0,0,0,1,0,0H1.047A1.047,1.047,0,0,1,0,7.529V0A0,0,0,0,1,0,0Z" transform="translate(0.116 33.283)" fill="url(#linear-gradient)"/>
    <path id="Path_211" data-name="Path 211" d="M-260.392,262.5a6.983,6.983,0,0,0-6.983,6.976v.073a40,40,0,0,0,2.342,13.545,4.485,4.485,0,0,0,4.226,2.951h60.116a4.485,4.485,0,0,0,4.226-2.951,40,40,0,0,0,2.342-13.545,39.7,39.7,0,0,0-.223-4.2,3.206,3.206,0,0,0-3.2-2.85Z" transform="translate(267.375 -238.955)" fill="url(#linear-gradient-2)"/>
    <path id="Path_212" data-name="Path 212" d="M-194.346,275.4a3.206,3.206,0,0,0-3.2-2.85h-12.251a2.855,2.855,0,0,1-2.665-1.831l-6.561-17.1A7.2,7.2,0,0,0-225.742,249h-14.8a16.392,16.392,0,0,0-15.477,11l-3.207,9.2a6,6,0,0,1-3.518,3.755,6.99,6.99,0,0,0-4.631,6.568v.073a40,40,0,0,0,2.342,13.545,4.485,4.485,0,0,0,4.226,2.951h3.91v-2.6h15.669v1.381a1.222,1.222,0,0,0,1.221,1.221h21.2a1.221,1.221,0,0,0,1.221-1.221v-1.381h15.671v1.381a1.21,1.21,0,0,0,1.165,1.221,4.487,4.487,0,0,0,4.282-2.951,40.043,40.043,0,0,0,2.342-13.545A39.7,39.7,0,0,0-194.346,275.4Z" transform="translate(267.375 -249)" fill="url(#linear-gradient-3)"/>
    <path id="Path_213" data-name="Path 213" d="M-267.308,268.083a39.859,39.859,0,0,0,2.225,10.857,4.487,4.487,0,0,0,4.226,2.951h3.91v-2.6h15.669v1.381a1.222,1.222,0,0,0,1.221,1.221h21.2a1.221,1.221,0,0,0,1.221-1.221v-1.381h15.671v1.381a1.21,1.21,0,0,0,1.165,1.221,4.487,4.487,0,0,0,4.282-2.951,39.855,39.855,0,0,0,2.225-10.857Z" transform="translate(267.425 -234.8)" fill="url(#linear-gradient-4)"/>
    <path id="Path_214" data-name="Path 214" d="M-262.744,275.57a6,6,0,0,0,3.518-3.755l3.207-9.2a16.392,16.392,0,0,1,15.477-11h14.8a7.2,7.2,0,0,1,6.722,4.618l7.6,17.1c.424,1.1.443,1.831,1.626,1.831h12.251a3.206,3.206,0,0,1,3.2,2.85c.091.851.145,1.714.18,2.581.009-.333.044-.661.044-1a39.7,39.7,0,0,0-.223-4.2,3.206,3.206,0,0,0-3.2-2.85h-12.251a2.855,2.855,0,0,1-2.665-1.831l-6.561-17.1A7.2,7.2,0,0,0-225.742,249h-14.8a16.392,16.392,0,0,0-15.477,11l-3.207,9.2a6,6,0,0,1-3.518,3.755,6.99,6.99,0,0,0-4.631,6.568v.073c0,.558.049,1.1.071,1.655A6.983,6.983,0,0,1-262.744,275.57Z" transform="translate(267.375 -249)" fill="url(#linear-gradient-5)"/>
    <g id="Group_1082" data-name="Group 1082" transform="translate(10.478 36.653)">
      <circle id="Ellipse_10" data-name="Ellipse 10" cx="7.835" cy="7.835" r="7.835" fill="url(#linear-gradient-6)"/>
      <circle id="Ellipse_11" data-name="Ellipse 11" cx="2.623" cy="2.623" r="2.623" transform="translate(5.212 5.177)" fill="url(#linear-gradient-7)"/>
    </g>
    <g id="Group_1083" data-name="Group 1083" transform="translate(49.793 36.653)">
      <circle id="Ellipse_12" data-name="Ellipse 12" cx="7.835" cy="7.835" r="7.835" fill="url(#linear-gradient-6)"/>
      <path id="Path_215" data-name="Path 215" d="M-230.591,275.607a2.623,2.623,0,0,1-2.623,2.623,2.622,2.622,0,0,1-2.623-2.623,2.622,2.622,0,0,1,2.623-2.623A2.623,2.623,0,0,1-230.591,275.607Z" transform="translate(241.049 -267.807)" fill="url(#linear-gradient-9)"/>
    </g>
    <g id="Group_1084" data-name="Group 1084" transform="translate(18.313 7.848)">
      <path id="Path_216" data-name="Path 216" d="M-239.918,267.271a3,3,0,0,0,2.8,1.925h10.47a2.855,2.855,0,0,1-2.665-1.831l-5.321-13.866h-9.041a1.052,1.052,0,0,0-.984,1.428Z" transform="translate(265.914 -253.5)" fill="url(#linear-gradient-10)"/>
      <path id="Path_217" data-name="Path 217" d="M-240.262,253.5h-10.175a6.437,6.437,0,0,0-6.437,6.437v6.582A2.677,2.677,0,0,0-254.2,269.2h19.091a1.132,1.132,0,0,0,1.057-1.538l-5.156-13.433A1.132,1.132,0,0,0-240.262,253.5Z" transform="translate(256.875 -253.5)" fill="url(#linear-gradient-10)"/>
    </g>
    <path id="Path_218" data-name="Path 218" d="M-224.451,273.348h.828a40.392,40.392,0,0,0,.48-6.031c0-.61-.021-1.216-.049-1.817h-1.259a3.923,3.923,0,0,0-3.924,3.924h0A3.923,3.923,0,0,0-224.451,273.348Z" transform="translate(296.395 -236.722)" fill="url(#linear-gradient-12)"/>
  </g>
  <path id="Path_219" data-name="Path 219" d="M-224.759,271.482h.553a27.01,27.01,0,0,0,.319-4.022c0-.406-.014-.809-.033-1.21h-.839a2.617,2.617,0,0,0-2.616,2.616h0A2.617,2.617,0,0,0-224.759,271.482Z" transform="translate(297.139 -236.164)" fill="url(#linear-gradient-13)"/>
</svg>
