<svg xmlns="http://www.w3.org/2000/svg" width="31.708" height="31.709" viewBox="0 0 31.708 31.709">
  <g id="phone-call" transform="translate(-0.002)">
    <g id="Group_964" data-name="Group 964" transform="translate(0.002 0.647)">
      <g id="Group_963" data-name="Group 963" transform="translate(0)">
        <path id="Path_152" data-name="Path 152" d="M30.506,34.607l-6.213-6.213a1.9,1.9,0,0,0-2.69,0L19.988,30.01a1.9,1.9,0,0,0-.481,1.873l-.61.61h0c-.433.433-3.129-.232-6.388-3.491s-3.924-5.954-3.491-6.388h0l.61-.61a1.9,1.9,0,0,0,1.873-.481l1.616-1.616a1.9,1.9,0,0,0,0-2.69L6.9,11a1.9,1.9,0,0,0-2.69,0L2.6,12.62a1.9,1.9,0,0,0-.481,1.873s-.517.522-.542.555c-1.719,1.911-2.041,4.918-.9,8.515a27.1,27.1,0,0,0,6.773,10.5,27.106,27.106,0,0,0,10.5,6.773,13.145,13.145,0,0,0,3.939.67,6.551,6.551,0,0,0,4.79-1.775l.339-.339a1.909,1.909,0,0,0,.528.075,1.89,1.89,0,0,0,1.345-.557L30.506,37.3A1.9,1.9,0,0,0,30.506,34.607ZM5.558,12.349l6.213,6.213-1.615,1.617h0l-.023-.023L7.049,17.071,3.943,13.965Zm19.775,26.04h0c-1.368,1.368-3.787,1.594-6.81.636a25.188,25.188,0,0,1-9.733-6.3,25.186,25.186,0,0,1-6.3-9.733c-.958-3.023-.732-5.442.636-6.81h0l.172-.172,4.822,4.822-.442.442h0c-1.832,1.835.369,5.954,3.492,9.077,2.337,2.337,5.233,4.158,7.311,4.158a2.4,2.4,0,0,0,1.767-.667h0l.442-.442,4.822,4.822Zm2.212-.821-6.213-6.213,1.616-1.616,6.213,6.213S27.546,37.568,27.546,37.568Z" transform="translate(-0.002 -10.447)" fill="#4da6ff"/>
      </g>
    </g>
    <g id="Group_966" data-name="Group 966" transform="translate(16.359 4.824)">
      <g id="Group_965" data-name="Group 965">
        <path id="Path_153" data-name="Path 153" d="M271.841,80.7a9.514,9.514,0,0,0-6.772-2.805.951.951,0,0,0,0,1.9,7.675,7.675,0,0,1,7.675,7.675.951.951,0,0,0,1.9,0A9.515,9.515,0,0,0,271.841,80.7Z" transform="translate(-264.118 -77.891)" fill="#4da6ff"/>
      </g>
    </g>
    <g id="Group_968" data-name="Group 968" transform="translate(16.359)">
      <g id="Group_967" data-name="Group 967">
        <path id="Path_154" data-name="Path 154" d="M275.246,4.218A14.307,14.307,0,0,0,265.063,0a.951.951,0,0,0,0,1.9,12.5,12.5,0,0,1,12.5,12.5.951.951,0,0,0,1.9,0A14.306,14.306,0,0,0,275.246,4.218Z" transform="translate(-264.112 0)" fill="#4da6ff"/>
      </g>
    </g>
    <g id="Group_970" data-name="Group 970" transform="translate(16.359 9.648)">
      <g id="Group_969" data-name="Group 969">
        <path id="Path_155" data-name="Path 155" d="M268.432,157.175a4.658,4.658,0,0,0-3.36-1.392h0a.951.951,0,0,0,0,1.9h0a2.758,2.758,0,0,1,2.015.835,2.794,2.794,0,0,1,.835,2.015.951.951,0,0,0,.951.951h0a.951.951,0,0,0,.951-.951A4.659,4.659,0,0,0,268.432,157.175Z" transform="translate(-264.121 -155.783)" fill="#4da6ff"/>
      </g>
    </g>
  </g>
</svg>
