<svg xmlns="http://www.w3.org/2000/svg" width="36.5" height="35.301" viewBox="0 0 36.5 35.301">
  <path id="Path_142" data-name="Path 142" d="M27.678,7.549,10.685,1.28a1.259,1.259,0,0,0-.871,0L-7.177,7.549l-.28.1-.012.05A1.259,1.259,0,0,0-8,8.73V28.9a1.263,1.263,0,0,0,.822,1.18l16.992,6.27a1.252,1.252,0,0,0,.414.077l.049.073,17.4-6.42A1.263,1.263,0,0,0,28.5,28.9V8.73A1.263,1.263,0,0,0,27.678,7.549ZM-.9,18.578V12.226l5.1,1.881v6.352Zm-1.694,2.057,7.615,2.81a1.258,1.258,0,0,0,1.694-1.18V15.036l2.278.841v17.49L-5.484,28.025V10.535l2.067.763v8.157A1.263,1.263,0,0,0-2.595,20.635Zm.428-10.969h0l.191-.519L-3.108,8.73,10.25,3.8,23.608,8.73,10.25,13.659-1.975,9.148Zm13.675,23.7V15.876l14.476-5.341v17.49Z" transform="translate(8 -1.202)" fill="#4da6ff"/>
</svg>
