<svg xmlns="http://www.w3.org/2000/svg" width="35.824" height="23.449" viewBox="0 0 35.824 23.449">
  <g id="sedan-car-front" transform="translate(0 -8.463)">
    <path id="Path_402" data-name="Path 402" d="M33.6,15.949a1.069,1.069,0,0,0-.073-.082l-1.255-1.212c1.041-.236,2.162-1.108,2.162-2,0-1.043-1.447-1.413-2.682-1.413-1.291,0-1.441.885-1.456,1.51L27.061,9.627a4.571,4.571,0,0,0-2.839-1.164H11.6A4.573,4.573,0,0,0,8.764,9.627L5.525,12.75c-.017-.625-.167-1.51-1.456-1.51-1.236,0-2.683.37-2.683,1.413,0,.895,1.122,1.767,2.163,2L2.294,15.867c-.029.027-.048.054-.073.082A7.032,7.032,0,0,0,0,20.771v4.591a4.188,4.188,0,0,0,1.149,2.879v1.78a1.92,1.92,0,0,0,1.943,1.89h2.35a1.918,1.918,0,0,0,1.943-1.89v-.456H28.439v.456a1.918,1.918,0,0,0,1.943,1.89h2.349a1.919,1.919,0,0,0,1.943-1.89v-1.78a4.184,4.184,0,0,0,1.149-2.879V20.771A7.024,7.024,0,0,0,33.6,15.949ZM9.953,11.015a3.239,3.239,0,0,1,1.649-.668H24.223a3.239,3.239,0,0,1,1.649.668l4.247,4.116H5.707Zm-8.5,9.062a2.014,2.014,0,0,1,1.977-2.048c1.092,0,4.659,2.094,4.659,3.224s-3.567.869-4.659.869A2.011,2.011,0,0,1,1.457,20.077Zm5.929,7.477H6.633l-2.234,0a4.247,4.247,0,0,1-1.367-.66,1.938,1.938,0,0,1-.37-.376,1.47,1.47,0,0,1-.208-.379,1.727,1.727,0,0,1,.3-1.507H6.564l2.541,2.917Zm16.008,0H12.431a2.071,2.071,0,0,1-2.071-2.07h15.1A2.071,2.071,0,0,1,23.394,27.555Zm.481-3.482H11.95c-1.243,0-2.252-1.533-2.252-3.423H26.127C26.127,22.541,25.118,24.072,23.875,24.072Zm9.5,2.071a1.481,1.481,0,0,1-.208.379,1.9,1.9,0,0,1-.37.376,4.209,4.209,0,0,1-1.367.66l-2.234,0H26.719l2.543-2.917h3.812A1.724,1.724,0,0,1,33.371,26.143Zm-.98-4.021c-1.091,0-4.658.26-4.658-.869s3.567-3.224,4.658-3.224a2.048,2.048,0,0,1,0,4.093Z" transform="translate(0)" fill="#fdfdfd"/>
  </g>
</svg>
