<svg xmlns="http://www.w3.org/2000/svg" width="32.421" height="32.737" viewBox="0 0 32.421 32.737">
  <path id="shopping-cart_2_" data-name="shopping-cart (2)" d="M31.646,6.212A3.182,3.182,0,0,0,29.21,5.136H5.908L5.674,3.378C5.421,1.484,4.1,0,2.671,0H.959a.959.959,0,0,0,0,1.918H2.671c.308,0,.959.651,1.1,1.713L6.518,24.223a3.878,3.878,0,0,0,1.313,2.393,3.964,3.964,0,0,0,1.841.916,3.528,3.528,0,1,0,6.239.069h5.026a3.527,3.527,0,1,0,6.275,0h2.513a.959.959,0,1,0,0-1.918H10.376a2.059,2.059,0,0,1-1.957-1.714l-.2-1.5H27.155a3.982,3.982,0,0,0,3.858-3.378L32.389,8.768A3.182,3.182,0,0,0,31.646,6.212Zm-17.263,23A1.609,1.609,0,1,1,12.773,27.6,1.611,1.611,0,0,1,14.382,29.21Zm11.3,0A1.609,1.609,0,1,1,24.073,27.6,1.611,1.611,0,0,1,25.683,29.21ZM30.2,7.475a1.289,1.289,0,0,1,.285,1.039l-.577,4.327H23.385l.386-5.787H29.21A1.29,1.29,0,0,1,30.2,7.475ZM16.582,20.546,16.2,14.759h5.139l-.386,5.787Zm-.514-7.7-.386-5.787h6.166l-.386,5.787ZM13.76,7.055l.386,5.787H6.935L6.164,7.055Zm-6.569,7.7h7.083l.386,5.787h-6.7Zm19.964,5.787H22.871l.386-5.787h6.4l-.543,4.073A2.059,2.059,0,0,1,27.155,20.546Zm0,0" fill="#fff"/>
</svg>
