<svg
  id="store"
  height="32.186"
  viewBox="0 0 34.341 32.186"
  width="34.341"
  xmlns="http://www.w3.org/2000/svg"
>
  <path
    id="Path_136"
    d="M287.562,288.52h-5.388a1.006,1.006,0,0,0-1.006,1.006v5.434a1.006,1.006,0,0,0,1.006,1.006h5.388a1.006,1.006,0,0,0,1.006-1.006v-5.434A1.006,1.006,0,0,0,287.562,288.52Zm-1.006,5.434H283.18v-3.422h3.376Zm0,0"
    data-name="Path 136"
    fill="#fff"
    transform="translate(-262.309 -269.168)"
  />
  <path
    id="Path_137"
    d="M34.3,8.273,32.887,3.32A4.782,4.782,0,0,0,28.486,0H5.855a4.782,4.782,0,0,0-4.4,3.32L.039,8.273A1.006,1.006,0,0,0,0,8.55v3.233a4.245,4.245,0,0,0,2.694,3.947V28.486a3.7,3.7,0,0,0,3.7,3.7H27.947a3.7,3.7,0,0,0,3.7-3.7V15.729a4.245,4.245,0,0,0,2.694-3.947V8.55A1.006,1.006,0,0,0,34.3,8.273ZM3.389,3.873A2.8,2.8,0,0,1,5.855,2.012h22.63a2.8,2.8,0,0,1,2.467,1.861L32,7.544H2.34ZM8.478,9.556h4.454v2.226a2.227,2.227,0,1,1-4.454,0Zm6.466,0H19.4v2.226a2.227,2.227,0,1,1-4.454,0Zm6.466,0h4.454v2.226a2.227,2.227,0,1,1-4.454,0Zm-19.4,2.226V9.556H6.466v2.226a2.227,2.227,0,1,1-4.454,0Zm8.082,18.391V24.1h3.376v6.07Zm17.853,0H15.483V23.1a1.006,1.006,0,0,0-1.006-1.006H9.088A1.006,1.006,0,0,0,8.082,23.1v7.076H6.394a1.69,1.69,0,0,1-1.688-1.688V16A4.234,4.234,0,0,0,7.472,14.52a4.231,4.231,0,0,0,6.466,0,4.231,4.231,0,0,0,6.466,0,4.231,4.231,0,0,0,6.466,0A4.235,4.235,0,0,0,29.635,16v12.49A1.69,1.69,0,0,1,27.947,30.174ZM30.1,14.009a2.229,2.229,0,0,1-2.227-2.227V9.556h4.454v2.227A2.229,2.229,0,0,1,30.1,14.009Zm0,0"
    data-name="Path 137"
    fill="#fff"
  />
</svg>
