<svg xmlns="http://www.w3.org/2000/svg" xmlns:xlink="http://www.w3.org/1999/xlink" width="888" height="689.313" viewBox="0 0 888 689.313">
  <defs>
    <linearGradient id="linear-gradient" x1="0.5" y1="4.205" x2="0.5" y2="-2.495" gradientUnits="objectBoundingBox">
      <stop offset="0" stop-color="#273a9b"/>
      <stop offset="0.56" stop-color="#202f65"/>
      <stop offset="1" stop-color="#021e2f"/>
    </linearGradient>
    <linearGradient id="linear-gradient-2" x1="0.5" y1="1.605" x2="0.5" y2="1.12" xlink:href="#linear-gradient"/>
    <linearGradient id="linear-gradient-3" x1="0.5" y1="2.716" x2="0.5" y2="-1.382" gradientUnits="objectBoundingBox">
      <stop offset="0" stop-color="#f3c57a"/>
      <stop offset="0.494" stop-color="#f39369"/>
      <stop offset="1" stop-color="#e94867"/>
    </linearGradient>
    <linearGradient id="linear-gradient-4" x1="0.5" y1="4.205" x2="0.5" y2="-2.494" xlink:href="#linear-gradient-3"/>
    <linearGradient id="linear-gradient-5" x1="0.5" y1="2.069" x2="0.5" y2="-1.458" xlink:href="#linear-gradient-3"/>
    <linearGradient id="linear-gradient-6" x1="0.5" y1="1.828" x2="0.5" y2="-0.503" xlink:href="#linear-gradient"/>
    <linearGradient id="linear-gradient-7" x1="0.5" y1="1.828" x2="0.5" y2="-0.503" gradientUnits="objectBoundingBox">
      <stop offset="0" stop-color="#fff"/>
      <stop offset="0.516" stop-color="#cce2e6"/>
      <stop offset="1" stop-color="#8fa1bb"/>
    </linearGradient>
    <linearGradient id="linear-gradient-9" y1="1.828" y2="-0.503" xlink:href="#linear-gradient-7"/>
    <linearGradient id="linear-gradient-10" x1="0.5" y1="2.716" x2="0.5" y2="-1.382" xlink:href="#linear-gradient"/>
    <linearGradient id="linear-gradient-12" x1="3.528" y1="0.5" x2="-0.778" y2="0.5" xlink:href="#linear-gradient-3"/>
    <linearGradient id="linear-gradient-13" x1="1.694" y1="0.5" x2="-5.011" y2="0.5" xlink:href="#linear-gradient-3"/>
    <linearGradient id="linear-gradient-14" x1="-0.878" y1="1.792" x2="1.028" y2="-0.076" xlink:href="#linear-gradient-3"/>
    <linearGradient id="linear-gradient-15" x1="0.5" y1="4.205" x2="0.5" y2="-2.495" xlink:href="#linear-gradient"/>
    <linearGradient id="linear-gradient-16" x1="0.5" y1="1.605" x2="0.5" y2="1.12" xlink:href="#linear-gradient"/>
    <linearGradient id="linear-gradient-23" y1="1.828" y2="-0.503" xlink:href="#linear-gradient-7"/>
    <linearGradient id="linear-gradient-24" x1="0.5" y1="2.716" x2="0.5" y2="-1.382" xlink:href="#linear-gradient"/>
    <linearGradient id="linear-gradient-26" x1="-2.528" y1="0.5" x2="1.777" y2="0.5" xlink:href="#linear-gradient-3"/>
    <linearGradient id="linear-gradient-27" x1="-0.695" y1="0.5" x2="6.01" y2="0.5" xlink:href="#linear-gradient-3"/>
    <linearGradient id="linear-gradient-39" x1="3.528" y1="0.5" x2="-0.777" y2="0.5" xlink:href="#linear-gradient-3"/>
    <linearGradient id="linear-gradient-40" x1="1.695" y1="0.5" x2="-5.01" y2="0.5" xlink:href="#linear-gradient-3"/>
    <linearGradient id="linear-gradient-41" x1="0.5" y1="0.792" x2="0.5" y2="-0.244" xlink:href="#linear-gradient"/>
    <linearGradient id="linear-gradient-42" x1="0.5" y1="0.542" x2="0.5" y2="-0.808" xlink:href="#linear-gradient"/>
    <linearGradient id="linear-gradient-43" x1="0.5" y1="0.853" x2="0.5" y2="0.133" xlink:href="#linear-gradient"/>
    <linearGradient id="linear-gradient-44" x1="0.5" y1="6.265" x2="0.5" y2="-4.976" gradientUnits="objectBoundingBox">
      <stop offset="0" stop-color="#fff"/>
      <stop offset="0.406" stop-color="#cce2e6"/>
      <stop offset="1" stop-color="#8fa1bb"/>
    </linearGradient>
    <linearGradient id="linear-gradient-45" x1="0.5" y1="1.725" x2="0.5" y2="-0.6" xlink:href="#linear-gradient-44"/>
    <linearGradient id="linear-gradient-46" x1="0.5" y1="10.051" x2="0.5" y2="-12.572" xlink:href="#linear-gradient-44"/>
    <linearGradient id="linear-gradient-47" x1="0.5" y1="-5.622" x2="0.5" y2="-28.245" xlink:href="#linear-gradient-44"/>
    <linearGradient id="linear-gradient-48" x1="0.5" y1="2.214" x2="0.5" y2="-20.408" xlink:href="#linear-gradient-44"/>
  </defs>
  <g id="Group_1102" data-name="Group 1102" transform="translate(-537.141 -1661)">
    <g id="Group_992" data-name="Group 992" transform="translate(537.141 1661)">
      <g id="Group_985" data-name="Group 985" transform="translate(0)">
        <text id="Fusce_sed_scelerisque_lorem." data-name="Fusce sed scelerisque lorem." transform="translate(87 15)" fill="#7c7c7c" font-size="15" font-family="Roboto-Bold, Roboto" font-weight="700"><tspan x="0" y="0">Fusce sed scelerisque lorem.</tspan></text>
        <text id="Fusce_sed_scelerisque_lorem.-2" data-name="Fusce sed scelerisque lorem." transform="translate(87 482)" fill="#7c7c7c" font-size="15" font-family="Roboto-Bold, Roboto" font-weight="700"><tspan x="0" y="0">Fusce sed scelerisque lorem.</tspan></text>
        <text id="Fusce_sed_scelerisque_lorem.-3" data-name="Fusce sed scelerisque lorem." transform="translate(809 232)" fill="#7c7c7c" font-size="15" font-family="Roboto-Bold, Roboto" font-weight="700"><tspan x="-194.927" y="0">Fusce sed scelerisque lorem.</tspan></text>
        <g id="Group_984" data-name="Group 984">
          <circle id="Ellipse_1" data-name="Ellipse 1" cx="34.5" cy="34.5" r="34.5" fill="#e05353"/>
          <text id="_1" data-name="1" transform="translate(27 43)" fill="#fff" font-size="27" font-family="Roboto-Bold, Roboto" font-weight="700"><tspan x="0" y="0">1</tspan></text>
        </g>
        <g id="Group_990" data-name="Group 990" transform="translate(0 474)">
          <circle id="Ellipse_1-2" data-name="Ellipse 1" cx="34.5" cy="34.5" r="34.5" fill="#79cc6e"/>
          <text id="_3" data-name="3" transform="translate(27 43)" fill="#fff" font-size="27" font-family="Roboto-Bold, Roboto" font-weight="700"><tspan x="0" y="0">3</tspan></text>
        </g>
        <g id="Group_987" data-name="Group 987" transform="translate(819 232)">
          <circle id="Ellipse_1-3" data-name="Ellipse 1" cx="34.5" cy="34.5" r="34.5" fill="#4da6ff"/>
          <text id="_2" data-name="2" transform="translate(27 43)" fill="#fff" font-size="27" font-family="Roboto-Bold, Roboto" font-weight="700"><tspan x="0" y="0">2</tspan></text>
        </g>
        <g id="Group_978" data-name="Group 978" transform="translate(87 30)">
          <text id="Maecenas_eu_lectus_a_Leo_viverra_hendrerit_id_a_enim._Vestibulum_sed_tincidunt_lectus._Integer_sit_amet_accumsan_lacus_non_luctus_velit._Vivamus_ut_leo_egestas_pharetra_risus_sed_fermentum_lorem._" data-name="Maecenas eu lectus a Leo viverra hendrerit id a enim. Vestibulum sed tincidunt lectus. Integer sit amet accumsan lacus, non luctus velit. Vivamus ut leo egestas, pharetra risus sed, fermentum lorem. " fill="#7c7c7c" font-size="14" font-family="Roboto-Regular, Roboto"><tspan x="0" y="13">Maecenas eu lectus a Leo viverra hendrerit id a enim. Vestibulum sed tincidunt lectus. Integer sit amet accumsan lacus, non </tspan><tspan x="0" y="37">luctus velit. Vivamus ut leo egestas, pharetra risus sed, fermentum lorem. </tspan></text>
        </g>
        <g id="Group_991" data-name="Group 991" transform="translate(87 497)">
          <text id="Maecenas_eu_lectus_a_Leo_viverra_hendrerit_id_a_enim._Vestibulum_sed_tincidunt_lectus._Integer_sit_amet_accumsan_lacus_non_luctus_velit._Vivamus_ut_leo_egestas_pharetra_risus_sed_fermentum_lorem._2" data-name="Maecenas eu lectus a Leo viverra hendrerit id a enim. Vestibulum sed tincidunt lectus. Integer sit amet accumsan lacus, non luctus velit. Vivamus ut leo egestas, pharetra risus sed, fermentum lorem. " fill="#7c7c7c" font-size="14" font-family="Roboto-Regular, Roboto"><tspan x="0" y="13">Maecenas eu lectus a Leo viverra hendrerit id a enim. Vestibulum sed tincidunt lectus. Integer sit amet accumsan lacus, non </tspan><tspan x="0" y="37">luctus velit. Vivamus ut leo egestas, pharetra risus sed, fermentum lorem. </tspan></text>
        </g>
        <g id="Group_988" data-name="Group 988" transform="translate(24 247)">
          <text id="Maecenas_eu_lectus_a_Leo_viverra_hendrerit_id_a_enim._Vestibulum_sed_tincidunt_lectus._Integer_sit_amet_accumsan_lacus_non_luctus_velit._Vivamus_ut_leo_egestas_pharetra_risus_sed_fermentum_lorem._3" data-name="Maecenas eu lectus a Leo viverra hendrerit id a enim. Vestibulum sed tincidunt lectus. Integer sit amet accumsan lacus, non luctus velit. Vivamus ut leo egestas, pharetra risus sed, fermentum lorem. " fill="#7c7c7c" font-size="14" font-family="Roboto-Regular, Roboto"><tspan x="10.281" y="13">Maecenas eu lectus a Leo viverra hendrerit id a enim. Vestibulum sed tincidunt lectus. Integer sit amet accumsan lacus, non </tspan><tspan x="326.211" y="37">luctus velit. Vivamus ut leo egestas, pharetra risus sed, fermentum lorem. </tspan></text>
        </g>
      </g>
      <g id="Group_986" data-name="Group 986" transform="translate(35.834 86.885)">
        <path id="Path_164" data-name="Path 164" d="M0,.046H396.978s65.72-4.12,65.72,65.72" transform="translate(462.698 65.766) rotate(180)" fill="none" stroke="#c7c7c7" stroke-width="2" stroke-dasharray="5"/>
        <path id="Path_220" data-name="Path 220" d="M0,.046H545.161s65.72-4.12,65.72,65.72" transform="translate(610.881 538.766) rotate(180)" fill="none" stroke="#c7c7c7" stroke-width="2" stroke-dasharray="5"/>
        <path id="Path_165" data-name="Path 165" d="M-103.387-2825.331l302.092.261s65.72-4.12,65.72,65.72" transform="translate(550.606 2891.115)" fill="none" stroke="#c7c7c7" stroke-width="2" stroke-dasharray="5"/>
      </g>
      <g id="Group_989" data-name="Group 989" transform="translate(35.834 318.885)">
        <path id="Path_164-2" data-name="Path 164" d="M96.771,65.72H396.978S462.7,69.84,462.7,0" transform="translate(352.333)" fill="none" stroke="#c7c7c7" stroke-width="2" stroke-dasharray="5"/>
        <path id="Path_165-2" data-name="Path 165" d="M264.425-2825.069H-132.553s-65.72-4.12-65.72,65.72" transform="translate(198.273 2891.115)" fill="none" stroke="#c7c7c7" stroke-width="2" stroke-dasharray="5"/>
      </g>
    </g>
    <g id="Group_1086" data-name="Group 1086" transform="translate(800.796 1761.526)">
      <g id="Group_1085" data-name="Group 1085">
        <path id="Rectangle_593" data-name="Rectangle 593" d="M0,0H3.808a0,0,0,0,1,0,0V8.575a0,0,0,0,1,0,0H1.047A1.047,1.047,0,0,1,0,7.529V0A0,0,0,0,1,0,0Z" transform="translate(0.116 33.283)" fill="url(#linear-gradient)"/>
        <path id="Path_211" data-name="Path 211" d="M-260.392,262.5a6.983,6.983,0,0,0-6.983,6.976v.073a40,40,0,0,0,2.342,13.545,4.485,4.485,0,0,0,4.226,2.951h60.116a4.485,4.485,0,0,0,4.226-2.951,40,40,0,0,0,2.342-13.545,39.7,39.7,0,0,0-.223-4.2,3.206,3.206,0,0,0-3.2-2.85Z" transform="translate(267.375 -238.955)" fill="url(#linear-gradient-2)"/>
        <path id="Path_212" data-name="Path 212" d="M-194.346,275.4a3.206,3.206,0,0,0-3.2-2.85h-12.251a2.855,2.855,0,0,1-2.665-1.831l-6.561-17.1A7.2,7.2,0,0,0-225.742,249h-14.8a16.392,16.392,0,0,0-15.477,11l-3.207,9.2a6,6,0,0,1-3.518,3.755,6.99,6.99,0,0,0-4.631,6.568v.073a40,40,0,0,0,2.342,13.545,4.485,4.485,0,0,0,4.226,2.951h3.91v-2.6h15.669v1.381a1.222,1.222,0,0,0,1.221,1.221h21.2a1.221,1.221,0,0,0,1.221-1.221v-1.381h15.671v1.381a1.21,1.21,0,0,0,1.165,1.221,4.487,4.487,0,0,0,4.282-2.951,40.043,40.043,0,0,0,2.342-13.545A39.7,39.7,0,0,0-194.346,275.4Z" transform="translate(267.375 -249)" fill="url(#linear-gradient-3)"/>
        <path id="Path_213" data-name="Path 213" d="M-267.308,268.083a39.859,39.859,0,0,0,2.225,10.857,4.487,4.487,0,0,0,4.226,2.951h3.91v-2.6h15.669v1.381a1.222,1.222,0,0,0,1.221,1.221h21.2a1.221,1.221,0,0,0,1.221-1.221v-1.381h15.671v1.381a1.21,1.21,0,0,0,1.165,1.221,4.487,4.487,0,0,0,4.282-2.951,39.855,39.855,0,0,0,2.225-10.857Z" transform="translate(267.425 -234.8)" fill="url(#linear-gradient-4)"/>
        <path id="Path_214" data-name="Path 214" d="M-262.744,275.57a6,6,0,0,0,3.518-3.755l3.207-9.2a16.392,16.392,0,0,1,15.477-11h14.8a7.2,7.2,0,0,1,6.722,4.618l7.6,17.1c.424,1.1.443,1.831,1.626,1.831h12.251a3.206,3.206,0,0,1,3.2,2.85c.091.851.145,1.714.18,2.581.009-.333.044-.661.044-1a39.7,39.7,0,0,0-.223-4.2,3.206,3.206,0,0,0-3.2-2.85h-12.251a2.855,2.855,0,0,1-2.665-1.831l-6.561-17.1A7.2,7.2,0,0,0-225.742,249h-14.8a16.392,16.392,0,0,0-15.477,11l-3.207,9.2a6,6,0,0,1-3.518,3.755,6.99,6.99,0,0,0-4.631,6.568v.073c0,.558.049,1.1.071,1.655A6.983,6.983,0,0,1-262.744,275.57Z" transform="translate(267.375 -249)" fill="url(#linear-gradient-5)"/>
        <g id="Group_1082" data-name="Group 1082" transform="translate(10.478 36.653)">
          <circle id="Ellipse_10" data-name="Ellipse 10" cx="7.835" cy="7.835" r="7.835" fill="url(#linear-gradient-6)"/>
          <circle id="Ellipse_11" data-name="Ellipse 11" cx="2.623" cy="2.623" r="2.623" transform="translate(5.212 5.177)" fill="url(#linear-gradient-7)"/>
        </g>
        <g id="Group_1083" data-name="Group 1083" transform="translate(49.793 36.653)">
          <circle id="Ellipse_12" data-name="Ellipse 12" cx="7.835" cy="7.835" r="7.835" fill="url(#linear-gradient-6)"/>
          <path id="Path_215" data-name="Path 215" d="M-230.591,275.607a2.623,2.623,0,0,1-2.623,2.623,2.622,2.622,0,0,1-2.623-2.623,2.622,2.622,0,0,1,2.623-2.623A2.623,2.623,0,0,1-230.591,275.607Z" transform="translate(241.049 -267.807)" fill="url(#linear-gradient-9)"/>
        </g>
        <g id="Group_1084" data-name="Group 1084" transform="translate(18.313 7.848)">
          <path id="Path_216" data-name="Path 216" d="M-239.918,267.271a3,3,0,0,0,2.8,1.925h10.47a2.855,2.855,0,0,1-2.665-1.831l-5.321-13.866h-9.041a1.052,1.052,0,0,0-.984,1.428Z" transform="translate(265.914 -253.5)" fill="url(#linear-gradient-10)"/>
          <path id="Path_217" data-name="Path 217" d="M-240.262,253.5h-10.175a6.437,6.437,0,0,0-6.437,6.437v6.582A2.677,2.677,0,0,0-254.2,269.2h19.091a1.132,1.132,0,0,0,1.057-1.538l-5.156-13.433A1.132,1.132,0,0,0-240.262,253.5Z" transform="translate(256.875 -253.5)" fill="url(#linear-gradient-10)"/>
        </g>
        <path id="Path_218" data-name="Path 218" d="M-224.451,273.348h.828a40.392,40.392,0,0,0,.48-6.031c0-.61-.021-1.216-.049-1.817h-1.259a3.923,3.923,0,0,0-3.924,3.924h0A3.923,3.923,0,0,0-224.451,273.348Z" transform="translate(296.395 -236.722)" fill="url(#linear-gradient-12)"/>
      </g>
      <path id="Path_219" data-name="Path 219" d="M-224.759,271.482h.553a27.01,27.01,0,0,0,.319-4.022c0-.406-.014-.809-.033-1.21h-.839a2.617,2.617,0,0,0-2.616,2.616h0A2.617,2.617,0,0,0-224.759,271.482Z" transform="translate(297.139 -236.164)" fill="url(#linear-gradient-13)"/>
    </g>
    <g id="Group_1092" data-name="Group 1092" transform="translate(998.489 1986.525)">
      <path id="Path_221" data-name="Path 221" d="M-174.353,258.384l19.427,19.33,4.185-4.207-20.653-18.276a2.164,2.164,0,0,0-2.967.093h0A2.164,2.164,0,0,0-174.353,258.384Z" transform="translate(177.608 -241.429)" fill="url(#linear-gradient-14)"/>
      <g id="Group_1091" data-name="Group 1091" transform="translate(0 0)">
        <g id="Group_1090" data-name="Group 1090">
          <path id="Rectangle_594" data-name="Rectangle 594" d="M0,0H4.318a0,0,0,0,1,0,0V8.677A1.047,1.047,0,0,1,3.271,9.724H0a0,0,0,0,1,0,0V0A0,0,0,0,1,0,0Z" transform="translate(78.613 37.741)" fill="url(#linear-gradient-15)"/>
          <path id="Path_222" data-name="Path 222" d="M-128.26,261.484a7.918,7.918,0,0,1,7.919,7.911v.083A45.388,45.388,0,0,1-123,284.837a5.088,5.088,0,0,1-4.792,3.346h-68.167a5.088,5.088,0,0,1-4.794-3.346,45.388,45.388,0,0,1-2.654-15.359,45.559,45.559,0,0,1,.251-4.762,3.638,3.638,0,0,1,3.627-3.232Z" transform="translate(203.405 -234.785)" fill="url(#linear-gradient-16)"/>
          <path id="Path_223" data-name="Path 223" d="M-203.154,277.914a3.638,3.638,0,0,1,3.627-3.232h13.889a3.24,3.24,0,0,0,3.024-2.077l7.44-19.385a8.161,8.161,0,0,1,7.62-5.237h16.783a18.59,18.59,0,0,1,17.552,12.469l3.635,10.434a6.81,6.81,0,0,0,3.991,4.258,7.926,7.926,0,0,1,5.251,7.448v.083A45.388,45.388,0,0,1-123,298.035a5.088,5.088,0,0,1-4.792,3.346h-4.434v-2.951h-17.77V300a1.383,1.383,0,0,1-1.384,1.384h-24.041A1.385,1.385,0,0,1-176.8,300v-1.566h-17.768V300a1.372,1.372,0,0,1-1.321,1.384,5.088,5.088,0,0,1-4.855-3.346,45.348,45.348,0,0,1-2.656-15.359A45.558,45.558,0,0,1-203.154,277.914Z" transform="translate(203.405 -247.984)" fill="url(#linear-gradient-3)"/>
          <path id="Path_224" data-name="Path 224" d="M-120.54,267.067a45.266,45.266,0,0,1-2.524,12.311,5.088,5.088,0,0,1-4.792,3.346h-4.434v-2.951h-17.77v1.566a1.383,1.383,0,0,1-1.384,1.384h-24.041a1.385,1.385,0,0,1-1.386-1.384v-1.566h-17.768v1.566a1.372,1.372,0,0,1-1.321,1.384,5.088,5.088,0,0,1-4.855-3.346,45.118,45.118,0,0,1-2.524-12.311Z" transform="translate(203.47 -229.327)" fill="url(#linear-gradient-4)"/>
          <path id="Path_225" data-name="Path 225" d="M-125.592,278.112a6.81,6.81,0,0,1-3.991-4.258l-3.635-10.434a18.588,18.588,0,0,0-17.552-12.469h-16.783a8.161,8.161,0,0,0-7.62,5.237l-8.621,19.385c-.479,1.25-.5,2.077-1.843,2.077h-13.889a3.638,3.638,0,0,0-3.627,3.232c-.1.965-.162,1.944-.2,2.929-.01-.38-.049-.751-.049-1.133a45.558,45.558,0,0,1,.251-4.762,3.638,3.638,0,0,1,3.627-3.232h13.889a3.24,3.24,0,0,0,3.024-2.077l7.44-19.385a8.161,8.161,0,0,1,7.62-5.237h16.783a18.588,18.588,0,0,1,17.552,12.469l3.635,10.434a6.81,6.81,0,0,0,3.991,4.258,7.926,7.926,0,0,1,5.251,7.448v.083c0,.633-.057,1.25-.081,1.877A7.925,7.925,0,0,0-125.592,278.112Z" transform="translate(203.405 -247.984)" fill="url(#linear-gradient-5)"/>
          <g id="Group_1087" data-name="Group 1087" transform="translate(53.413 41.563)">
            <ellipse id="Ellipse_13" data-name="Ellipse 13" cx="8.884" cy="8.884" rx="8.884" ry="8.884" fill="url(#linear-gradient-6)"/>
            <ellipse id="Ellipse_14" data-name="Ellipse 14" cx="2.974" cy="2.974" rx="2.974" ry="2.974" transform="translate(5.91 5.871)" fill="url(#linear-gradient-7)"/>
          </g>
          <g id="Group_1088" data-name="Group 1088" transform="translate(8.832 41.563)">
            <ellipse id="Ellipse_15" data-name="Ellipse 15" cx="8.884" cy="8.884" rx="8.884" ry="8.884" fill="url(#linear-gradient-6)"/>
            <path id="Path_226" data-name="Path 226" d="M-171.867,274.942a2.974,2.974,0,0,0,2.974,2.975,2.974,2.974,0,0,0,2.974-2.975,2.975,2.975,0,0,0-2.974-2.974A2.975,2.975,0,0,0-171.867,274.942Z" transform="translate(177.777 -266.098)" fill="url(#linear-gradient-23)"/>
          </g>
          <g id="Group_1089" data-name="Group 1089" transform="translate(17.768 8.9)">
            <path id="Path_227" data-name="Path 227" d="M-165.7,268.1a3.4,3.4,0,0,1-3.178,2.183h-11.874a3.24,3.24,0,0,0,3.024-2.077l6.034-15.723h10.252a1.192,1.192,0,0,1,1.113,1.62Z" transform="translate(180.757 -252.484)" fill="url(#linear-gradient-24)"/>
            <path id="Path_228" data-name="Path 228" d="M-185.772,252.484h11.538a7.3,7.3,0,0,1,7.3,7.3v7.464a3.037,3.037,0,0,1-3.038,3.036H-191.62a1.284,1.284,0,0,1-1.2-1.744l5.848-15.23A1.283,1.283,0,0,1-185.772,252.484Z" transform="translate(211.464 -252.484)" fill="url(#linear-gradient-24)"/>
          </g>
          <path id="Path_229" data-name="Path 229" d="M-162.922,273.384h-.939a45.8,45.8,0,0,1-.544-6.839c0-.692.024-1.376.055-2.061h1.428a4.451,4.451,0,0,1,4.45,4.45h0A4.45,4.45,0,0,1-162.922,273.384Z" transform="translate(164.405 -231.852)" fill="url(#linear-gradient-26)"/>
        </g>
        <path id="Path_230" data-name="Path 230" d="M-162.416,271.167h-.627a30.625,30.625,0,0,1-.362-4.559c0-.463.016-.92.036-1.374h.953a2.968,2.968,0,0,1,2.967,2.967h0A2.966,2.966,0,0,1-162.416,271.167Z" transform="translate(163.405 -231.119)" fill="url(#linear-gradient-27)"/>
      </g>
    </g>
    <g id="Group_1101" data-name="Group 1101" transform="translate(1207.771 2232.49)">
      <g id="Group_1097" data-name="Group 1097" transform="translate(0 33.663)">
        <g id="Group_1096" data-name="Group 1096">
          <path id="Rectangle_595" data-name="Rectangle 595" d="M0,0H6.125a0,0,0,0,1,0,0V13.793a0,0,0,0,1,0,0H1.047A1.047,1.047,0,0,1,0,12.746V0A0,0,0,0,1,0,0Z" transform="translate(0.188 53.535)" fill="url(#linear-gradient)"/>
          <path id="Path_231" data-name="Path 231" d="M-116.435,262.5a11.231,11.231,0,0,0-11.233,11.221v.118a64.408,64.408,0,0,0,3.768,21.786,7.217,7.217,0,0,0,6.8,4.747h96.7a7.217,7.217,0,0,0,6.8-4.747,64.406,64.406,0,0,0,3.765-21.786,64.616,64.616,0,0,0-.356-6.755,5.161,5.161,0,0,0-5.145-4.584Z" transform="translate(127.667 -224.628)" fill="url(#linear-gradient-2)"/>
          <path id="Path_232" data-name="Path 232" d="M-10.2,291.456a5.161,5.161,0,0,0-5.145-4.584h-19.7a4.6,4.6,0,0,1-4.289-2.946l-10.554-27.5A11.577,11.577,0,0,0-60.7,249H-84.5a26.369,26.369,0,0,0-24.9,17.688l-5.156,14.8a9.66,9.66,0,0,1-5.661,6.04,11.243,11.243,0,0,0-7.448,10.565v.118A64.407,64.407,0,0,0-123.9,320a7.217,7.217,0,0,0,6.8,4.747h6.29v-4.186h25.206v2.222a1.964,1.964,0,0,0,1.964,1.964h34.1a1.966,1.966,0,0,0,1.964-1.964v-2.222h25.2v2.222a1.947,1.947,0,0,0,1.874,1.964A7.224,7.224,0,0,0-13.608,320a64.406,64.406,0,0,0,3.765-21.786A64.615,64.615,0,0,0-10.2,291.456Z" transform="translate(127.667 -249)" fill="url(#linear-gradient-3)"/>
          <path id="Path_233" data-name="Path 233" d="M-127.6,268.083a64.212,64.212,0,0,0,3.58,17.463,7.217,7.217,0,0,0,6.8,4.747h6.29v-4.186h25.206v2.222a1.964,1.964,0,0,0,1.964,1.964h34.1a1.966,1.966,0,0,0,1.964-1.964v-2.222h25.2v2.222a1.947,1.947,0,0,0,1.874,1.964,7.224,7.224,0,0,0,6.89-4.747,64.212,64.212,0,0,0,3.58-17.463Z" transform="translate(127.788 -214.549)" fill="url(#linear-gradient-4)"/>
          <path id="Path_234" data-name="Path 234" d="M-120.219,291.736a9.659,9.659,0,0,0,5.661-6.04l5.156-14.8a26.366,26.366,0,0,1,24.9-17.688H-60.7a11.577,11.577,0,0,1,10.809,7.428l12.228,27.5c.682,1.773.713,2.945,2.615,2.945h19.7a5.161,5.161,0,0,1,5.145,4.584c.143,1.369.23,2.758.289,4.152.011-.536.067-1.063.067-1.6a64.615,64.615,0,0,0-.356-6.755,5.161,5.161,0,0,0-5.145-4.584h-19.7a4.6,4.6,0,0,1-4.289-2.946l-10.554-27.5A11.577,11.577,0,0,0-60.7,249H-84.5a26.366,26.366,0,0,0-24.9,17.688l-5.156,14.8a9.66,9.66,0,0,1-5.661,6.04,11.243,11.243,0,0,0-7.448,10.565v.118c0,.9.081,1.773.115,2.662A11.237,11.237,0,0,1-120.219,291.736Z" transform="translate(127.667 -249)" fill="url(#linear-gradient-5)"/>
          <g id="Group_1093" data-name="Group 1093" transform="translate(16.855 58.956)">
            <circle id="Ellipse_16" data-name="Ellipse 16" cx="12.602" cy="12.602" r="12.602" fill="url(#linear-gradient-6)"/>
            <circle id="Ellipse_17" data-name="Ellipse 17" cx="4.219" cy="4.219" r="4.219" transform="translate(8.383 8.328)" fill="url(#linear-gradient-7)"/>
          </g>
          <g id="Group_1094" data-name="Group 1094" transform="translate(80.092 58.956)">
            <circle id="Ellipse_18" data-name="Ellipse 18" cx="12.602" cy="12.602" r="12.602" fill="url(#linear-gradient-6)"/>
            <path id="Path_235" data-name="Path 235" d="M-87.691,277.2a4.218,4.218,0,0,1-4.219,4.219,4.218,4.218,0,0,1-4.219-4.219,4.218,4.218,0,0,1,4.219-4.219A4.218,4.218,0,0,1-87.691,277.2Z" transform="translate(104.512 -264.657)" fill="url(#linear-gradient-23)"/>
          </g>
          <g id="Group_1095" data-name="Group 1095" transform="translate(29.456 12.624)">
            <path id="Path_236" data-name="Path 236" d="M-97.285,275.651a4.827,4.827,0,0,0,4.508,3.1h16.843a4.6,4.6,0,0,1-4.289-2.946l-8.559-22.3h-14.543a1.691,1.691,0,0,0-1.579,2.3Z" transform="translate(139.099 -253.5)" fill="url(#linear-gradient-10)"/>
            <path id="Path_237" data-name="Path 237" d="M-90.446,253.5h-16.366a10.356,10.356,0,0,0-10.354,10.354v10.587a4.308,4.308,0,0,0,4.309,4.306h30.707a1.822,1.822,0,0,0,1.7-2.474l-8.3-21.607A1.822,1.822,0,0,0-90.446,253.5Z" transform="translate(117.167 -253.5)" fill="url(#linear-gradient-10)"/>
          </g>
          <path id="Path_238" data-name="Path 238" d="M-82.355,278.124h1.333a64.968,64.968,0,0,0,.771-9.7c0-.982-.034-1.955-.079-2.923h-2.025a6.313,6.313,0,0,0-6.312,6.312h0A6.312,6.312,0,0,0-82.355,278.124Z" transform="translate(198.075 -219.212)" fill="url(#linear-gradient-39)"/>
        </g>
        <path id="Path_239" data-name="Path 239" d="M-83.459,274.666h.889a43.447,43.447,0,0,0,.513-6.469c0-.654-.022-1.3-.051-1.947h-1.352a4.21,4.21,0,0,0-4.208,4.208h0A4.21,4.21,0,0,0-83.459,274.666Z" transform="translate(199.88 -217.858)" fill="url(#linear-gradient-40)"/>
      </g>
      <g id="Group_1100" data-name="Group 1100" transform="translate(0.001)">
        <g id="Group_1098" data-name="Group 1098">
          <circle id="Ellipse_19" data-name="Ellipse 19" cx="29.473" cy="29.473" r="29.473" transform="translate(0.005 0.004)" fill="url(#linear-gradient-41)"/>
          <circle id="Ellipse_20" data-name="Ellipse 20" cx="16.845" cy="16.845" r="16.845" transform="translate(12.633 12.633)" fill="url(#linear-gradient-42)"/>
          <path id="Path_240" data-name="Path 240" d="M-120.68,250.969V264.1a16.747,16.747,0,0,0,9.878,3.221,16.748,16.748,0,0,0,9.9-3.237V245.866l-12.007,7.675Z" transform="translate(140.28 -220.995)" fill="url(#linear-gradient-43)"/>
          <path id="Path_241" data-name="Path 241" d="M-126.955,246.013V257.5a.7.7,0,0,0,1.17.53l11.188-9.894a1.214,1.214,0,0,0-.805-2.124Z" transform="translate(128.952 -220.729)" fill="url(#linear-gradient-44)"/>
          <path id="Path_242" data-name="Path 242" d="M-100.36,237.078A29.622,29.622,0,0,0-127.07,260.6a29.122,29.122,0,0,0,.418,13.488,1.123,1.123,0,0,0,1.832.553l5.81-5.2a21.075,21.075,0,0,1-.233-2.965,21.056,21.056,0,0,1,22.05-21.034,21.219,21.219,0,0,1,20.038,20.038,21.056,21.056,0,0,1-21.034,22.05,20.988,20.988,0,0,1-16.829-8.436,2.147,2.147,0,0,0-3.159-.345l-3.106,2.78a2.157,2.157,0,0,0-.264,2.92A29.448,29.448,0,0,0-95.131,295.8,29.605,29.605,0,0,0-68.756,268.13,29.482,29.482,0,0,0-100.36,237.078Z" transform="translate(127.667 -237)" fill="url(#linear-gradient-45)"/>
        </g>
        <path id="Path_243" data-name="Path 243" d="M-101.664,246.152l-.707-.707a2.658,2.658,0,0,0-3.759,0l-7.33,7.33-1.983-1.981a2.653,2.653,0,0,0-3.759,0l-.707.707a2.658,2.658,0,0,0,0,3.759l3.855,3.855.006.008.707.707a2.641,2.641,0,0,0,1.882.777,2.639,2.639,0,0,0,1.88-.777l.707-.707.006-.008,9.2-9.2A2.658,2.658,0,0,0-101.664,246.152Z" transform="translate(140.265 -223.16)" fill="#6ed333"/>
        <g id="Group_1099" data-name="Group 1099" transform="translate(28.403 11.558)">
          <circle id="Ellipse_21" data-name="Ellipse 21" cx="1.075" cy="1.075" r="1.075" fill="url(#linear-gradient-46)"/>
          <circle id="Ellipse_22" data-name="Ellipse 22" cx="1.075" cy="1.075" r="1.075" transform="translate(0 33.689)" fill="url(#linear-gradient-47)"/>
          <circle id="Ellipse_23" data-name="Ellipse 23" cx="1.075" cy="1.075" r="1.075" transform="translate(16.845 16.845)" fill="url(#linear-gradient-48)"/>
        </g>
      </g>
    </g>
  </g>
</svg>
