<svg xmlns="http://www.w3.org/2000/svg" width="35.824" height="35.824"><path data-name="Path 166" d="M22.11 3.149a5.221 5.221 0 0 0-3.241 1.125A5.255 5.255 0 0 0 13.714 0H4.2v3.149H0v32.675h35.824V3.149zm0 2.1h11.615v20.079H22.11a5.222 5.222 0 0 0-3.149 1.052V8.4a3.152 3.152 0 0 1 3.149-3.152zm-3.149 25.327a3.152 3.152 0 0 1 3.149-3.149h11.615v2.1H22.11a5.234 5.234 0 0 0-3.149 1.049zM6.3 2.1h7.417a3.152 3.152 0 0 1 3.149 3.149V26.38a5.222 5.222 0 0 0-3.149-1.052H6.3zM4.2 5.248v22.18h9.516a3.152 3.152 0 0 1 3.149 3.149 5.234 5.234 0 0 0-3.149-1.05H2.1V5.248zM2.1 31.626h11.614a3.154 3.154 0 0 1 2.968 2.1H2.1zm17.043 2.1a3.154 3.154 0 0 1 2.968-2.1h11.614v2.1zm0 0" fill="#fff"/></svg>