<svg xmlns="http://www.w3.org/2000/svg" width="35.422" height="30.186"><path data-name="Path 158" d="M34.843 8.31L18.169.11a1.037 1.037 0 0 0-.916 0L.579 8.31A1.031 1.031 0 0 0 0 9.241v19.155a1.8 1.8 0 0 0 1.794 1.79h31.835a1.8 1.8 0 0 0 1.793-1.79V9.241a1.031 1.031 0 0 0-.579-.931zm-7.3 17.443v2.359H7.876v-2.359zm0-4.471v2.4H7.876v-2.4zm0-4.471v2.4H7.876v-2.4zm0-4.578v2.5H7.876v-2.5zm1.037-2.074H6.839A1.038 1.038 0 0 0 5.8 11.196v16.916H2.074V9.886l15.637-7.69 15.637 7.69v18.226H29.62V11.196a1.038 1.038 0 0 0-1.037-1.038z" fill="#fff"/></svg>