<svg width="21" height="20" viewBox="0 0 21 20" fill="none" xmlns="http://www.w3.org/2000/svg">
  <path
    d="M2.16666 1.66666H3.61666C4.51666 1.66666 5.22499 2.44166 5.14999 3.33332L4.45832 11.6333C4.34166 12.9916 5.41665 14.1583 6.78332 14.1583H15.6583C16.8583 14.1583 17.9083 13.175 18 11.9833L18.45 5.73333C18.55 4.34999 17.5 3.22499 16.1083 3.22499H5.35"
    stroke="#026AA2" stroke-width="1.5" stroke-miterlimit="10" stroke-linecap="round" stroke-linejoin="round"/>
  <path
    d="M14.0417 18.3333C14.617 18.3333 15.0833 17.867 15.0833 17.2917C15.0833 16.7164 14.617 16.25 14.0417 16.25C13.4664 16.25 13 16.7164 13 17.2917C13 17.867 13.4664 18.3333 14.0417 18.3333Z"
    stroke="#026AA2" stroke-width="1.5" stroke-miterlimit="10" stroke-linecap="round" stroke-linejoin="round"/>
  <path
    d="M7.37501 18.3333C7.95031 18.3333 8.41668 17.867 8.41668 17.2917C8.41668 16.7164 7.95031 16.25 7.37501 16.25C6.79971 16.25 6.33334 16.7164 6.33334 17.2917C6.33334 17.867 6.79971 18.3333 7.37501 18.3333Z"
    stroke="#026AA2" stroke-width="1.5" stroke-miterlimit="10" stroke-linecap="round" stroke-linejoin="round"/>
  <path d="M8 6.66666H18" stroke="#026AA2" stroke-width="1.5" stroke-miterlimit="10" stroke-linecap="round"
        stroke-linejoin="round"/>
</svg>
