<?xml version="1.0" encoding="utf-8"?>
<!-- Svg Vector Icons : http://www.onlinewebfonts.com/icon -->
<!DOCTYPE svg PUBLIC "-//W3C//DTD SVG 1.1//EN" "http://www.w3.org/Graphics/SVG/1.1/DTD/svg11.dtd">
<svg version="1.1" xmlns="http://www.w3.org/2000/svg" xmlns:xlink="http://www.w3.org/1999/xlink" x="0px" y="0px" viewBox="0 0 1000 1000" enable-background="new 0 0 1000 1000" xml:space="preserve">
<metadata> Svg Vector Icons : http://www.onlinewebfonts.com/icon </metadata>
<g><path d="M845.4,587.9c-17.8-39.7-110.8-75-142.8-86.1c-49.8-109-22.9-246.5-22.9-246.5c-8.8,39.1-20,54.1-20,54.1c-8.8,70.7-66.4,129.1-66.4,129.1c-1.1,18.8,1.4,35,5.9,48.8c-89.2,143.9-162,68.6-197.8,9.9c6.9-15.8,10.8-35,9.6-58.7c0,0-57.6-58.3-66.4-129.1c0,0-11.2-15-20-54.1c0,0,26.8,137.2-22.7,246c-38.3,16.4-76.9,28.1-76.9,28.1c-41.6,15.9-59.3,40-59.3,40C104,660.8,96.8,864.2,96.8,864.2c0.8,46.4,20.8,51.3,20.8,51.3c141.7,63.2,363.9,74.3,363.9,74.3c228.2,4.9,394.2-64.8,394.2-64.8c24.2-15.2,24.9-27.2,24.9-27.2C917.5,752,845.4,587.9,845.4,587.9z"/><path d="M600.6,166.5c2.4,9,17,55.9,66.4,76.9c0,0,1.8-19.3,7.2-21c0,0,6,3,7.8,10.2c0,0,13-122.9-43-168.8l0.3-0.6C522.4-39.9,390.2,38.6,390.2,38.6c-96.8,62.3-69.8,197-69.8,197C502.6,252.8,597.7,169,600.6,166.5z"/></g>
</svg>