<svg data-name="Group 962" xmlns="http://www.w3.org/2000/svg" width="32" height="24.353"><path data-name="Path 150" d="M28.094 0H3.913A3.916 3.916 0 0 0 0 3.913v16.526a3.916 3.916 0 0 0 3.913 3.911h24.174A3.916 3.916 0 0 0 32 20.439V3.92A3.912 3.912 0 0 0 28.094 0zm2.125 20.439a2.128 2.128 0 0 1-2.125 2.125H3.913a2.128 2.128 0 0 1-2.125-2.125V3.92a2.128 2.128 0 0 1 2.125-2.125h24.174a2.128 2.128 0 0 1 2.125 2.125v16.52z" fill="#4da6ff"/><path data-name="Path 151" d="M20.135 11.974l7.739-6.918a.884.884 0 1 0-1.185-1.312l-10.673 9.549-2.082-1.854c-.007-.007-.013-.013-.013-.02a1.307 1.307 0 0 0-.144-.124L5.304 3.737a.884.884 0 1 0-1.179 1.318l7.831 6.977-7.8 7.277a.883.883 0 0 0-.039 1.247.906.906 0 0 0 .648.281.887.887 0 0 0 .6-.235l7.916-7.382 2.148 1.912a.884.884 0 0 0 1.179-.007l2.207-1.971 7.874 7.456a.883.883 0 1 0 1.218-1.279z" fill="#4da6ff"/></svg>