<svg width="160" height="40" viewBox="0 0 160 40" fill="none" xmlns="http://www.w3.org/2000/svg">
  <path fill-rule="evenodd" clip-rule="evenodd"
        d="M19.5461 0.0160981C18.6651 0.0438464 18.5035 0.0569185 17.4942 0.182013C12.8818 0.753678 8.64656 2.74743 5.69149 5.73819C4.20436 7.24332 3.03451 8.90661 2.07722 10.8769C1.57629 11.908 1.32179 12.5313 1.01662 13.4745C0.30724 15.6667 0.0018625 17.7358 8.73055e-06 20.3621C-0.00184504 22.9808 0.291339 24.8678 1.04397 27.0806C1.33377 27.9328 1.56121 28.4623 2.06222 29.4514C2.98025 31.2639 4.00477 32.6806 5.43448 34.1147C6.77982 35.4641 7.97855 36.3852 9.61538 37.3273C11.253 38.2698 13.5009 39.1075 15.517 39.5267C17.0642 39.8483 18.1869 39.9666 19.959 39.9946C21.9232 40.0257 23.3574 39.9244 25.0955 39.6317C27.894 39.1605 30.6546 38.0094 33.0271 36.3244C33.282 36.1433 33.4906 35.981 33.4906 35.9636C33.4906 35.9461 33.4118 35.9192 33.3155 35.9037C32.7114 35.8062 31.534 35.3171 30.8747 34.8896C29.9422 34.2851 29.1016 33.3307 28.6 32.3072L28.373 31.8439L28.0291 32.5283C27.1414 34.2946 25.9524 35.6091 24.4644 36.4691C22.3321 37.7013 19.0352 37.7577 16.8066 36.6C15.1466 35.7376 13.6589 34.0337 12.7088 31.9067C11.9767 30.2677 11.5115 28.663 11.1665 26.5859C10.8139 24.4639 10.6907 22.7833 10.6906 20.092C10.6904 16.2803 10.962 13.8287 11.699 10.9899C12.1135 9.39342 12.7825 7.78043 13.5323 6.56998C13.939 5.91342 14.3664 5.37676 14.9296 4.81574C15.937 3.81193 16.9925 3.19899 18.3052 2.85542C20.3018 2.33286 22.588 2.54932 24.2656 3.41974C25.4051 4.01099 26.581 5.13535 27.4722 6.48587C27.7477 6.90333 27.7866 6.94646 27.7981 6.84664L27.8112 6.73325H32.0721C34.9183 6.73325 36.333 6.7194 36.333 6.69153C36.333 6.62721 35.5167 5.77047 35.0237 5.31743C32.7729 3.24892 29.967 1.71757 26.7758 0.815936C24.5364 0.18325 22.2538 -0.0692909 19.5461 0.0160981ZM74.5824 4.44824C73.6308 4.5011 71.7771 4.60109 70.463 4.67036C69.1488 4.73966 67.93 4.80782 67.7544 4.82184L67.4351 4.84728V5.51394V6.18055L67.8169 6.22884C68.7251 6.34362 69.5734 6.64102 69.9571 6.97911C70.3876 7.35835 70.6974 8.03108 70.7764 8.75822C70.8376 9.32135 70.7995 29.5145 70.7348 30.7914C70.7096 31.2903 70.6614 32.1613 70.6277 32.727C70.5809 33.5128 70.5779 33.7625 70.6149 33.7855C70.6416 33.802 70.8905 33.9023 71.168 34.0084L71.6726 34.2014L72.9953 32.9977C73.7227 32.3356 74.3403 31.8033 74.3678 31.8148C74.3952 31.8263 74.6309 31.9865 74.8914 32.171C76.0796 33.0119 77.6985 33.5673 79.52 33.7587C80.3223 33.8431 82.1018 33.8435 82.819 33.7595C84.932 33.5122 86.7683 32.6389 88.2737 31.1657C89.1398 30.3181 89.6831 29.5761 90.1781 28.565C90.6371 27.6273 90.9564 26.4914 91.0788 25.3609C91.134 24.8518 91.1349 23.2616 91.0804 22.669C90.8357 20.0065 89.9676 17.949 88.4445 16.4217C87.3323 15.3063 86.0472 14.6526 84.3819 14.355C83.9273 14.2737 83.7096 14.26 82.8626 14.259C81.996 14.258 81.8173 14.2694 81.4149 14.3511C79.964 14.6455 78.521 15.4114 77.3438 16.5117C77.1779 16.6667 77.0218 16.7936 76.9967 16.7936C76.9636 16.7936 76.9511 15.129 76.9511 10.7204V4.64722L76.7949 4.49455C76.6646 4.36718 76.6117 4.34273 76.4757 4.34698C76.386 4.34983 75.534 4.39538 74.5824 4.44824ZM132.509 5.17172L132.155 5.50012L132.144 5.859L132.132 6.21787L131.905 6.23057C131.727 6.24055 131.654 6.26652 131.565 6.35166C131.503 6.41128 131.452 6.4937 131.452 6.53481C131.452 6.60111 131.491 6.60956 131.802 6.60956H132.152V8.15427C132.152 9.80181 132.165 9.92666 132.366 10.1983C132.495 10.3729 132.748 10.4931 133.032 10.5146C133.273 10.5328 133.307 10.5227 133.749 10.3045C134.215 10.074 134.268 10.0195 134.174 9.871C134.143 9.8221 134.112 9.82367 133.968 9.88131C133.754 9.96707 133.462 9.96847 133.3 9.88448C133.222 9.84383 133.142 9.74788 133.086 9.62679C133.001 9.44298 132.996 9.36732 132.984 8.02172L132.97 6.60956H133.507C134.007 6.60956 134.048 6.60362 134.09 6.52496C134.114 6.47845 134.129 6.39961 134.122 6.34972C134.11 6.26269 134.087 6.25828 133.553 6.23848L132.997 6.21787L132.985 5.55191C132.977 5.03995 132.961 4.881 132.919 4.86463C132.887 4.85251 132.711 4.98503 132.509 5.17172ZM95.5403 5.20161L95.2005 5.52131V5.8799V6.23848L94.9636 6.24145C94.7461 6.24417 94.7172 6.25588 94.6104 6.38469C94.5463 6.46179 94.5057 6.54396 94.5201 6.56726C94.5345 6.59051 94.6924 6.60956 94.8711 6.60956H95.196L95.2085 8.20725C95.2199 9.66023 95.228 9.8209 95.298 9.98112C95.3909 10.1938 95.6362 10.4134 95.8537 10.4786C96.1569 10.5695 96.3052 10.5409 96.8177 10.2924C97.2439 10.0857 97.299 10.0473 97.2765 9.97243C97.2344 9.83216 97.2007 9.82111 97.0153 9.88662C96.7361 9.98521 96.4662 9.96909 96.3189 9.84503C96.0638 9.63021 96.045 9.50256 96.045 7.99079V6.63018L96.5573 6.61855C96.8487 6.61191 97.0929 6.5875 97.1237 6.56194C97.1535 6.53724 97.1778 6.45433 97.1778 6.37776V6.23848H96.6505C96.2953 6.23848 96.1071 6.22232 96.0738 6.18901C96.0396 6.15483 96.0244 5.94439 96.0244 5.5087C96.0244 4.93465 96.0179 4.87803 95.9523 4.87989C95.9126 4.881 95.7272 5.02577 95.5403 5.20161ZM112.823 6.13528C112.671 6.18855 112.36 6.2753 112.133 6.32808C111.739 6.41969 111.72 6.42893 111.72 6.53267C111.72 6.63063 111.743 6.64683 111.953 6.69759C112.122 6.73849 112.209 6.7857 112.272 6.87022C112.357 6.98456 112.358 7.02764 112.371 9.31076C112.384 11.7422 112.363 12.1683 112.223 12.3085C112.18 12.3514 112.031 12.4083 111.891 12.4349C111.653 12.4802 111.637 12.4902 111.637 12.5975V12.7117H112.832H114.027V12.5971C114.027 12.4869 114.015 12.4808 113.733 12.4363C113.509 12.401 113.413 12.3643 113.331 12.282L113.223 12.174L113.211 11.269L113.198 10.3639L113.338 10.4223C113.736 10.589 114.151 10.5285 114.809 10.2078C115.134 10.0493 115.261 9.95717 115.556 9.66357C116.185 9.03694 116.438 8.28819 116.277 7.52633C116.111 6.74088 115.537 6.19787 114.8 6.12893C114.41 6.09257 114.301 6.12543 113.743 6.44534C113.467 6.60371 113.232 6.73325 113.222 6.73325C113.211 6.73325 113.203 6.57555 113.203 6.38279C113.203 6.12827 113.189 6.03315 113.151 6.03538C113.123 6.03707 112.975 6.08205 112.823 6.13528ZM126.818 6.1775C126.682 6.22941 126.37 6.31398 126.125 6.36535C125.697 6.45532 125.681 6.46266 125.693 6.56083C125.703 6.64502 125.74 6.67157 125.905 6.71322C126.014 6.74097 126.144 6.80372 126.193 6.85266C126.281 6.94048 126.282 6.96134 126.282 8.37737C126.282 9.92398 126.276 9.97445 126.066 10.0699C126.009 10.0959 125.882 10.1283 125.782 10.1419C125.617 10.1646 125.602 10.1765 125.602 10.2847V10.4028H126.776H127.95V10.2848C127.95 10.1723 127.94 10.1655 127.721 10.1397C127.356 10.0969 127.222 10.0235 127.171 9.83917C127.145 9.74768 127.127 9.26004 127.127 8.67976C127.126 7.73895 127.132 7.66775 127.214 7.50468C127.498 6.94485 127.862 6.7617 128.214 7.00125C128.298 7.05795 128.419 7.10433 128.485 7.10433C128.65 7.10433 128.846 6.92671 128.9 6.72715C129.018 6.2864 128.495 5.97077 128.012 6.19227C127.825 6.27823 127.492 6.6181 127.311 6.9084C127.243 7.0161 127.174 7.10421 127.157 7.10425C127.14 7.10429 127.126 6.87241 127.126 6.58895C127.126 6.30548 127.113 6.0757 127.096 6.07834C127.079 6.08094 126.953 6.12559 126.818 6.1775ZM82.5045 6.2161C81.8954 6.43309 81.2096 6.86317 81.1353 7.07473C81.08 7.2321 81.1464 7.39192 81.3141 7.50505C81.5959 7.69509 81.7848 7.59456 81.912 7.18679C82.0081 6.87896 82.1471 6.67718 82.3193 6.59538C82.5054 6.50702 82.6568 6.51028 82.8702 6.60721C83.1653 6.74133 83.3331 7.09629 83.3354 7.59147L83.3364 7.81061L82.9965 7.96935C82.8096 8.05664 82.4009 8.21674 82.0884 8.32509C81.257 8.6133 81.0698 8.80341 81.0715 9.35763C81.0736 10.0094 81.5501 10.4992 82.1866 10.5039C82.4409 10.5057 82.4784 10.4933 82.7839 10.3046C82.9631 10.1939 83.1692 10.0673 83.2419 10.0233L83.3739 9.94324L83.4319 10.0822C83.5051 10.2573 83.7054 10.4278 83.9101 10.4892C84.0628 10.535 84.0824 10.5286 84.4887 10.2983C84.7201 10.1672 84.9183 10.0365 84.9293 10.0078C84.9403 9.97915 84.9292 9.91812 84.9047 9.87223C84.8665 9.80078 84.8428 9.79481 84.7401 9.83068C84.5446 9.89887 84.3644 9.86044 84.2673 9.72986C84.1851 9.61937 84.1797 9.54969 84.1573 8.32802C84.1302 6.85327 84.1149 6.7737 83.7937 6.44225C83.4743 6.11252 83.0192 6.0327 82.5045 6.2161ZM101.351 6.23085C100.575 6.49366 100.041 7.08644 99.8765 7.8671C99.5748 9.2995 100.56 10.5216 102.02 10.5258C102.755 10.5279 103.526 10.0828 103.885 9.44843C104.155 8.97336 104.254 8.22742 104.118 7.70391C103.804 6.49717 102.545 5.82667 101.351 6.23085ZM120.613 6.25283C119.956 6.50277 119.374 6.89484 119.316 7.12573C119.265 7.33094 119.52 7.5991 119.767 7.5991C119.924 7.5991 120.025 7.47817 120.124 7.17265C120.285 6.67293 120.585 6.45503 120.958 6.56635C121.316 6.67331 121.51 7.00134 121.534 7.53725L121.545 7.78464L121.256 7.93662C121.098 8.02019 120.714 8.17489 120.404 8.2804C119.528 8.57825 119.313 8.75971 119.27 9.23906C119.217 9.83756 119.597 10.3572 120.186 10.489C120.305 10.5156 120.467 10.5253 120.546 10.5104C120.67 10.4872 121.081 10.2629 121.448 10.0181L121.557 9.94525L121.654 10.1209C121.762 10.3177 121.962 10.471 122.158 10.5078C122.267 10.5283 122.362 10.4902 122.727 10.2786L123.165 10.0248L123.122 9.90205C123.091 9.8108 123.062 9.78672 123.012 9.80824C122.762 9.91639 122.539 9.87063 122.442 9.69098C122.38 9.57508 122.367 9.38691 122.348 8.25879C122.326 7.01259 122.321 6.95223 122.23 6.76739C122.095 6.49135 121.891 6.29959 121.627 6.20076C121.299 6.07789 121.037 6.09137 120.613 6.25283ZM138.033 6.15705C137.385 6.32025 136.975 6.84936 137.024 7.45879C137.065 7.96832 137.316 8.23954 138.166 8.68994C138.847 9.05104 138.967 9.17671 138.969 9.53588C138.97 9.80742 138.896 9.94381 138.661 10.1039C138.491 10.2199 138.175 10.2269 137.94 10.1198C137.692 10.007 137.37 9.62955 137.233 9.29047C137.143 9.06823 137.097 9.00198 137.034 9.0021C136.866 9.00235 136.854 9.04074 136.898 9.44669C136.965 10.0788 137.007 10.2001 137.199 10.3076C137.289 10.3586 137.488 10.4287 137.639 10.4634C138.805 10.7299 139.85 10.0505 139.762 9.08337C139.716 8.57462 139.445 8.28914 138.646 7.91043C138.053 7.62887 137.828 7.45253 137.763 7.21937C137.653 6.82 137.949 6.40172 138.34 6.40431C138.663 6.40646 139.041 6.71552 139.235 7.13525C139.333 7.34838 139.401 7.39084 139.521 7.31444C139.589 7.27164 139.561 6.96893 139.451 6.55983C139.388 6.32453 139.367 6.29291 139.219 6.22059C139.031 6.1291 138.299 6.08989 138.033 6.15705ZM88.5639 6.17396C88.5498 6.1881 87.4543 6.32095 87.3519 6.32095C87.3381 6.32095 87.3327 6.37018 87.3398 6.43037C87.3508 6.52277 87.3882 6.55147 87.5794 6.61476C87.704 6.65599 87.8084 6.69021 87.8113 6.69087C87.8142 6.69149 87.8367 6.74303 87.8612 6.80541C87.8888 6.87558 87.911 7.42164 87.9193 8.23818C87.932 9.4723 87.9385 9.5717 88.0209 9.77645C88.1451 10.0853 88.2774 10.2421 88.5323 10.3823C88.7277 10.4898 88.7943 10.5041 89.1036 10.5049C89.412 10.5057 89.4858 10.4905 89.7216 10.3774C89.8688 10.3067 90.1187 10.1536 90.2768 10.0372C90.4349 9.92081 90.5786 9.82556 90.5961 9.82556C90.6135 9.82556 90.6278 9.97399 90.6278 10.1554C90.6278 10.3368 90.6418 10.4855 90.6587 10.4857C90.6757 10.486 90.977 10.4194 91.3282 10.3377C91.6793 10.2561 92.0084 10.1813 92.0594 10.1715C92.1298 10.1581 92.1521 10.1255 92.1521 10.0359C92.1521 9.92089 92.1458 9.91747 91.8987 9.89957C91.686 9.88419 91.6298 9.86312 91.5485 9.76866L91.4517 9.65602V7.90145V6.14683L91.3146 6.1726C91.1712 6.19952 90.0423 6.31872 89.9172 6.32012C89.8682 6.3207 89.8451 6.3536 89.8451 6.42324C89.8451 6.5017 89.8716 6.53097 89.9584 6.54887C90.0207 6.56173 90.1642 6.59464 90.2772 6.62205C90.604 6.7013 90.6048 6.70509 90.621 8.18L90.6349 9.44125L90.4975 9.55752C90.2932 9.7304 89.9534 9.87228 89.6851 9.8966C89.2665 9.93462 88.952 9.72385 88.8101 9.31018C88.7658 9.18096 88.7546 8.82155 88.7587 7.65064L88.7639 6.15602H88.6729C88.6228 6.15602 88.5738 6.16411 88.5639 6.17396ZM102.363 6.52446C102.855 6.77576 103.132 7.37043 103.179 8.27941C103.241 9.46409 102.854 10.193 102.162 10.1955C101.865 10.1966 101.686 10.1247 101.45 9.90844C101.034 9.52821 100.833 8.9478 100.828 8.11448C100.825 7.71005 100.841 7.56702 100.917 7.3311C101.162 6.56149 101.771 6.22208 102.363 6.52446ZM114.671 6.82887C115.142 7.06784 115.388 7.51858 115.418 8.20008C115.446 8.84802 115.313 9.30193 114.991 9.65928C114.576 10.1195 113.959 10.1848 113.398 9.82812L113.203 9.70368V8.38677V7.06982L113.353 6.97701C113.435 6.92597 113.607 6.84025 113.734 6.78652C114.033 6.65999 114.368 6.67516 114.671 6.82887ZM83.3364 8.87008C83.3364 9.57962 83.3331 9.60795 83.2437 9.68987C82.9891 9.92283 82.6505 9.99601 82.3803 9.87636C82.1195 9.76091 82.0043 9.58164 81.9838 9.25947C81.9693 9.03146 81.9807 8.97864 82.0759 8.83475C82.1673 8.69654 82.2713 8.62785 82.7296 8.40323C83.0293 8.25628 83.2885 8.13584 83.3055 8.13555C83.3224 8.13531 83.3364 8.46586 83.3364 8.87008ZM121.545 8.90088V9.6392L121.323 9.77192C121.019 9.95329 120.795 9.98294 120.568 9.87187C120.135 9.66035 120.033 9.05715 120.374 8.72944C120.503 8.60616 121.429 8.13197 121.503 8.15163C121.529 8.15844 121.545 8.44347 121.545 8.90088ZM30.2362 11.9693V14.8145H28.5266H26.817V15.8246V16.8348H28.4842H30.1515L30.1642 23.0297C30.178 29.8043 30.1657 29.4502 30.418 30.3218C30.6517 31.1289 30.9844 31.7195 31.5199 32.2777C32.2008 32.9876 33.0726 33.4143 34.3145 33.6455C34.6366 33.7055 34.9354 33.7182 36.0035 33.7176C37.7181 33.7165 38.3005 33.6348 39.5668 33.218C40.2501 32.9931 41.398 32.5659 41.6163 32.4554L41.7707 32.3771V31.6152C41.7707 31.1961 41.7554 30.8533 41.7367 30.8533C41.718 30.8533 41.5094 30.8796 41.2733 30.9118C40.0894 31.0732 38.6404 31.0945 38.125 30.9581C37.1562 30.7017 36.656 30.0541 36.4358 28.7711C36.3095 28.0353 36.2884 26.9612 36.3005 21.8856L36.3124 16.8554L38.918 16.8448L41.5236 16.8342V15.8244V14.8145H38.9077C37.469 14.8145 36.2875 14.8099 36.2822 14.8042C36.2769 14.7985 36.2631 13.5229 36.2513 11.9696L36.23 9.14526L33.2331 9.13466L30.2362 9.12411V11.9693ZM53.4495 14.2392C50.2967 14.5531 47.8134 15.763 46.1332 17.8037C44.7578 19.4743 44.0765 21.5384 44.0781 24.0296C44.0799 26.698 44.9543 28.9991 46.6293 30.7428C48.3048 32.4871 50.5719 33.5189 53.3054 33.7815C54.0078 33.8489 56.1677 33.8129 56.8069 33.7231C59.2949 33.3734 61.336 32.4404 62.9321 30.923C63.8511 30.0493 64.6832 28.7473 65.103 27.5261C65.2869 26.991 65.5188 26.0512 65.6044 25.4933C65.7078 24.8196 65.7286 23.4129 65.6459 22.6896C65.2194 18.959 63.0895 16.2464 59.5669 14.9472C58.7174 14.6339 57.8466 14.4251 56.8481 14.2952C56.2474 14.2171 54.0373 14.1806 53.4495 14.2392ZM102.617 14.2612C100.547 14.4868 98.6564 15.1048 97.323 15.9912C96.8675 16.294 96.1747 16.9543 95.9892 17.2625C95.6584 17.8121 95.5383 18.3604 95.6143 18.9745C95.7578 20.1336 96.4487 20.907 97.6104 21.2089C97.8435 21.2695 98.1274 21.3012 98.5803 21.3173C99.7564 21.3592 100.403 21.218 101.063 20.7755C101.504 20.48 101.719 20.2011 101.876 19.7199C101.965 19.4487 101.977 19.3425 101.973 18.8345C101.968 18.2203 101.968 18.2197 101.653 17.1939C101.571 16.9265 101.492 16.6355 101.478 16.5471C101.453 16.3886 101.455 16.3845 101.679 16.2413C101.963 16.0593 102.518 15.8292 102.842 15.7588C102.978 15.7294 103.349 15.7042 103.666 15.7031C104.481 15.7001 104.857 15.8201 105.363 16.2455C105.67 16.5027 105.952 16.9472 106.108 17.4171C106.317 18.0501 106.377 18.6385 106.381 20.127L106.385 21.4195L105.952 21.6059C105.356 21.8628 104.355 22.1898 102.513 22.7288C97.4683 24.2049 96.0996 24.9592 95.2063 26.7556C94.7039 27.7659 94.5687 29.2857 94.8757 30.4741C95.2297 31.8448 96.4397 33.0312 98.0157 33.5529C98.6746 33.771 99.0785 33.8219 100.149 33.8219C101.635 33.8219 102.401 33.6787 103.533 33.1894C104.541 32.7538 105.253 32.2728 106.126 31.4375C106.295 31.2754 106.425 31.1818 106.461 31.1958C106.494 31.2083 106.543 31.2894 106.571 31.3761C106.748 31.9281 107.209 32.5673 107.695 32.9335C108.383 33.4515 109.142 33.6817 110.498 33.784C112.088 33.904 113.556 33.6706 115.193 33.0375L115.633 32.8675V32.195V31.5224L114.881 31.4932C113.691 31.4467 113.315 31.3408 112.913 30.938C112.685 30.7104 112.571 30.5041 112.471 30.142C112.409 29.9194 112.4 29.6992 112.405 28.5237C112.409 27.7754 112.432 26.4395 112.457 25.5551C112.539 22.6733 112.56 20.1212 112.506 19.556C112.41 18.5554 112.187 17.7502 111.836 17.1364C110.909 15.515 109.36 14.649 106.838 14.3434C105.552 14.1875 103.635 14.1502 102.617 14.2612ZM146.984 14.2612C146.01 14.3674 144.936 14.5942 144.047 14.8819C142.664 15.3288 141.638 15.9135 140.84 16.7085C140.465 17.0829 140.38 17.1933 140.237 17.4945C140.024 17.9427 139.962 18.2086 139.966 18.6696C139.975 19.7095 140.494 20.5717 141.359 20.9841C141.937 21.2594 142.197 21.3034 143.234 21.3025C144.052 21.3018 144.198 21.2913 144.482 21.2135C144.904 21.0974 145.255 20.9264 145.587 20.6752C145.896 20.4405 146.078 20.1824 146.235 19.7525C146.335 19.4772 146.344 19.4046 146.34 18.8551C146.336 18.2149 146.333 18.1985 146.018 17.1853C145.933 16.9131 145.861 16.6173 145.857 16.5278C145.85 16.3707 145.858 16.3601 146.097 16.2154C146.413 16.0242 146.893 15.8272 147.209 15.7592C147.544 15.6871 148.508 15.6859 148.795 15.7572C149.33 15.8899 149.887 16.2909 150.174 16.7504C150.618 17.4582 150.792 18.5714 150.765 20.5173L150.752 21.4168L150.422 21.5627C149.73 21.8691 148.892 22.1442 146.735 22.7721C141.831 24.1999 140.428 24.9898 139.546 26.8196C139.064 27.8204 138.942 29.3906 139.259 30.5074C139.656 31.906 140.812 33.033 142.383 33.5529C143.045 33.7721 143.444 33.822 144.528 33.8211C145.864 33.8199 146.528 33.7198 147.423 33.3846C148.622 32.9359 149.464 32.4068 150.436 31.4912C150.616 31.3218 150.79 31.1831 150.823 31.1831C150.858 31.1831 150.905 31.2564 150.935 31.3583C151.095 31.8995 151.552 32.5394 152.052 32.9233C152.737 33.4477 153.499 33.681 154.865 33.784C156.455 33.904 157.922 33.6706 159.56 33.0375L160 32.8675V32.195V31.5224L159.248 31.4932C158.058 31.4467 157.682 31.3408 157.279 30.938C157.051 30.7092 156.946 30.5191 156.843 30.1499C156.747 29.8053 156.744 28.7339 156.828 25.4933C156.905 22.5279 156.91 19.6305 156.838 19.1432C156.756 18.5847 156.597 17.9875 156.426 17.5889C156.089 16.8086 155.455 16.0104 154.799 15.5416C154.466 15.3038 153.731 14.9497 153.164 14.7541C152.44 14.5041 151.414 14.3315 150.093 14.2374C149.296 14.1807 147.603 14.1937 146.984 14.2612ZM118.311 17.7831V20.8342H118.966H119.621L119.672 20.6177C119.763 20.2312 120.126 19.2195 120.387 18.6283C120.707 17.9007 120.993 17.4124 121.256 17.1406C121.477 16.9134 121.671 16.8329 122.343 16.6916C123.152 16.5211 124.901 16.4258 127.26 16.4234C128.269 16.4224 128.315 16.4304 128.182 16.5842C128.152 16.62 127.904 16.9739 127.633 17.3708C127.362 17.7676 126.865 18.4912 126.529 18.9788C126.192 19.4664 125.719 20.1528 125.478 20.5043C124.978 21.2316 124.546 21.8577 123.631 23.1843C123.278 23.6946 122.812 24.3718 122.594 24.6893C122.377 25.0067 121.923 25.6654 121.587 26.153C121.25 26.6405 120.509 27.7166 119.939 28.5443C119.027 29.8691 118.681 30.3702 117.781 31.6749L117.569 31.9812V32.6129V33.2446H126.756H135.942V29.7606V26.2766H135.288H134.633L134.561 26.5756C134.379 27.3335 133.625 29.4378 133.313 30.0547C132.959 30.7566 132.433 31.2015 131.761 31.3659C131.005 31.5509 127.618 31.6557 125.509 31.5595L124.942 31.5336L125.052 31.3686C125.231 31.0993 126.371 29.4303 126.756 28.8742C126.952 28.5907 127.378 27.9692 127.703 27.493C128.028 27.0167 128.473 26.3674 128.692 26.0499C128.911 25.7324 129.541 24.814 130.092 24.009C130.644 23.2039 131.311 22.2298 131.576 21.8443C132.459 20.561 135.307 16.4057 135.481 16.1465L135.654 15.891V15.3115V14.732H126.982H118.311V17.7831ZM55.7719 15.8049C57.0593 16.1138 58.0209 17.3244 58.4304 19.1518C58.9257 21.3622 59.0413 24.5938 58.719 27.225C58.4096 29.7523 57.609 31.3839 56.3832 31.9858C55.9065 32.2198 55.6182 32.2958 55.0973 32.3248C53.4067 32.4189 52.1975 31.4759 51.5402 29.5505C51.0942 28.2441 50.9418 27.0935 50.8897 24.6386C50.8314 21.8958 51.0879 19.5398 51.5813 18.2858C52.0395 17.1207 52.7809 16.2484 53.5808 15.9328C54.1465 15.7096 55.1344 15.652 55.7719 15.8049ZM80.6186 17.0831C81.2703 17.1618 81.7362 17.342 82.2309 17.7069C83.1491 18.3842 83.8316 19.6121 84.1395 21.141C84.5103 22.9823 84.5424 25.4244 84.2219 27.4178C83.8033 30.0213 82.7137 31.7589 81.2285 32.191C80.6643 32.3552 79.7285 32.3448 79.2041 32.1686C78.3715 31.8888 77.6635 31.1164 77.1481 29.9256L76.9519 29.472L76.9515 23.9837L76.9511 18.4954L77.291 18.1699C77.9996 17.4913 78.6548 17.1828 79.5985 17.0835C80.0434 17.0367 80.2337 17.0366 80.6186 17.0831ZM38.7347 23.6482C38.748 27.1857 38.7623 28.0845 38.8089 28.3176L38.8665 28.6062L39.0728 28.6183L39.2791 28.6304L39.4784 28.1235C40.4173 25.7344 40.9268 23.2628 41.0264 20.6137C41.0462 20.0876 41.0525 19.5695 41.0405 19.4623L41.0185 19.2674H39.8684H38.7182L38.7347 23.6482ZM106.388 24.3491C106.374 25.0124 106.352 26.4436 106.338 27.5294L106.313 29.5038L105.978 29.8395C105.202 30.6157 104.472 30.9359 103.481 30.9349C102.336 30.9337 101.514 30.2919 101.259 29.1988C100.996 28.0748 101.199 26.7242 101.762 25.852C102.249 25.0966 103.153 24.4393 104.49 23.8693C105.175 23.5771 106.286 23.1456 106.357 23.1442C106.401 23.1433 106.407 23.3641 106.388 24.3491ZM150.755 24.3903C150.741 25.0763 150.719 26.5076 150.705 27.571L150.68 29.5044L150.386 29.8006C149.842 30.3491 149.313 30.6877 148.771 30.834C148.393 30.9361 147.599 30.9589 147.254 30.8775C146.623 30.7282 146.099 30.32 145.83 29.7662C145.599 29.2923 145.527 28.9032 145.528 28.1526C145.529 27.4688 145.588 27.1055 145.791 26.5495C145.984 26.0198 146.209 25.6814 146.669 25.2253C147.33 24.5711 148.164 24.1162 150.031 23.3928C150.382 23.2567 150.694 23.1448 150.724 23.1442C150.769 23.1433 150.774 23.3702 150.755 24.3903Z"
        fill="#498EBF"/>
</svg>
