<svg xmlns="http://www.w3.org/2000/svg" width="25.62" height="35.37"><g data-name="Group 972"><g data-name="Group 971"><path data-name="Path 156" d="M12.81 0A12.824 12.824 0 0 0 0 12.81c0 8.766 11.464 21.634 11.952 22.178a1.154 1.154 0 0 0 1.716 0c.488-.544 11.952-13.412 11.952-22.178A12.824 12.824 0 0 0 12.81 0zm0 32.45c-3.858-4.583-10.5-13.624-10.5-19.64a10.503 10.503 0 1 1 21.006 0c-.003 6.016-6.647 15.056-10.506 19.64z" fill="#4da6ff"/></g></g><g data-name="Group 974"><g data-name="Group 973"><path data-name="Path 157" d="M12.81 6.365a6.445 6.445 0 1 0 6.445 6.445 6.452 6.452 0 0 0-6.445-6.445zm0 10.583a4.138 4.138 0 1 1 4.138-4.138 4.143 4.143 0 0 1-4.138 4.138z" fill="#4da6ff"/></g></g></svg>