<svg xmlns="http://www.w3.org/2000/svg" width="1005" height="409"><defs><clipPath id="a"><path data-name="Rectangle 668" transform="translate(6722 -2791)" fill="#5c2d2d" d="M0 0h1005v409H0z"/></clipPath></defs><g data-name="Mask Group 12" transform="translate(-6722 2791)" clip-path="url(#a)"><g data-name="Group 1206"><g data-name="Rectangle 648" transform="translate(6722 -2791)" fill="none" stroke="#eaeaea"><rect width="208" height="119" rx="2" stroke="none"/><rect x=".5" y=".5" width="207" height="118" rx="1.5"/></g><text transform="translate(6745 -2752)" fill="#4da6ff" font-size="18" font-family="Roboto-Bold, Roboto" font-weight="700"><tspan x="0" y="0">A-class</tspan></text><text data-name="Məhsul sayı: 22 000" transform="translate(6745 -2699)" fill="#505050" font-size="12" font-family="Roboto-Regular, Roboto"><tspan x="0" y="0">Məhsul sayı: </tspan><tspan y="0" font-family="Roboto-Bold, Roboto" font-weight="700">22 000</tspan></text><path data-name="Path 358" d="M6904.306-2759.462l-4.339-4.338a.678.678 0 0 0-.959.959l3.182 3.181h-25.681a.678.678 0 0 0-.678.678.678.678 0 0 0 .678.682h25.681l-3.182 3.178a.678.678 0 0 0 .959.959l4.339-4.337a.678.678 0 0 0 0-.962z" fill="#4da6ff"/></g><g data-name="Group 1207"><g data-name="Rectangle 649" transform="translate(6722 -2646)" fill="none" stroke="#eaeaea"><rect width="208" height="119" rx="2" stroke="none"/><rect x=".5" y=".5" width="207" height="118" rx="1.5"/></g><text transform="translate(6745 -2607)" fill="#4da6ff" font-size="18" font-family="Roboto-Bold, Roboto" font-weight="700"><tspan x="0" y="0">CLA-class</tspan></text><text data-name="Məhsul sayı: 22 000" transform="translate(6745 -2554)" fill="#505050" font-size="12" font-family="Roboto-Regular, Roboto"><tspan x="0" y="0">Məhsul sayı: </tspan><tspan y="0" font-family="Roboto-Bold, Roboto" font-weight="700">22 000</tspan></text><g data-name="arrow-pointing-to-right"><path data-name="Path 359" d="M6904.306-2614.462l-4.339-4.338a.678.678 0 0 0-.959.959l3.182 3.181h-25.681a.678.678 0 0 0-.678.678.678.678 0 0 0 .678.682h25.681l-3.182 3.178a.678.678 0 0 0 .959.959l4.339-4.337a.678.678 0 0 0 0-.962z" fill="#4da6ff"/></g></g><g data-name="Group 1208"><g data-name="Rectangle 650" transform="translate(6722 -2501)" fill="none" stroke="#eaeaea"><rect width="208" height="119" rx="2" stroke="none"/><rect x=".5" y=".5" width="207" height="118" rx="1.5"/></g><text data-name="CLA-class" transform="translate(6745 -2462)" fill="#4da6ff" font-size="18" font-family="Roboto-Bold, Roboto" font-weight="700"><tspan x="0" y="0">CLA-class</tspan></text><text data-name="Məhsul sayı: 22 000" transform="translate(6745 -2409)" fill="#505050" font-size="12" font-family="Roboto-Regular, Roboto"><tspan x="0" y="0">Məhsul sayı: </tspan><tspan y="0" font-family="Roboto-Bold, Roboto" font-weight="700">22 000</tspan></text><g data-name="arrow-pointing-to-right"><path data-name="Path 360" d="M6904.306-2469.462l-4.339-4.338a.678.678 0 0 0-.959.959l3.182 3.181h-25.681a.678.678 0 0 0-.678.678.678.678 0 0 0 .678.682h25.681l-3.182 3.178a.678.678 0 0 0 .959.959l4.339-4.337a.678.678 0 0 0 0-.962z" fill="#4da6ff"/></g></g><g data-name="Group 1209"><g data-name="Rectangle 651" transform="translate(6722 -2356)" fill="none" stroke="#eaeaea"><rect width="208" height="119" rx="2" stroke="none"/><rect x=".5" y=".5" width="207" height="118" rx="1.5"/></g><text transform="translate(6745 -2317)" fill="#4da6ff" font-size="18" font-family="SegoeUI-Bold, Segoe UI" font-weight="700"><tspan x="0" y="0">GLA-class</tspan></text><text data-name="Məhsul sayı: 22 000" transform="translate(6745 -2264)" fill="#505050" font-size="12" font-family="SegoeUI, Segoe UI"><tspan x="0" y="0">Məhsul sayı: </tspan><tspan y="0" font-family="SegoeUI-Bold, Segoe UI" font-weight="700">22 000</tspan></text><g data-name="arrow-pointing-to-right"><path data-name="Path 361" d="M6904.306-2324.462l-4.339-4.338a.678.678 0 0 0-.959.959l3.182 3.181h-25.681a.678.678 0 0 0-.678.678.678.678 0 0 0 .678.682h25.681l-3.182 3.178a.678.678 0 0 0 .959.959l4.339-4.337a.678.678 0 0 0 0-.962z" fill="#4da6ff"/></g></g><g data-name="Group 1210"><g data-name="Rectangle 652" transform="translate(6722 -2211)" fill="none" stroke="#eaeaea"><rect width="208" height="119" rx="2" stroke="none"/><rect x=".5" y=".5" width="207" height="118" rx="1.5"/></g><text transform="translate(6745 -2172)" fill="#4da6ff" font-size="18" font-family="SegoeUI-Bold, Segoe UI" font-weight="700"><tspan x="0" y="0">CLK-class</tspan></text><text data-name="Məhsul sayı: 22 000" transform="translate(6745 -2119)" fill="#505050" font-size="12" font-family="SegoeUI, Segoe UI"><tspan x="0" y="0">Məhsul sayı: </tspan><tspan y="0" font-family="SegoeUI-Bold, Segoe UI" font-weight="700">22 000</tspan></text><g data-name="arrow-pointing-to-right"><path data-name="Path 362" d="M6904.306-2179.462l-4.339-4.338a.678.678 0 0 0-.959.959l3.182 3.181h-25.681a.678.678 0 0 0-.678.678.678.678 0 0 0 .678.682h25.681l-3.182 3.178a.678.678 0 0 0 .959.959l4.339-4.337a.678.678 0 0 0 0-.962z" fill="#4da6ff"/></g></g><g data-name="Group 1211" transform="translate(6988 -2805)"><rect data-name="Rectangle 653" width="208" height="119" rx="2" transform="translate(0 14)" fill="#4da6ff"/><text transform="translate(23 53)" fill="#fff" font-size="18" font-family="Roboto-Bold, Roboto" font-weight="700"><tspan x="0" y="0">B-class</tspan></text><text data-name="Məhsul sayı: 22 000" transform="translate(23 106)" fill="#fff" font-size="12" font-family="Roboto-Regular, Roboto"><tspan x="0" y="0">Məhsul sayı: </tspan><tspan y="0" font-family="Roboto-Bold, Roboto" font-weight="700">22 000</tspan></text><g data-name="arrow-pointing-to-right"><path data-name="Path 363" d="M182.306 45.538l-4.339-4.338a.678.678 0 0 0-.959.959l3.182 3.181h-25.681a.678.678 0 0 0-.678.678.678.678 0 0 0 .678.682h25.681l-3.182 3.178a.678.678 0 0 0 .959.959l4.339-4.337a.678.678 0 0 0 0-.962z" fill="#fff"/></g></g><g data-name="Group 1212"><g data-name="Rectangle 654" transform="translate(6988 -2646)" fill="none" stroke="#eaeaea"><rect width="208" height="119" rx="2" stroke="none"/><rect x=".5" y=".5" width="207" height="118" rx="1.5"/></g><text transform="translate(7011 -2607)" fill="#4da6ff" font-size="18" font-family="Roboto-Bold, Roboto" font-weight="700"><tspan x="0" y="0">G-class</tspan></text><text data-name="Məhsul sayı: 22 000" transform="translate(7011 -2554)" fill="#505050" font-size="12" font-family="Roboto-Regular, Roboto"><tspan x="0" y="0">Məhsul sayı: </tspan><tspan y="0" font-family="Roboto-Bold, Roboto" font-weight="700">22 000</tspan></text><g data-name="arrow-pointing-to-right"><path data-name="Path 364" d="M7170.306-2614.462l-4.339-4.338a.678.678 0 0 0-.959.959l3.182 3.181h-25.681a.678.678 0 0 0-.678.678.678.678 0 0 0 .678.682h25.681l-3.182 3.178a.678.678 0 0 0 .959.959l4.339-4.337a.678.678 0 0 0 0-.962z" fill="#4da6ff"/></g></g><g data-name="Group 1213"><g data-name="Rectangle 655" transform="translate(6988 -2501)" fill="none" stroke="#eaeaea"><rect width="208" height="119" rx="2" stroke="none"/><rect x=".5" y=".5" width="207" height="118" rx="1.5"/></g><text data-name="G-class" transform="translate(7011 -2462)" fill="#4da6ff" font-size="18" font-family="Roboto-Bold, Roboto" font-weight="700"><tspan x="0" y="0">G-class</tspan></text><text data-name="Məhsul sayı: 22 000" transform="translate(7011 -2409)" fill="#505050" font-size="12" font-family="Roboto-Regular, Roboto"><tspan x="0" y="0">Məhsul sayı: </tspan><tspan y="0" font-family="Roboto-Bold, Roboto" font-weight="700">22 000</tspan></text><g data-name="arrow-pointing-to-right"><path data-name="Path 365" d="M7170.306-2469.462l-4.339-4.338a.678.678 0 0 0-.959.959l3.182 3.181h-25.681a.678.678 0 0 0-.678.678.678.678 0 0 0 .678.682h25.681l-3.182 3.178a.678.678 0 0 0 .959.959l4.339-4.337a.678.678 0 0 0 0-.962z" fill="#4da6ff"/></g></g><g data-name="Group 1214"><g data-name="Rectangle 656" transform="translate(6988 -2356)" fill="none" stroke="#eaeaea"><rect width="208" height="119" rx="2" stroke="none"/><rect x=".5" y=".5" width="207" height="118" rx="1.5"/></g><text transform="translate(7011 -2317)" fill="#4da6ff" font-size="18" font-family="SegoeUI-Bold, Segoe UI" font-weight="700"><tspan x="0" y="0">GLK-class</tspan></text><text data-name="Məhsul sayı: 22 000" transform="translate(7011 -2264)" fill="#505050" font-size="12" font-family="SegoeUI, Segoe UI"><tspan x="0" y="0">Məhsul sayı: </tspan><tspan y="0" font-family="SegoeUI-Bold, Segoe UI" font-weight="700">22 000</tspan></text><g data-name="arrow-pointing-to-right"><path data-name="Path 366" d="M7170.306-2324.462l-4.339-4.338a.678.678 0 0 0-.959.959l3.182 3.181h-25.681a.678.678 0 0 0-.678.678.678.678 0 0 0 .678.682h25.681l-3.182 3.178a.678.678 0 0 0 .959.959l4.339-4.337a.678.678 0 0 0 0-.962z" fill="#4da6ff"/></g></g><g data-name="Group 1215"><g data-name="Rectangle 657" transform="translate(6988 -2211)" fill="none" stroke="#eaeaea"><rect width="208" height="119" rx="2" stroke="none"/><rect x=".5" y=".5" width="207" height="118" rx="1.5"/></g><text transform="translate(7011 -2172)" fill="#4da6ff" font-size="18" font-family="SegoeUI-Bold, Segoe UI" font-weight="700"><tspan x="0" y="0">S-class</tspan></text><text data-name="Məhsul sayı: 22 000" transform="translate(7011 -2119)" fill="#505050" font-size="12" font-family="SegoeUI, Segoe UI"><tspan x="0" y="0">Məhsul sayı: </tspan><tspan y="0" font-family="SegoeUI-Bold, Segoe UI" font-weight="700">22 000</tspan></text><g data-name="arrow-pointing-to-right"><path data-name="Path 367" d="M7170.306-2179.462l-4.339-4.338a.678.678 0 0 0-.959.959l3.182 3.181h-25.681a.678.678 0 0 0-.678.678.678.678 0 0 0 .678.682h25.681l-3.182 3.178a.678.678 0 0 0 .959.959l4.339-4.337a.678.678 0 0 0 0-.962z" fill="#4da6ff"/></g></g><g data-name="Group 1216"><g data-name="Rectangle 658" transform="translate(7253 -2791)" fill="none" stroke="#eaeaea"><rect width="208" height="119" rx="2" stroke="none"/><rect x=".5" y=".5" width="207" height="118" rx="1.5"/></g><text transform="translate(7276 -2752)" fill="#4da6ff" font-size="18" font-family="Roboto-Bold, Roboto" font-weight="700"><tspan x="0" y="0">C-class</tspan></text><text data-name="Məhsul sayı: 22 000" transform="translate(7276 -2699)" fill="#505050" font-size="12" font-family="Roboto-Regular, Roboto"><tspan x="0" y="0">Məhsul sayı: </tspan><tspan y="0" font-family="Roboto-Bold, Roboto" font-weight="700">22 000</tspan></text><g data-name="arrow-pointing-to-right"><path data-name="Path 368" d="M7435.306-2759.462l-4.339-4.338a.678.678 0 0 0-.959.959l3.182 3.181h-25.681a.678.678 0 0 0-.678.678.678.678 0 0 0 .678.682h25.681l-3.182 3.178a.678.678 0 0 0 .959.959l4.339-4.337a.678.678 0 0 0 0-.962z" fill="#4da6ff"/></g></g><g data-name="Group 1217"><g data-name="Rectangle 659" transform="translate(7253 -2646)" fill="none" stroke="#eaeaea"><rect width="208" height="119" rx="2" stroke="none"/><rect x=".5" y=".5" width="207" height="118" rx="1.5"/></g><text transform="translate(7276 -2607)" fill="#4da6ff" font-size="18" font-family="Roboto-Bold, Roboto" font-weight="700"><tspan x="0" y="0">GL-class</tspan></text><text data-name="Məhsul sayı: 22 000" transform="translate(7276 -2554)" fill="#505050" font-size="12" font-family="Roboto-Regular, Roboto"><tspan x="0" y="0">Məhsul sayı: </tspan><tspan y="0" font-family="Roboto-Bold, Roboto" font-weight="700">22 000</tspan></text><g data-name="arrow-pointing-to-right"><path data-name="Path 369" d="M7435.306-2614.462l-4.339-4.338a.678.678 0 0 0-.959.959l3.182 3.181h-25.681a.678.678 0 0 0-.678.678.678.678 0 0 0 .678.682h25.681l-3.182 3.178a.678.678 0 0 0 .959.959l4.339-4.337a.678.678 0 0 0 0-.962z" fill="#4da6ff"/></g></g><g data-name="Group 1218"><g data-name="Rectangle 660" transform="translate(7253 -2501)" fill="none" stroke="#eaeaea"><rect width="208" height="119" rx="2" stroke="none"/><rect x=".5" y=".5" width="207" height="118" rx="1.5"/></g><text data-name="GL-class" transform="translate(7276 -2462)" fill="#4da6ff" font-size="18" font-family="Roboto-Bold, Roboto" font-weight="700"><tspan x="0" y="0">GL-class</tspan></text><text data-name="Məhsul sayı: 22 000" transform="translate(7276 -2409)" fill="#505050" font-size="12" font-family="Roboto-Regular, Roboto"><tspan x="0" y="0">Məhsul sayı: </tspan><tspan y="0" font-family="Roboto-Bold, Roboto" font-weight="700">22 000</tspan></text><g data-name="arrow-pointing-to-right"><path data-name="Path 370" d="M7435.306-2469.462l-4.339-4.338a.678.678 0 0 0-.959.959l3.182 3.181h-25.681a.678.678 0 0 0-.678.678.678.678 0 0 0 .678.682h25.681l-3.182 3.178a.678.678 0 0 0 .959.959l4.339-4.337a.678.678 0 0 0 0-.962z" fill="#4da6ff"/></g></g><g data-name="Group 1219"><g data-name="Rectangle 661" transform="translate(7253 -2356)" fill="none" stroke="#eaeaea"><rect width="208" height="119" rx="2" stroke="none"/><rect x=".5" y=".5" width="207" height="118" rx="1.5"/></g><text transform="translate(7276 -2317)" fill="#4da6ff" font-size="18" font-family="SegoeUI-Bold, Segoe UI" font-weight="700"><tspan x="0" y="0">GLC-class</tspan></text><text data-name="Məhsul sayı: 22 000" transform="translate(7276 -2264)" fill="#505050" font-size="12" font-family="SegoeUI, Segoe UI"><tspan x="0" y="0">Məhsul sayı: </tspan><tspan y="0" font-family="SegoeUI-Bold, Segoe UI" font-weight="700">22 000</tspan></text><g data-name="arrow-pointing-to-right"><path data-name="Path 371" d="M7435.306-2324.462l-4.339-4.338a.678.678 0 0 0-.959.959l3.182 3.181h-25.681a.678.678 0 0 0-.678.678.678.678 0 0 0 .678.682h25.681l-3.182 3.178a.678.678 0 0 0 .959.959l4.339-4.337a.678.678 0 0 0 0-.962z" fill="#4da6ff"/></g></g><g data-name="Group 1220"><g data-name="Rectangle 662" transform="translate(7253 -2211)" fill="none" stroke="#eaeaea"><rect width="208" height="119" rx="2" stroke="none"/><rect x=".5" y=".5" width="207" height="118" rx="1.5"/></g><text transform="translate(7276 -2172)" fill="#4da6ff" font-size="18" font-family="SegoeUI-Bold, Segoe UI" font-weight="700"><tspan x="0" y="0">SL-class</tspan></text><text data-name="Məhsul sayı: 22 000" transform="translate(7276 -2119)" fill="#505050" font-size="12" font-family="SegoeUI, Segoe UI"><tspan x="0" y="0">Məhsul sayı: </tspan><tspan y="0" font-family="SegoeUI-Bold, Segoe UI" font-weight="700">22 000</tspan></text><g data-name="arrow-pointing-to-right"><path data-name="Path 372" d="M7435.306-2179.462l-4.339-4.338a.678.678 0 0 0-.959.959l3.182 3.181h-25.681a.678.678 0 0 0-.678.678.678.678 0 0 0 .678.682h25.681l-3.182 3.178a.678.678 0 0 0 .959.959l4.339-4.337a.678.678 0 0 0 0-.962z" fill="#4da6ff"/></g></g><g data-name="Group 1221"><g data-name="Rectangle 663" transform="translate(7519 -2791)" fill="none" stroke="#eaeaea"><rect width="208" height="119" rx="2" stroke="none"/><rect x=".5" y=".5" width="207" height="118" rx="1.5"/></g><text transform="translate(7542 -2752)" fill="#4da6ff" font-size="18" font-family="Roboto-Bold, Roboto" font-weight="700"><tspan x="0" y="0">E-class</tspan></text><text data-name="Məhsul sayı: 22 000" transform="translate(7542 -2699)" fill="#505050" font-size="12" font-family="Roboto-Regular, Roboto"><tspan x="0" y="0">Məhsul sayı: </tspan><tspan y="0" font-family="Roboto-Bold, Roboto" font-weight="700">22 000</tspan></text><g data-name="arrow-pointing-to-right"><path data-name="Path 373" d="M7701.306-2759.462l-4.339-4.338a.678.678 0 0 0-.959.959l3.182 3.181h-25.681a.678.678 0 0 0-.678.678.678.678 0 0 0 .678.682h25.681l-3.182 3.178a.678.678 0 0 0 .959.959l4.339-4.337a.678.678 0 0 0 0-.962z" fill="#4da6ff"/></g></g><g data-name="Group 1222"><g data-name="Rectangle 664" transform="translate(7519 -2646)" fill="none" stroke="#eaeaea"><rect width="208" height="119" rx="2" stroke="none"/><rect x=".5" y=".5" width="207" height="118" rx="1.5"/></g><text transform="translate(7542 -2607)" fill="#4da6ff" font-size="18" font-family="Roboto-Bold, Roboto" font-weight="700"><tspan x="0" y="0">GLE-class</tspan></text><text data-name="Məhsul sayı: 22 000" transform="translate(7542 -2554)" fill="#505050" font-size="12" font-family="Roboto-Regular, Roboto"><tspan x="0" y="0">Məhsul sayı: </tspan><tspan y="0" font-family="Roboto-Bold, Roboto" font-weight="700">22 000</tspan></text><g data-name="arrow-pointing-to-right"><path data-name="Path 374" d="M7701.306-2614.462l-4.339-4.338a.678.678 0 0 0-.959.959l3.182 3.181h-25.681a.678.678 0 0 0-.678.678.678.678 0 0 0 .678.682h25.681l-3.182 3.178a.678.678 0 0 0 .959.959l4.339-4.337a.678.678 0 0 0 0-.962z" fill="#4da6ff"/></g></g><g data-name="Group 1223"><g data-name="Rectangle 665" transform="translate(7519 -2501)" fill="none" stroke="#eaeaea"><rect width="208" height="119" rx="2" stroke="none"/><rect x=".5" y=".5" width="207" height="118" rx="1.5"/></g><text data-name="GLE-class" transform="translate(7542 -2462)" fill="#4da6ff" font-size="18" font-family="Roboto-Bold, Roboto" font-weight="700"><tspan x="0" y="0">GLE-class</tspan></text><text data-name="Məhsul sayı: 22 000" transform="translate(7542 -2409)" fill="#505050" font-size="12" font-family="Roboto-Regular, Roboto"><tspan x="0" y="0">Məhsul sayı: </tspan><tspan y="0" font-family="Roboto-Bold, Roboto" font-weight="700">22 000</tspan></text><g data-name="arrow-pointing-to-right"><path data-name="Path 375" d="M7701.306-2469.462l-4.339-4.338a.678.678 0 0 0-.959.959l3.182 3.181h-25.681a.678.678 0 0 0-.678.678.678.678 0 0 0 .678.682h25.681l-3.182 3.178a.678.678 0 0 0 .959.959l4.339-4.337a.678.678 0 0 0 0-.962z" fill="#4da6ff"/></g></g><g data-name="Group 1224"><g data-name="Rectangle 666" transform="translate(7519 -2356)" fill="none" stroke="#eaeaea"><rect width="208" height="119" rx="2" stroke="none"/><rect x=".5" y=".5" width="207" height="118" rx="1.5"/></g><text transform="translate(7542 -2317)" fill="#4da6ff" font-size="18" font-family="SegoeUI-Bold, Segoe UI" font-weight="700"><tspan x="0" y="0">CLS-class</tspan></text><text data-name="Məhsul sayı: 22 000" transform="translate(7542 -2264)" fill="#505050" font-size="12" font-family="SegoeUI, Segoe UI"><tspan x="0" y="0">Məhsul sayı: </tspan><tspan y="0" font-family="SegoeUI-Bold, Segoe UI" font-weight="700">22 000</tspan></text><g data-name="arrow-pointing-to-right"><path data-name="Path 376" d="M7701.306-2324.462l-4.339-4.338a.678.678 0 0 0-.959.959l3.182 3.181h-25.681a.678.678 0 0 0-.678.678.678.678 0 0 0 .678.682h25.681l-3.182 3.178a.678.678 0 0 0 .959.959l4.339-4.337a.678.678 0 0 0 0-.962z" fill="#4da6ff"/></g></g><g data-name="Group 1225"><g data-name="Rectangle 667" transform="translate(7519 -2211)" fill="none" stroke="#eaeaea"><rect width="208" height="119" rx="2" stroke="none"/><rect x=".5" y=".5" width="207" height="118" rx="1.5"/></g><text transform="translate(7542 -2172)" fill="#4da6ff" font-size="18" font-family="SegoeUI-Bold, Segoe UI" font-weight="700"><tspan x="0" y="0">SLK-class</tspan></text><text data-name="Məhsul sayı: 22 000" transform="translate(7542 -2119)" fill="#505050" font-size="12" font-family="SegoeUI, Segoe UI"><tspan x="0" y="0">Məhsul sayı: </tspan><tspan y="0" font-family="SegoeUI-Bold, Segoe UI" font-weight="700">22 000</tspan></text><g data-name="arrow-pointing-to-right"><path data-name="Path 377" d="M7701.306-2179.462l-4.339-4.338a.678.678 0 0 0-.959.959l3.182 3.181h-25.681a.678.678 0 0 0-.678.678.678.678 0 0 0 .678.682h25.681l-3.182 3.178a.678.678 0 0 0 .959.959l4.339-4.337a.678.678 0 0 0 0-.962z" fill="#4da6ff"/></g></g></g></svg>