<svg data-name="Group 962" xmlns="http://www.w3.org/2000/svg" width="35.824" height="27.262"><path data-name="Path 150" d="M31.45 0H4.381A4.384 4.384 0 0 0 0 4.381v18.5a4.384 4.384 0 0 0 4.381 4.381h27.062a4.384 4.384 0 0 0 4.381-4.381V4.388A4.38 4.38 0 0 0 31.45 0zm2.38 22.882a2.382 2.382 0 0 1-2.379 2.379H4.381A2.382 2.382 0 0 1 2 22.882V4.388a2.382 2.382 0 0 1 2.379-2.379h27.064a2.382 2.382 0 0 1 2.379 2.379v18.494z" fill="#fff"/><path data-name="Path 151" d="M22.541 13.405l8.664-7.745a.99.99 0 1 0-1.327-1.469l-11.944 10.69-2.331-2.075c-.007-.007-.015-.015-.015-.022a1.463 1.463 0 0 0-.161-.139L5.942 4.184A.99.99 0 1 0 4.623 5.66l8.767 7.811-8.73 8.147a.988.988 0 0 0-.044 1.4 1.014 1.014 0 0 0 .726.314.993.993 0 0 0 .674-.263l8.862-8.264 2.4 2.141a.989.989 0 0 0 1.319-.007l2.47-2.207 8.811 8.344a.989.989 0 1 0 1.363-1.432z" fill="#fff"/></svg>