<svg xmlns="http://www.w3.org/2000/svg" width="31.708" height="31.709"><g data-name="Group 964"><g data-name="Group 963"><path data-name="Path 152" d="M30.504 24.807l-6.213-6.213a1.9 1.9 0 0 0-2.69 0l-1.615 1.616a1.9 1.9 0 0 0-.481 1.873l-.61.61c-.433.433-3.129-.232-6.388-3.491s-3.924-5.954-3.491-6.388l.61-.61a1.9 1.9 0 0 0 1.873-.481l1.616-1.616a1.9 1.9 0 0 0 0-2.69L6.898 1.2a1.9 1.9 0 0 0-2.69 0l-1.61 1.62a1.9 1.9 0 0 0-.481 1.873s-.517.522-.542.555c-1.719 1.911-2.041 4.918-.9 8.515a27.1 27.1 0 0 0 6.773 10.5 27.106 27.106 0 0 0 10.5 6.773 13.145 13.145 0 0 0 3.939.67 6.551 6.551 0 0 0 4.79-1.775l.339-.339a1.909 1.909 0 0 0 .528.075 1.89 1.89 0 0 0 1.345-.557l1.615-1.61a1.9 1.9 0 0 0 0-2.693zM5.556 2.549l6.213 6.213-1.615 1.617-.023-.023-3.084-3.085-3.106-3.106zm19.775 26.04c-1.368 1.368-3.787 1.594-6.81.636a25.188 25.188 0 0 1-9.733-6.3 25.186 25.186 0 0 1-6.3-9.733c-.958-3.023-.732-5.442.636-6.81l.172-.172 4.822 4.822-.442.442c-1.832 1.835.369 5.954 3.492 9.077 2.337 2.337 5.233 4.158 7.311 4.158a2.4 2.4 0 0 0 1.767-.667l.442-.442 4.822 4.822zm2.212-.821l-6.213-6.213 1.616-1.616 6.213 6.213-1.615 1.616z" fill="#4da6ff"/></g></g><g data-name="Group 966"><g data-name="Group 965"><path data-name="Path 153" d="M24.08 7.633a9.514 9.514 0 0 0-6.772-2.805.951.951 0 0 0 0 1.9 7.675 7.675 0 0 1 7.675 7.675.951.951 0 0 0 1.9 0 9.515 9.515 0 0 0-2.803-6.77z" fill="#4da6ff"/></g></g><g data-name="Group 968"><g data-name="Group 967"><path data-name="Path 154" d="M27.491 4.218A14.307 14.307 0 0 0 17.308 0a.951.951 0 0 0 0 1.9 12.5 12.5 0 0 1 12.5 12.5.951.951 0 0 0 1.9 0 14.306 14.306 0 0 0-4.217-10.182z" fill="#4da6ff"/></g></g><g data-name="Group 970"><g data-name="Group 969"><path data-name="Path 155" d="M20.668 11.04a4.658 4.658 0 0 0-3.36-1.392.951.951 0 0 0 0 1.9 2.758 2.758 0 0 1 2.015.835 2.794 2.794 0 0 1 .835 2.015.951.951 0 0 0 .951.951.951.951 0 0 0 .951-.951 4.659 4.659 0 0 0-1.392-3.358z" fill="#4da6ff"/></g></g></svg>