<svg xmlns="http://www.w3.org/2000/svg" width="36.5" height="35.301"><path data-name="Path 142" d="M35.678 6.347L18.685.078a1.259 1.259 0 0 0-.871 0L.823 6.347l-.28.1-.012.05A1.259 1.259 0 0 0 0 7.528v20.17a1.263 1.263 0 0 0 .822 1.18l16.992 6.27a1.252 1.252 0 0 0 .414.077l.049.073 17.4-6.42a1.263 1.263 0 0 0 .823-1.18V7.528a1.263 1.263 0 0 0-.822-1.181zM7.1 17.376v-6.352l5.1 1.881v6.352zm-1.694 2.057l7.615 2.81a1.258 1.258 0 0 0 1.694-1.18v-7.229l2.278.841v17.49L2.516 26.823V9.333l2.067.763v8.157a1.263 1.263 0 0 0 .822 1.18zm.428-10.969l.191-.519-1.133-.417 13.358-4.93 13.358 4.93-13.358 4.929L6.025 7.946zm13.675 23.7v-17.49l14.476-5.341v17.49z" fill="#4da6ff"/></svg>