<svg xmlns="http://www.w3.org/2000/svg" width="35.642" height="35.572"><g data-name="Group 1173" fill="#fdfdfd"><path data-name="Path 354" d="M31.031 0h-5.653a4.611 4.611 0 0 0-4.612 4.611v1.18a15.354 15.354 0 0 0-5.39-.971A15.377 15.377 0 0 0 0 20.196a15.331 15.331 0 0 0 4.837 11.2 15.345 15.345 0 0 0 1.892 1.52 15.3 15.3 0 0 0 8.648 2.66 15.3 15.3 0 0 0 8.648-2.66 15.354 15.354 0 0 0 1.892-1.52 15.331 15.331 0 0 0 4.837-11.2 15.36 15.36 0 0 0-.945-5.319h1.223a4.611 4.611 0 0 0 4.611-4.611V4.612A4.611 4.611 0 0 0 31.031 0zM15.376 33.513a13.211 13.211 0 0 1-8.234-2.848 8.672 8.672 0 0 1 8.234-5.982 8.672 8.672 0 0 1 8.234 5.982 13.211 13.211 0 0 1-8.234 2.848zm0-11.238a4.37 4.37 0 0 1-4.366-4.366 4.37 4.37 0 0 1 4.366-4.364 4.37 4.37 0 0 1 4.366 4.364 4.37 4.37 0 0 1-4.366 4.366zm13.317-2.079a13.224 13.224 0 0 1-3.454 8.949 10.743 10.743 0 0 0-6.277-5.9 6.417 6.417 0 0 0 2.837-5.331 6.424 6.424 0 0 0-6.424-6.423 6.424 6.424 0 0 0-6.424 6.423 6.417 6.417 0 0 0 2.837 5.331 10.743 10.743 0 0 0-6.277 5.9 13.224 13.224 0 0 1-3.454-8.949 13.231 13.231 0 0 1 3.9-9.417 13.231 13.231 0 0 1 9.417-3.9 13.3 13.3 0 0 1 5.39 1.131v2.256a4.612 4.612 0 0 0 4.612 4.611h2.215a13.287 13.287 0 0 1 1.103 5.319zm4.89-9.93a2.556 2.556 0 0 1-2.553 2.553h-5.653a2.556 2.556 0 0 1-2.553-2.553V4.612a2.556 2.556 0 0 1 2.553-2.553h5.653a2.556 2.556 0 0 1 2.553 2.553z"/><path data-name="Path 355" d="M28.947 3.74h-1.344v2.991h-2.867V8.02h2.867v3.018h1.344V8.02h2.867V6.731h-2.867z"/></g></svg>