<svg xmlns="http://www.w3.org/2000/svg" width="35.824" height="23.449"><path data-name="Path 402" d="M33.6 7.486a1.069 1.069 0 0 0-.073-.082l-1.255-1.212c1.041-.236 2.162-1.108 2.162-2 0-1.043-1.447-1.413-2.682-1.413-1.291 0-1.441.885-1.456 1.51l-3.235-3.125A4.571 4.571 0 0 0 24.222 0H11.6a4.573 4.573 0 0 0-2.836 1.164L5.525 4.287c-.017-.625-.167-1.51-1.456-1.51-1.236 0-2.683.37-2.683 1.413 0 .895 1.122 1.767 2.163 2L2.294 7.404c-.029.027-.048.054-.073.082A7.032 7.032 0 0 0 0 12.308v4.591a4.188 4.188 0 0 0 1.149 2.879v1.78a1.92 1.92 0 0 0 1.943 1.89h2.35a1.918 1.918 0 0 0 1.943-1.89v-.456h21.054v.456a1.918 1.918 0 0 0 1.943 1.89h2.349a1.919 1.919 0 0 0 1.943-1.89v-1.78a4.184 4.184 0 0 0 1.149-2.879v-4.591A7.024 7.024 0 0 0 33.6 7.486zM9.953 2.552a3.239 3.239 0 0 1 1.649-.668h12.621a3.239 3.239 0 0 1 1.649.668l4.247 4.116H5.707zm-8.5 9.062A2.014 2.014 0 0 1 3.43 9.566c1.092 0 4.659 2.094 4.659 3.224s-3.567.869-4.659.869a2.011 2.011 0 0 1-1.973-2.045zm5.929 7.477H4.399a4.247 4.247 0 0 1-1.367-.66 1.938 1.938 0 0 1-.37-.376 1.47 1.47 0 0 1-.208-.379 1.727 1.727 0 0 1 .3-1.507h3.81l2.541 2.917zm16.008 0H12.431a2.071 2.071 0 0 1-2.071-2.07h15.1a2.071 2.071 0 0 1-2.066 2.071zm.481-3.482H11.95c-1.243 0-2.252-1.533-2.252-3.423h16.429c0 1.892-1.009 3.423-2.252 3.423zm9.5 2.071a1.481 1.481 0 0 1-.208.379 1.9 1.9 0 0 1-.37.376 4.209 4.209 0 0 1-1.367.66h-4.707l2.543-2.917h3.812a1.724 1.724 0 0 1 .297 1.502zm-.98-4.021c-1.091 0-4.658.26-4.658-.869s3.567-3.224 4.658-3.224a2.048 2.048 0 0 1 0 4.093z" fill="#fdfdfd"/></svg>