<svg xmlns="http://www.w3.org/2000/svg" width="32.421" height="32.737"><path data-name="shopping-cart (2)" d="M31.646 6.212a3.182 3.182 0 0 0-2.436-1.076H5.908l-.234-1.758C5.421 1.484 4.1 0 2.671 0H.959a.959.959 0 0 0 0 1.918h1.712c.308 0 .959.651 1.1 1.713l2.747 20.592a3.878 3.878 0 0 0 1.313 2.393 3.964 3.964 0 0 0 1.841.916 3.528 3.528 0 1 0 6.239.069h5.026a3.527 3.527 0 1 0 6.275 0h2.513a.959.959 0 1 0 0-1.918H10.376a2.059 2.059 0 0 1-1.957-1.714l-.2-1.5h18.936a3.982 3.982 0 0 0 3.858-3.378l1.376-10.323a3.182 3.182 0 0 0-.743-2.556zm-17.263 23a1.609 1.609 0 1 1-1.61-1.612 1.611 1.611 0 0 1 1.609 1.61zm11.3 0a1.609 1.609 0 1 1-1.61-1.612 1.611 1.611 0 0 1 1.61 1.61zM30.2 7.475a1.289 1.289 0 0 1 .285 1.039l-.577 4.327h-6.523l.386-5.787h5.439a1.29 1.29 0 0 1 .99.421zM16.582 20.546l-.382-5.787h5.139l-.386 5.787zm-.514-7.7l-.386-5.787h6.166l-.386 5.787zM13.76 7.055l.386 5.787H6.935l-.771-5.787zm-6.569 7.7h7.083l.386 5.787h-6.7zm19.964 5.787h-4.284l.386-5.787h6.4l-.543 4.073a2.059 2.059 0 0 1-1.959 1.718zm0 0" fill="#fff"/></svg>