<svg xmlns="http://www.w3.org/2000/svg" width="34.341" height="32.186"><path data-name="Path 136" d="M25.253 19.352h-5.388a1.006 1.006 0 0 0-1.006 1.006v5.434a1.006 1.006 0 0 0 1.006 1.006h5.388a1.006 1.006 0 0 0 1.006-1.006v-5.434a1.006 1.006 0 0 0-1.006-1.006zm-1.006 5.434h-3.376v-3.422h3.376zm0 0" fill="#fff"/><path data-name="Path 137" d="M34.3 8.273L32.887 3.32A4.782 4.782 0 0 0 28.486 0H5.855a4.782 4.782 0 0 0-4.4 3.32L.039 8.273A1.006 1.006 0 0 0 0 8.55v3.233a4.245 4.245 0 0 0 2.694 3.947v12.756a3.7 3.7 0 0 0 3.7 3.7h21.553a3.7 3.7 0 0 0 3.7-3.7V15.729a4.245 4.245 0 0 0 2.694-3.947V8.55a1.006 1.006 0 0 0-.041-.277zm-30.911-4.4a2.8 2.8 0 0 1 2.466-1.861h22.63a2.8 2.8 0 0 1 2.467 1.861L32 7.544H2.34zm5.089 5.683h4.454v2.226a2.227 2.227 0 1 1-4.454 0zm6.466 0H19.4v2.226a2.227 2.227 0 1 1-4.454 0zm6.466 0h4.454v2.226a2.227 2.227 0 1 1-4.454 0zm-19.4 2.226V9.556h4.456v2.226a2.227 2.227 0 1 1-4.454 0zm8.082 18.391V24.1h3.376v6.07zm17.853 0H15.483V23.1a1.006 1.006 0 0 0-1.006-1.006H9.088A1.006 1.006 0 0 0 8.082 23.1v7.076H6.394a1.69 1.69 0 0 1-1.688-1.688V16a4.234 4.234 0 0 0 2.766-1.48 4.231 4.231 0 0 0 6.466 0 4.231 4.231 0 0 0 6.466 0 4.231 4.231 0 0 0 6.466 0A4.235 4.235 0 0 0 29.635 16v12.49a1.69 1.69 0 0 1-1.688 1.684zM30.1 14.009a2.229 2.229 0 0 1-2.227-2.227V9.556h4.454v2.227a2.229 2.229 0 0 1-2.227 2.226zm0 0" fill="#fff"/></svg>